<?xml version="1.0" encoding="UTF-8" ?>
<!DOCTYPE svg PUBLIC "-//W3C//DTD SVG 1.1//EN" "http://www.w3.org/Graphics/SVG/1.1/DTD/svg11.dtd">
<svg width="150pt" height="150pt" viewBox="0 0 150 150" version="1.1" xmlns="http://www.w3.org/2000/svg">
<g id="#ff007fff">
<path fill="#ff007f" opacity="1.00" d=" M 47.31 17.90 C 62.88 16.34 78.41 18.94 93.99 18.47 C 103.80 18.24 114.32 20.44 121.89 27.03 C 129.30 33.85 131.18 44.36 131.48 53.97 C 131.45 68.31 131.48 82.66 131.53 97.00 C 131.94 109.99 124.65 123.41 112.49 128.68 C 103.53 132.37 93.64 133.66 83.99 133.49 C 72.44 133.12 60.74 134.49 49.33 132.06 C 40.18 130.81 29.23 131.05 22.99 122.98 C 16.03 115.28 17.74 104.46 17.40 94.98 C 15.90 80.71 16.38 66.34 16.38 52.01 C 16.32 44.41 17.43 36.29 21.86 29.91 C 28.19 22.57 37.95 19.17 47.31 17.90 M 47.51 23.88 C 37.22 24.89 24.49 29.99 23.03 41.66 C 19.69 64.34 23.29 87.25 23.58 110.00 C 23.69 117.64 30.30 123.78 37.61 124.82 C 47.36 126.07 57.13 127.86 67.01 127.32 C 80.08 126.63 93.55 129.19 106.22 124.89 C 116.90 122.17 125.27 112.14 125.49 101.04 C 125.57 84.68 125.51 68.30 125.39 51.94 C 125.21 44.74 123.95 36.75 118.42 31.60 C 111.87 25.62 102.53 24.38 94.00 24.49 C 78.47 25.06 63.03 22.51 47.51 23.88 Z" />
<path fill="#ff007f" opacity="1.00" d=" M 51.25 45.98 C 60.44 44.89 69.76 45.60 79.00 45.21 C 89.06 45.16 100.33 44.72 108.69 51.28 C 114.79 56.30 114.73 64.82 115.45 72.01 C 115.71 79.71 117.24 88.52 112.09 95.06 C 107.62 101.42 99.39 103.29 92.05 103.49 C 79.69 103.41 67.33 103.66 54.96 103.56 C 47.90 103.54 40.55 100.31 36.78 94.13 C 32.37 86.97 31.23 78.27 31.41 69.99 C 31.24 64.16 32.45 57.91 36.40 53.41 C 40.13 49.04 45.93 47.46 51.25 45.98 M 62.61 51.28 C 55.39 51.42 47.26 51.57 41.42 56.42 C 35.94 61.82 37.68 70.14 37.53 77.04 C 37.82 85.40 41.66 96.05 51.10 97.37 C 64.73 97.76 78.39 97.42 92.03 97.53 C 97.46 97.73 103.49 96.52 107.06 92.07 C 112.41 85.65 109.85 76.74 109.37 69.19 C 108.52 63.91 108.76 56.70 102.98 54.16 C 90.24 48.80 76.03 51.02 62.61 51.28 Z" />
<path fill="#ff007f" opacity="1.00" d=" M 62.51 77.99 C 63.09 72.33 60.55 63.83 65.98 60.40 C 74.52 63.49 82.27 68.95 89.93 73.87 C 90.17 78.25 85.21 78.76 82.21 80.36 C 76.44 82.54 71.55 86.55 65.84 88.80 C 60.69 88.42 63.02 81.44 62.51 77.99 M 68.62 67.34 C 68.69 71.87 68.61 76.39 68.45 80.91 C 72.52 78.71 76.65 76.64 80.84 74.67 C 76.86 72.06 72.57 70.00 68.62 67.34 Z" />
</g>
</svg>
