<?xml version="1.0" encoding="UTF-8" ?>
<!DOCTYPE svg PUBLIC "-//W3C//DTD SVG 1.1//EN" "http://www.w3.org/Graphics/SVG/1.1/DTD/svg11.dtd">
<svg width="80pt" height="80pt" viewBox="0 0 80 80" version="1.1" xmlns="http://www.w3.org/2000/svg">
<path fill="#f6007a" opacity="0.96" d=" M 21.92 14.20 C 28.51 14.76 33.90 18.89 40.12 20.53 C 44.53 19.90 48.32 17.04 52.48 15.51 C 53.59 19.88 53.32 24.45 54.21 28.83 C 59.02 31.41 64.31 32.85 69.31 34.98 C 69.43 36.08 69.65 38.27 69.76 39.37 C 64.56 43.02 58.54 45.50 53.81 49.83 C 48.75 53.82 47.64 60.89 42.72 65.00 C 35.10 63.69 36.84 51.12 28.72 50.48 C 23.37 50.77 18.27 52.74 13.14 54.15 C 11.98 52.55 10.82 50.94 9.69 49.32 C 14.12 43.92 19.73 38.81 21.44 31.79 C 21.86 25.94 21.81 20.06 21.92 14.20 M 30.40 25.67 C 29.53 31.45 27.47 36.92 25.23 42.29 C 31.85 43.32 38.24 46.21 42.12 51.82 C 46.21 46.69 51.05 42.27 56.53 38.66 C 51.37 36.63 47.29 32.74 44.69 27.87 C 39.88 27.53 35.04 27.05 30.40 25.67 Z" />
</svg>
