<?xml version="1.0" encoding="UTF-8" ?>
<!DOCTYPE svg PUBLIC "-//W3C//DTD SVG 1.1//EN" "http://www.w3.org/Graphics/SVG/1.1/DTD/svg11.dtd">
<svg width="80pt" height="80pt" viewBox="0 0 80 80" version="1.1" xmlns="http://www.w3.org/2000/svg">
<path fill="#f20079" opacity="0.95" d=" M 24.27 12.11 C 27.95 12.63 31.73 12.25 35.38 13.00 C 38.48 15.02 40.80 18.10 44.06 19.90 C 48.32 21.81 53.07 21.68 57.62 21.45 C 59.69 24.18 62.05 26.66 64.91 28.58 C 63.75 34.32 62.18 40.05 62.21 45.94 C 62.66 51.14 64.02 56.21 65.00 61.32 C 61.71 63.13 58.82 65.55 56.40 68.41 C 51.12 63.06 46.12 56.93 39.01 53.98 C 34.86 51.88 30.01 52.91 25.58 52.27 C 20.74 53.04 17.00 49.83 13.34 47.34 C 17.04 41.60 22.13 36.32 23.21 29.33 C 23.89 23.62 24.01 17.85 24.27 12.11 M 32.26 18.37 C 30.83 27.93 28.14 37.34 23.36 45.79 C 28.89 45.69 34.58 45.32 39.89 47.16 C 46.85 49.86 52.26 55.20 57.89 59.91 C 54.31 49.73 54.55 38.61 58.40 28.54 C 53.26 28.78 48.03 28.41 43.09 26.87 C 38.61 25.36 35.56 21.51 32.26 18.37 Z" />
</svg>
