<?xml version="1.0" encoding="UTF-8" ?>
<!DOCTYPE svg PUBLIC "-//W3C//DTD SVG 1.1//EN" "http://www.w3.org/Graphics/SVG/1.1/DTD/svg11.dtd">
<svg width="80pt" height="80pt" viewBox="0 0 80 80" version="1.1" xmlns="http://www.w3.org/2000/svg">
<path fill="#f40079" opacity="0.96" d=" M 36.36 19.10 C 41.76 19.33 47.24 19.09 52.54 20.29 C 51.12 29.16 47.90 37.56 45.28 46.11 C 43.66 49.77 43.62 54.59 40.27 57.28 C 36.93 60.08 32.37 57.53 28.71 56.62 C 31.01 44.06 32.39 31.30 36.36 19.10 M 41.03 25.03 C 39.02 33.71 36.92 42.41 36.21 51.32 C 39.62 42.73 41.68 33.66 45.15 25.07 C 43.77 25.06 42.40 25.04 41.03 25.03 Z" />
<path fill="#f40079" opacity="0.96" d=" M 21.39 23.34 C 25.35 21.37 30.34 23.49 30.49 27.95 C 30.03 35.65 29.85 43.51 28.05 51.05 C 27.08 56.36 18.30 56.51 16.34 51.67 C 13.30 44.13 13.79 35.62 13.49 27.63 C 13.35 23.62 18.86 24.12 21.39 23.34 M 19.89 30.02 C 20.56 32.44 21.23 34.86 21.90 37.29 C 22.40 34.90 22.83 32.47 23.29 30.08 C 22.44 30.06 20.74 30.03 19.89 30.02 M 21.22 44.00 C 20.16 44.57 20.16 46.43 21.22 47.00 C 23.02 47.35 23.02 43.65 21.22 44.00 Z" />
<path fill="#f40079" opacity="0.96" d=" M 56.18 32.28 C 60.13 34.00 64.00 35.87 67.80 37.89 C 64.87 46.23 60.37 53.83 55.57 61.21 C 52.12 60.67 48.70 60.00 45.30 59.22 C 46.66 49.46 51.59 40.81 56.18 32.28 M 54.94 49.26 C 57.41 46.04 59.75 42.72 61.81 39.22 C 58.28 41.55 56.49 45.48 54.94 49.26 Z" />
</svg>
