<?xml version="1.0" encoding="UTF-8" ?>
<!DOCTYPE svg PUBLIC "-//W3C//DTD SVG 1.1//EN" "http://www.w3.org/Graphics/SVG/1.1/DTD/svg11.dtd">
<svg width="80pt" height="80pt" viewBox="0 0 80 80" version="1.1" xmlns="http://www.w3.org/2000/svg">
<path fill="#f30079" opacity="0.95" d=" M 28.25 59.92 C 28.89 41.54 43.54 28.35 55.85 16.45 C 57.37 17.95 58.88 19.45 60.38 20.97 C 56.22 25.93 51.99 30.84 47.47 35.48 C 40.56 42.24 38.05 51.93 33.06 59.99 C 31.45 59.97 29.85 59.94 28.25 59.92 Z" />
<path fill="#f30079" opacity="0.95" d=" M 16.83 21.94 C 20.17 24.24 24.58 26.97 23.04 32.01 C 22.97 37.88 23.04 44.16 20.58 49.64 C 19.35 52.20 16.45 53.10 13.84 53.46 C 12.78 48.31 14.19 43.09 14.40 37.93 C 14.98 32.58 15.05 27.08 16.83 21.94 Z" />
<path fill="#f30079" opacity="0.95" d=" M 45.45 53.44 C 51.15 46.56 57.29 38.44 66.88 37.30 C 66.63 40.07 66.76 43.35 64.33 45.25 C 57.55 50.92 51.79 58.23 43.57 61.91 C 43.60 59.01 43.04 55.65 45.45 53.44 Z" />
</svg>
