<?xml version="1.0" encoding="UTF-8" ?>
<!DOCTYPE svg PUBLIC "-//W3C//DTD SVG 1.1//EN" "http://www.w3.org/Graphics/SVG/1.1/DTD/svg11.dtd">
<svg width="80pt" height="80pt" viewBox="0 0 80 80" version="1.1" xmlns="http://www.w3.org/2000/svg">
<path fill="#f30079" opacity="0.95" d=" M 38.61 12.71 C 40.16 13.09 41.70 13.48 43.24 13.87 C 42.56 31.74 40.76 49.56 38.32 67.26 C 36.46 66.92 34.61 66.58 32.76 66.22 C 32.74 53.72 34.56 41.35 35.86 28.94 C 36.49 23.49 37.08 18.00 38.61 12.71 Z" />
<path fill="#f30079" opacity="0.95" d=" M 53.75 28.05 C 55.36 28.01 56.97 27.97 58.58 27.93 C 60.45 38.89 59.49 50.03 58.41 61.02 C 56.80 61.02 55.18 61.03 53.57 61.04 C 53.13 50.06 52.51 38.99 53.75 28.05 Z" />
<path fill="#f30079" opacity="0.95" d=" M 20.03 63.30 C 22.20 53.62 19.17 41.72 26.21 33.66 C 27.32 35.84 28.77 38.06 28.62 40.62 C 28.04 48.93 28.11 57.37 26.30 65.53 C 24.19 64.83 22.10 64.10 20.03 63.30 Z" />
</svg>
