<?xml version="1.0" encoding="UTF-8" ?>
<!DOCTYPE svg PUBLIC "-//W3C//DTD SVG 1.1//EN" "http://www.w3.org/Graphics/SVG/1.1/DTD/svg11.dtd">
<svg width="117pt" height="90pt" viewBox="0 0 117 90" version="1.1" xmlns="http://www.w3.org/2000/svg">
<g id="#ffffffff">
<path fill="#ffffff" opacity="1.00" d=" M 66.27 8.00 C 70.68 7.60 74.69 10.74 78.78 12.16 C 83.91 14.77 89.10 8.25 93.86 12.07 C 96.41 13.27 95.38 16.49 94.62 18.51 C 93.56 21.09 95.75 23.46 95.93 26.00 C 95.39 29.22 92.67 32.12 93.56 35.53 C 94.74 38.40 97.65 40.64 97.46 44.00 C 97.64 46.88 94.95 49.07 95.31 52.00 C 95.16 56.76 100.78 61.36 96.96 65.91 C 92.70 70.08 86.76 66.90 82.00 65.44 C 77.70 66.61 73.61 69.03 68.99 68.49 C 64.77 69.03 61.22 65.88 57.01 66.33 C 51.53 65.96 46.43 68.94 40.94 68.43 C 36.92 68.17 33.52 65.79 29.88 64.34 C 25.65 64.92 21.50 67.66 17.16 66.09 C 12.90 64.29 12.60 58.33 14.82 54.83 C 17.64 51.70 17.30 46.52 14.57 43.42 C 11.90 40.19 15.06 36.55 16.45 33.54 C 17.84 28.67 13.23 24.77 13.47 20.00 C 12.65 14.46 19.40 10.12 24.25 12.50 C 28.30 13.76 31.33 10.30 35.02 9.56 C 38.41 8.64 40.60 14.54 43.81 11.80 C 48.82 7.72 53.97 14.90 59.26 12.13 C 61.54 10.64 63.49 8.56 66.27 8.00 Z" />
</g>
</svg>