<?xml version="1.0" encoding="UTF-8" ?>
<!DOCTYPE svg PUBLIC "-//W3C//DTD SVG 1.1//EN" "http://www.w3.org/Graphics/SVG/1.1/DTD/svg11.dtd">
<svg width="101pt" height="82pt" viewBox="0 0 101 82" version="1.1" xmlns="http://www.w3.org/2000/svg">
<g id="#ffffffff">
<path fill="#ffffff" opacity="1.00" d=" M 75.29 8.04 C 78.44 7.45 82.14 6.97 84.82 9.16 C 87.17 11.01 87.53 14.19 87.48 16.98 C 87.35 30.66 87.36 44.35 87.48 58.04 C 87.33 59.77 87.73 61.92 86.11 63.09 C 82.97 65.92 78.59 63.37 74.92 63.43 C 68.58 63.59 62.33 65.08 56.00 65.34 C 45.01 64.18 33.88 62.28 22.84 64.00 C 18.77 64.53 14.43 65.11 10.47 63.70 C 7.03 62.39 5.35 58.56 5.55 55.06 C 5.63 43.70 5.65 32.34 5.56 20.98 C 5.50 17.53 5.80 13.81 7.95 10.95 C 10.16 9.25 13.19 8.86 15.91 8.99 C 22.92 9.75 30.06 10.03 37.04 8.87 C 44.80 7.46 52.27 11.10 60.02 10.70 C 65.25 10.88 70.23 9.07 75.29 8.04 Z" />
</g>
</svg>