<?xml version="1.0" encoding="UTF-8" ?>
<!DOCTYPE svg PUBLIC "-//W3C//DTD SVG 1.1//EN" "http://www.w3.org/Graphics/SVG/1.1/DTD/svg11.dtd">
<svg width="101pt" height="82pt" viewBox="0 0 101 82" version="1.1" xmlns="http://www.w3.org/2000/svg">
<g id="#ff007fff">
<path fill="#ff007f" opacity="1.00" d=" M 75.30 8.00 C 78.45 7.45 82.17 6.91 84.84 9.14 C 87.78 11.49 87.50 15.62 87.55 19.00 C 87.34 31.68 87.39 44.36 87.55 57.04 C 87.37 59.09 87.90 61.62 86.16 63.15 C 84.07 65.29 80.92 64.09 78.35 63.92 C 69.92 62.41 61.63 66.16 53.20 65.10 C 45.81 64.24 38.42 63.14 30.95 63.40 C 24.94 63.31 19.01 65.17 12.99 64.43 C 10.37 64.13 7.84 62.63 6.60 60.26 C 5.40 58.05 5.53 55.46 5.49 53.04 C 5.66 42.35 5.57 31.66 5.52 20.97 C 5.54 17.54 5.66 13.71 7.98 10.95 C 9.86 9.20 12.61 9.03 15.05 9.03 C 19.38 9.17 23.70 9.68 28.03 9.54 C 33.69 9.70 39.28 7.94 44.93 8.79 C 49.95 9.50 54.91 10.85 60.01 10.64 C 65.25 10.81 70.24 9.08 75.30 8.00 M 78.46 9.72 C 72.81 10.55 67.37 12.71 61.60 12.76 C 55.35 13.12 49.25 11.26 43.02 11.39 C 35.68 11.39 28.34 11.56 21.01 11.41 C 17.51 11.46 13.98 11.10 10.52 11.66 C 7.93 13.00 7.78 16.44 7.57 19.01 C 7.39 29.34 7.86 39.67 7.55 49.99 C 7.53 52.50 7.33 55.03 7.76 57.51 C 8.32 60.44 11.22 62.52 14.14 62.54 C 18.46 62.73 22.69 61.55 27.00 61.48 C 33.55 61.32 40.15 61.25 46.67 62.09 C 53.77 62.93 60.98 62.84 68.07 61.88 C 73.79 61.05 79.59 62.02 85.31 61.35 C 85.84 49.92 85.04 38.46 85.42 27.02 C 85.39 22.65 85.99 18.19 84.98 13.90 C 84.35 11.05 81.33 9.00 78.46 9.72 Z" />
</g>
</svg>
