<?xml version="1.0" encoding="UTF-8" ?>
<!DOCTYPE svg PUBLIC "-//W3C//DTD SVG 1.1//EN" "http://www.w3.org/Graphics/SVG/1.1/DTD/svg11.dtd">
<svg width="105pt" height="76pt" viewBox="0 0 105 76" version="1.1" xmlns="http://www.w3.org/2000/svg">
<g id="#ff007fff">
<path fill="#ff007f" opacity="1.00" d=" M 37.28 9.13 C 41.43 8.07 45.76 8.80 50.00 8.60 C 55.08 8.83 60.29 7.95 65.26 9.34 C 72.84 9.66 80.43 9.34 88.01 9.50 C 90.75 9.43 92.58 12.47 92.40 14.95 C 92.26 29.31 92.50 43.67 92.47 58.03 C 92.81 60.98 90.08 64.00 87.03 63.48 C 64.34 63.43 41.65 63.80 18.97 63.46 C 16.71 63.55 14.35 62.58 12.90 60.83 C 12.51 58.57 11.87 56.36 11.61 54.08 C 11.31 41.73 11.58 29.37 11.37 17.02 C 11.42 14.37 10.91 10.82 13.95 9.60 C 21.72 9.34 29.57 10.06 37.28 9.13 M 15.48 11.52 C 14.11 12.12 13.10 13.49 13.40 15.04 C 13.52 26.62 13.26 38.20 13.56 49.78 C 14.65 52.94 14.33 56.27 14.51 59.56 C 16.09 61.18 18.75 61.52 20.96 61.56 C 43.49 61.60 66.02 61.62 88.55 61.48 C 90.15 60.17 90.72 58.04 90.56 56.04 C 90.38 51.70 91.07 47.24 89.70 43.04 C 89.37 32.84 89.79 22.62 89.52 12.42 C 89.28 12.19 88.80 11.73 88.56 11.50 C 69.03 11.38 49.49 11.36 29.95 11.46 C 28.26 11.39 26.64 11.91 25.01 12.29 C 21.77 13.07 18.75 10.75 15.48 11.52 Z" />
</g>
</svg>
