<?xml version="1.0" encoding="UTF-8" ?>
<!DOCTYPE svg PUBLIC "-//W3C//DTD SVG 1.1//EN" "http://www.w3.org/Graphics/SVG/1.1/DTD/svg11.dtd">
<svg width="114pt" height="91pt" viewBox="0 0 114 91" version="1.1" xmlns="http://www.w3.org/2000/svg">
<g id="#ff007fff">
<path fill="#ff007f" opacity="1.00" d=" M 68.29 7.04 C 75.23 6.56 81.56 14.63 88.77 10.64 C 92.28 8.28 99.15 11.03 97.13 15.87 C 95.27 18.92 97.30 21.99 97.97 25.01 C 97.33 27.76 95.56 30.16 95.29 33.01 C 95.49 37.14 100.26 39.69 99.39 44.00 C 99.16 46.18 97.29 47.85 97.32 50.09 C 96.49 55.24 102.95 60.03 98.91 64.88 C 94.72 69.04 88.73 65.91 84.01 64.40 C 77.71 66.86 70.56 69.10 64.03 66.09 C 56.68 63.28 49.39 68.20 41.97 67.34 C 38.33 66.78 35.26 64.59 31.87 63.37 C 27.64 63.87 23.53 66.60 19.16 65.08 C 14.18 62.81 14.72 55.58 18.02 52.07 C 19.64 48.69 18.63 44.46 16.11 41.73 C 13.80 37.46 19.22 34.29 18.70 30.08 C 18.46 26.15 15.23 23.02 15.52 19.00 C 14.66 13.48 21.43 9.11 26.25 11.56 C 30.31 12.80 33.32 9.29 37.03 8.61 C 40.44 7.64 42.56 13.53 45.82 10.83 C 49.07 8.18 52.98 10.22 56.23 11.61 C 61.07 12.91 64.10 8.36 68.29 7.04 Z" />
</g>
</svg>
