<svg xmlns="http://www.w3.org/2000/svg" version="1.0" preserveAspectRatio="xMidYMid meet" viewBox="69.18 19.13 310.32 411.84">
<metadata>
Created by potrace 1.10, written by Peter Selinger 2001-2011
</metadata>
<g transform="translate(0.000000,512.000000) scale(0.100000,-0.100000)" fill="#ff007f" stroke="none">
<path d="M3474 4908 c-12 -13 -35 -44 -52 -69 -17 -26 -46 -56 -65 -66 -59 -35 -180 -203 -216 -299 -24 -62 -81 -164 -93 -164 -4 0 2 25 13 57 23 66 22 63 7 63 -7 0 -27 -15 -46 -32 l-34 -33 5 40 c3 22 8 60 12 85 5 32 2 51 -8 64 -14 19 -16 17 -47 -37 -22 -39 -42 -62 -64 -71 -26 -11 -49 -45 -141 -209 -60 -107 -112 -193 -114 -192 -2 2 27 95 64 207 56 168 67 210 61 241 -13 70 -13 71 -131 -243 -40 -107 -89 -231 -108 -275 -54 -125 -326 -665 -335 -665 -12 0 -181 192 -269 306 -106 137 -582 682 -717 822 -109 112 -145 134 -160 96 -10 -27 -8 -30 90 -159 53 -70 94 -129 91 -131 -28 -28 -259 195 -301 290 -19 42 -30 56 -45 56 -33 0 -27 -56 15 -134 35 -67 39 -101 9 -90 -22 9 -19 -2 15 -58 20 -31 30 -62 30 -86 0 -32 16 -61 90 -172 50 -73 89 -135 86 -137 -3 -3 -24 5 -48 18 -41 23 -78 65 -275 307 -46 56 -88 102 -93 102 -22 0 3 -76 45 -140 23 -36 94 -132 157 -213 81 -105 118 -161 126 -194 7 -25 32 -75 55 -112 24 -36 47 -73 52 -81 4 -8 -50 41 -121 110 -110 107 -204 183 -204 164 0 -19 55 -104 119 -184 120 -149 193 -233 515 -583 365 -399 386 -423 386 -451 0 -11 -51 -116 -114 -231 -285 -526 -668 -1253 -673 -1279 -6 -26 -4 -28 18 -21 43 13 87 45 134 97 25 27 45 48 45 45 0 -2 -7 -24 -15 -47 -8 -23 -15 -60 -15 -81 0 -55 22 -51 84 16 33 35 66 60 94 70 43 14 43 14 36 -8 -3 -12 -42 -90 -85 -173 -44 -83 -79 -163 -79 -177 0 -52 86 -78 114 -35 27 42 133 302 164 400 17 53 44 116 60 140 43 61 132 146 132 126 0 -42 -63 -203 -104 -265 -25 -37 -48 -81 -52 -97 -6 -26 -5 -28 17 -21 72 21 193 119 249 200 15 22 89 155 165 295 130 241 283 500 295 500 3 0 64 -70 134 -156 71 -85 139 -162 152 -171 28 -18 68 -9 60 14 -3 8 -9 27 -12 41 l-6 27 24 -25 c14 -14 85 -90 158 -170 161 -175 184 -193 226 -185 30 5 37 -1 132 -108 122 -138 186 -197 210 -197 20 0 62 39 62 57 0 19 -157 250 -271 401 -60 78 -109 144 -109 147 0 3 23 -7 52 -23 63 -33 164 -132 422 -412 178 -193 249 -260 261 -249 2 3 -32 61 -76 129 -44 69 -87 139 -96 155 -18 34 -25 38 80 -48 32 -26 60 -47 63 -47 3 0 -15 28 -40 62 -25 35 -89 128 -143 208 -97 145 -220 298 -392 485 -51 55 -134 152 -185 215 -123 152 -356 485 -356 508 0 19 191 434 295 642 129 258 387 727 542 987 136 228 139 243 55 257 -47 9 -53 12 -47 30 27 90 36 135 33 184 -3 65 -21 77 -54 40z m-2019 -919 c11 -17 -1 -21 -15 -4 -8 9 -8 15 -2 15 6 0 14 -5 17 -11z m1298 -39 c-10 -17 -19 -26 -21 -21 -5 14 17 51 29 51 6 0 2 -14 -8 -30z m-1022 -263 c167 -176 289 -311 289 -320 0 -15 -64 36 -154 122 -76 74 -315 347 -341 391 -18 29 92 -73 206 -193z m821 -115 c-81 -160 -148 -285 -150 -278 -6 26 40 142 107 271 64 124 179 310 187 303 2 -2 -63 -135 -144 -296z m262 -188 c-9 -13 -19 -23 -21 -21 -7 8 20 56 28 51 5 -3 1 -16 -7 -30z m-1434 -49 c7 -9 10 -18 7 -22 -8 -7 -37 15 -37 28 0 14 16 11 30 -6z m1390 -30 c-13 -33 -81 -137 -87 -132 -6 7 17 56 55 116 35 55 50 63 32 16z m-1290 -70 c16 -19 3 -40 -16 -24 -15 13 -19 39 -5 39 5 0 14 -7 21 -15z m94 -120 c11 -8 16 -18 12 -22 -3 -4 -16 3 -28 15 -25 25 -13 29 16 7z m1047 -62 c-8 -15 -10 -15 -11 -2 0 17 10 32 18 25 2 -3 -1 -13 -7 -23z m-909 -20 c9 -10 21 -32 27 -48 l11 -30 -25 30 c-15 17 -35 43 -47 59 -19 26 -20 28 -2 18 11 -6 27 -18 36 -29z m1213 -952 c-8 -8 -35 22 -35 38 0 12 5 10 20 -9 10 -14 17 -27 15 -29z m-1295 -290 c0 -14 -34 -71 -42 -71 -3 0 1 18 9 40 15 36 33 54 33 31z m-172 -333 c-72 -140 -98 -164 -60 -55 24 66 109 197 129 197 2 0 -29 -64 -69 -142z"/>
</g>
</svg>