<?xml version="1.0" encoding="UTF-8" ?>
<!DOCTYPE svg PUBLIC "-//W3C//DTD SVG 1.1//EN" "http://www.w3.org/Graphics/SVG/1.1/DTD/svg11.dtd">
<svg width="150pt" height="150pt" viewBox="0 0 150 150" version="1.1" xmlns="http://www.w3.org/2000/svg">
<g id="#ff007fff">
<path fill="#ff007f" opacity="1.00" d=" M 65.28 24.10 C 91.89 17.82 110.10 44.43 113.46 67.53 C 128.09 65.77 143.07 79.98 139.67 95.00 C 142.93 109.41 129.05 122.55 115.00 120.43 C 90.06 118.88 64.89 120.30 39.99 118.56 C 20.73 121.21 5.93 100.72 7.51 82.97 C 8.07 66.55 25.18 56.05 40.52 55.56 C 40.27 40.65 52.33 29.26 65.28 24.10 M 67.47 29.80 C 58.85 32.80 49.17 38.22 47.42 48.01 C 45.81 53.89 48.07 68.40 38.79 62.65 C 18.14 59.05 14.17 92.41 30.41 100.51 C 47.27 103.90 64.63 105.01 81.98 104.25 C 96.45 97.91 113.04 106.48 127.87 100.70 C 135.58 95.57 135.24 83.31 128.44 77.49 C 122.85 71.25 113.82 74.38 106.59 74.44 C 109.87 52.32 92.24 24.38 67.47 29.80 M 14.50 76.73 C 11.11 78.65 12.84 83.12 12.59 86.26 C 13.91 83.90 16.47 75.88 14.50 76.73 M 15.36 90.51 C 11.16 97.18 21.23 95.02 15.36 90.51 M 20.26 99.33 C 14.88 106.51 28.11 106.20 20.26 99.33 M 133.85 102.64 C 132.07 105.12 130.52 107.86 130.27 110.97 C 132.08 109.02 135.58 102.43 133.85 102.64 M 28.47 106.67 C 20.71 112.87 38.69 108.95 28.47 106.67 M 37.47 108.66 C 34.17 116.66 47.97 107.21 37.47 108.66 M 48.45 108.61 C 40.98 119.18 62.44 108.16 48.45 108.61 M 92.45 108.77 C 89.76 109.32 85.96 114.66 91.06 113.46 C 95.42 116.06 97.82 105.57 92.45 108.77 M 123.79 108.42 C 117.25 117.64 128.57 110.33 123.79 108.42 M 60.64 109.78 C 52.59 118.89 72.32 109.90 60.64 109.78 M 71.59 109.88 C 64.72 115.77 78.93 112.03 71.59 109.88 M 82.73 109.94 C 72.84 116.05 89.57 110.80 82.73 109.94 M 101.67 109.71 C 94.28 119.97 113.42 109.91 101.67 109.71 M 112.43 109.60 C 104.77 119.58 125.02 109.71 112.43 109.60 Z" />
<path fill="#ff007f" opacity="1.00" d=" M 66.92 43.71 C 73.90 43.38 80.91 43.39 87.89 43.81 C 95.89 52.33 91.90 65.82 90.41 76.27 C 95.58 77.28 105.94 80.86 98.39 86.37 C 88.08 89.32 80.40 99.36 70.02 100.53 C 61.84 92.23 51.94 85.11 45.18 75.84 C 49.75 71.52 56.91 74.06 62.63 73.58 C 62.41 63.49 62.38 52.94 66.92 43.71 Z" />
</g>
</svg>
