<?xml version="1.0" encoding="UTF-8" ?>
<!DOCTYPE svg PUBLIC "-//W3C//DTD SVG 1.1//EN" "http://www.w3.org/Graphics/SVG/1.1/DTD/svg11.dtd">
<svg width="150pt" height="150pt" viewBox="0 0 150 150" version="1.1" xmlns="http://www.w3.org/2000/svg">
<g id="#ff007fff">
<path fill="#ff007f" opacity="1.00" d=" M 47.28 14.93 C 77.83 10.53 110.61 43.75 96.68 74.21 C 108.24 82.87 121.23 91.66 132.93 101.09 C 142.23 109.55 132.11 127.69 119.99 124.41 C 103.87 117.59 93.88 101.37 79.03 93.32 C 57.88 106.67 26.44 97.24 17.34 73.51 C 5.03 50.73 21.78 18.53 47.28 14.93 M 48.68 18.92 C 33.31 21.63 19.94 35.96 21.42 52.05 C 21.75 66.21 31.22 77.96 42.94 85.01 C 61.71 99.73 96.86 85.26 94.73 59.99 C 96.73 36.25 71.32 15.71 48.68 18.92 M 18.35 62.41 C 15.34 68.47 23.77 63.04 18.35 62.41 M 20.22 66.58 C 17.75 72.12 24.77 69.69 20.22 66.58 M 21.16 72.24 C 22.65 78.75 27.44 71.89 21.16 72.24 M 25.33 76.64 C 22.29 81.71 30.35 77.59 25.33 76.64 M 94.49 79.53 C 91.53 83.48 85.48 86.96 83.67 90.39 C 90.09 101.73 107.04 79.21 94.49 79.53 M 28.38 80.54 C 24.14 84.76 34.89 81.09 28.38 80.54 M 32.38 83.65 C 26.52 88.37 37.78 85.02 32.38 83.65 M 103.15 84.35 C 101.30 89.66 98.04 94.19 93.49 97.50 C 94.33 103.69 103.53 104.13 106.44 109.55 C 111.62 119.08 123.42 107.54 123.62 100.27 C 118.46 93.08 109.85 89.85 103.15 84.35 M 35.49 86.59 C 31.10 91.81 41.90 85.05 35.49 86.59 M 38.38 88.38 C 37.59 94.41 45.58 86.51 38.38 88.38 M 43.45 90.51 C 40.96 93.70 55.05 96.61 56.63 94.61 C 51.72 94.87 47.98 91.30 43.45 90.51 M 127.78 102.55 C 126.03 108.87 121.25 113.33 116.07 116.98 C 124.58 129.36 141.16 106.38 127.78 102.55 Z" />
<path fill="#ff007f" opacity="1.00" d=" M 47.39 24.34 C 71.30 18.99 97.23 44.52 88.54 68.44 C 79.19 90.92 45.37 88.01 34.50 68.43 C 20.45 54.80 28.76 28.81 47.39 24.34 M 45.41 32.57 C 30.30 34.04 27.12 55.54 37.07 64.94 C 44.70 79.87 68.28 85.82 80.18 73.24 C 90.72 52.19 67.72 27.13 45.41 32.57 Z" />
</g>
</svg>
