<svg xmlns="http://www.w3.org/2000/svg" version="1.0" preserveAspectRatio="xMidYMid meet" viewBox="106.88 39 232.75 378.47">  <g transform="translate(0.000000,1024.000000) scale(0.050000,-0.050000)" fill="#ff007f" stroke="none"> <path d="M3660 19681 c-363 -25 -381 -56 -413 -705 -15 -320 -6 -345 153 -426 108 -55 109 -57 78 -190 -38 -165 -82 -200 -545 -427 -671 -330 -719 -400 -773 -1133 -21 -281 -31 -1465 -13 -1495 8 -13 40 -584 41 -725 0 -27 -7 -216 -16 -420 -11 -254 -9 -433 8 -570 12 -110 26 -346 30 -525 9 -443 85 -583 388 -718 640 -284 3072 -290 3728 -9 394 169 475 407 426 1252 -11 178 -9 349 5 470 43 381 46 604 15 900 -45 430 -57 1005 -32 1590 44 1051 49 1043 -870 1440 -393 170 -411 189 -395 407 10 122 13 128 77 155 95 40 101 62 118 418 30 592 31 587 -117 664 -113 58 -1298 88 -1893 47z m1722 -172 c93 -58 -409 -96 -1094 -84 -517 10 -738 32 -699 71 38 38 1733 50 1793 13z m-1787 -183 c36 -6 66 -17 67 -24 8 -61 5 -607 -3 -613 -22 -13 -216 53 -239 81 -29 35 -29 272 1 437 27 147 34 160 76 143 18 -8 62 -18 98 -24z m1931 -38 c-37 -571 -26 -535 -178 -579 -128 -38 -128 -38 -150 75 -66 345 -15 516 162 547 164 29 171 27 166 -43z m-1514 -8 l88 0 0 -171 c0 -94 10 -235 22 -312 27 -175 19 -185 -134 -163 l-118 16 -23 90 c-56 214 -25 579 46 552 17 -7 70 -12 119 -12z m1011 -111 c-3 -65 5 -203 18 -306 29 -222 26 -226 -149 -218 -87 4 -119 13 -122 35 -3 17 -11 93 -19 170 -7 77 -18 176 -22 220 -17 157 9 198 132 212 174 19 170 22 162 -113z m-448 -99 c5 -110 10 -254 12 -320 l3 -120 -143 -6 c-167 -7 -156 -21 -179 236 -37 409 -31 424 155 416 l144 -6 8 -200z m734 -609 c-92 -241 10 -402 341 -541 552 -231 764 -349 850 -475 62 -89 77 -453 78 -1805 0 -507 9 -898 22 -970 28 -160 28 -566 0 -740 -15 -94 -18 -285 -9 -580 18 -572 -5 -653 -231 -808 -406 -277 -2335 -347 -3409 -123 -430 90 -571 225 -571 548 0 85 -8 237 -19 339 -10 101 -24 238 -31 304 -6 66 -1 264 12 440 21 287 19 367 -20 770 -47 506 -59 1523 -22 1992 51 642 101 710 758 1034 476 235 575 331 580 566 1 34 6 65 10 70 28 27 1672 6 1661 -21z"/> <path d="M3739 18115 c-123 -247 -155 -273 -541 -426 -587 -235 -702 -364 -700 -791 0 -162 24 -218 93 -218 45 0 62 34 52 105 -59 385 44 577 361 674 80 25 216 66 302 93 373 115 461 197 524 484 18 85 38 174 44 199 26 111 -56 39 -135 -120z"/> <path d="M5947 17069 c-22 -57 175 -215 216 -174 28 28 -5 86 -84 153 -70 59 -115 66 -132 21z"/> <path d="M5170 16913 c-212 -72 -213 -72 -703 -74 -391 -1 -479 5 -607 38 -482 126 -820 29 -928 -266 -39 -106 -52 -582 -30 -1063 21 -453 20 -524 -11 -730 -43 -276 -43 -426 -2 -688 32 -201 42 -395 33 -623 -7 -173 65 -291 228 -372 172 -86 1488 -149 2000 -95 544 56 558 60 685 155 164 125 240 458 176 768 -40 189 -39 407 1 652 42 256 41 596 -2 1015 -32 303 -33 377 -10 674 24 312 23 338 -10 390 -148 233 -504 328 -820 219z m545 -166 c86 -65 84 -44 91 -787 5 -549 12 -669 41 -770 58 -197 63 -426 15 -698 -51 -287 -52 -402 -8 -626 60 -306 5 -513 -159 -599 -157 -81 -1306 -133 -1835 -83 -758 72 -757 72 -772 442 -5 123 -23 296 -40 384 -37 198 -37 458 0 630 32 148 30 217 -17 850 -90 1180 40 1435 633 1243 230 -74 1462 -65 1646 12 207 87 292 88 405 2z"/> <path d="M4240 16531 c-375 -104 -616 -442 -652 -915 -20 -261 49 -404 254 -527 63 -37 105 -75 101 -91 -53 -203 -5 -255 261 -282 444 -46 629 0 709 176 40 86 73 123 155 176 713 456 12 1696 -828 1463z m316 -132 c298 -69 480 -273 623 -697 87 -258 8 -445 -233 -552 -100 -45 -105 -51 -141 -173 -35 -119 -41 -127 -101 -133 -56 -6 -63 -1 -59 39 8 71 -56 69 -122 -3 -68 -75 -165 -70 -157 7 6 61 -94 72 -130 14 -24 -38 -113 -57 -141 -29 -7 6 3 51 21 100 39 105 23 145 -73 177 -189 64 -285 217 -299 482 -28 539 331 879 812 768z"/> <path d="M4006 15920 c-157 -63 -146 -474 14 -540 92 -38 127 -2 197 198 75 215 76 223 18 276 -90 82 -147 99 -229 66z"/> <path d="M4665 15847 c-277 -136 -203 -387 129 -436 119 -18 151 33 127 202 -34 241 -107 308 -256 234z"/> <path d="M4336 15469 c-20 -19 9 -379 32 -393 12 -8 43 0 68 16 43 28 50 28 72 -3 31 -42 99 -31 109 18 9 48 -214 373 -257 373 -7 0 -18 -5 -24 -11z"/> <path d="M3443 14949 c-48 -61 -56 -165 -21 -266 20 -59 17 -69 -50 -143 -153 -169 -19 -349 233 -313 83 11 375 -88 375 -128 0 -32 -270 -82 -327 -60 -273 104 -420 -168 -205 -377 39 -38 78 -103 92 -153 72 -257 400 -242 400 18 0 128 83 196 373 305 l128 48 225 -117 c226 -119 236 -127 352 -320 126 -209 422 -127 422 117 0 23 18 61 40 85 143 153 -35 429 -243 376 -93 -24 -278 14 -277 57 1 35 313 141 382 130 205 -34 371 182 250 326 -29 34 -52 87 -52 119 -1 132 -141 327 -234 327 -100 0 -209 -89 -289 -235 -19 -36 -71 -79 -130 -107 -111 -54 -198 -114 -325 -223 -99 -84 -116 -84 -249 5 -46 30 -175 102 -287 159 -225 115 -230 119 -268 226 -59 168 -234 248 -315 144z m162 -144 c18 -19 50 -76 71 -126 52 -120 117 -172 388 -310 278 -140 278 -139 193 -180 l-70 -33 -223 112 c-230 115 -286 129 -372 89 -92 -42 -157 68 -76 127 56 40 66 92 34 170 -59 141 -24 238 55 151z m1715 -5 c22 -22 40 -67 40 -101 0 -80 51 -199 100 -234 85 -59 10 -173 -81 -124 -74 39 -152 26 -282 -46 -192 -107 -512 -238 -864 -356 -382 -128 -433 -165 -433 -315 0 -104 -35 -158 -89 -137 -30 11 -38 35 -61 177 -9 60 -25 81 -80 107 -100 48 -120 149 -30 149 21 0 61 -10 88 -23 50 -23 561 120 811 227 135 57 431 224 555 311 35 25 73 45 84 45 51 0 102 89 102 179 0 150 65 216 140 141z m-400 -860 c140 -62 240 -74 327 -41 112 42 140 -82 33 -143 -68 -39 -74 -72 -29 -158 25 -49 27 -67 7 -90 -46 -56 -105 -24 -158 85 -72 146 -99 171 -289 259 -187 86 -196 96 -116 125 78 28 75 29 225 -37z"/> <path d="M2540 16105 c0 -142 20 -185 85 -185 71 0 42 308 -30 316 l-55 7 0 -138z"/> <path d="M6233 14567 c-56 -56 12 -373 82 -383 63 -9 74 35 46 182 -32 164 -83 245 -128 201z"/> <path d="M2710 12980 c-23 -37 11 -98 95 -169 158 -136 191 -55 39 95 -100 99 -114 106 -134 74z"/> <path d="M6050 12739 c-44 -9 -123 -22 -175 -29 -104 -14 -136 -74 -53 -101 100 -31 441 78 408 131 -14 23 -66 23 -180 -1z"/> </g> </svg>