<?xml version="1.0" encoding="UTF-8" ?>
<!DOCTYPE svg PUBLIC "-//W3C//DTD SVG 1.1//EN" "http://www.w3.org/Graphics/SVG/1.1/DTD/svg11.dtd">
<svg width="150pt" height="150pt" viewBox="0 0 150 150" version="1.1" xmlns="http://www.w3.org/2000/svg">
<g id="#ff007fff">
<path fill="#ff007f" opacity="1.00" d=" M 0.00 0.00 L 0.02 0.00 C 0.02 0.01 0.01 0.02 0.00 0.02 L 0.00 0.00 Z" />
<path fill="#ff007f" opacity="1.00" d=" M 75.42 19.46 C 83.22 17.37 91.84 20.15 95.86 27.13 C 96.45 45.29 91.73 63.14 90.41 81.16 C 88.95 86.25 91.30 92.46 87.75 96.83 C 80.23 97.17 72.66 97.15 65.14 96.85 C 59.18 94.23 56.27 87.23 56.00 81.00 C 54.06 60.77 49.31 40.53 49.36 20.34 C 58.02 19.43 66.78 20.71 75.42 19.46 M 53.39 23.31 C 52.18 24.05 51.58 25.62 51.84 26.99 C 54.56 46.76 55.99 66.92 60.75 86.27 C 67.09 86.99 81.11 90.51 80.10 80.00 C 80.72 64.22 83.32 48.63 85.12 32.98 C 84.61 29.72 86.89 23.33 81.96 22.95 C 72.45 23.22 62.86 22.44 53.39 23.31 M 88.07 25.76 C 89.02 27.50 90.27 29.11 92.04 30.09 C 94.53 28.26 90.02 25.75 88.07 25.76 M 88.32 31.43 C 86.68 34.44 89.43 37.61 92.03 38.93 C 94.30 36.25 90.88 30.74 88.32 31.43 M 87.10 38.92 C 87.36 41.30 89.13 45.01 91.67 44.73 C 91.77 42.04 89.67 39.57 87.10 38.92 M 86.31 46.40 C 84.69 49.64 87.63 52.61 90.17 54.22 C 92.44 51.62 89.14 45.96 86.31 46.40 M 85.31 55.36 C 83.10 58.10 87.69 64.28 90.06 61.00 C 89.33 58.88 87.61 54.88 85.31 55.36 M 84.80 63.07 C 84.54 65.61 85.83 67.99 88.12 69.12 C 89.88 66.97 86.74 64.08 84.80 63.07 M 84.38 70.43 C 82.71 73.08 85.89 75.86 88.13 76.91 C 87.75 74.78 86.42 69.56 84.38 70.43 M 83.37 78.38 C 82.26 80.29 85.49 84.77 87.85 83.08 C 86.89 81.47 85.01 77.21 83.37 78.38 M 82.85 85.12 C 82.45 87.60 83.76 90.09 86.18 90.91 C 86.58 88.44 85.31 85.88 82.85 85.12 M 79.16 90.24 C 78.44 92.51 80.76 95.02 83.08 94.80 C 83.32 92.61 81.54 90.01 79.16 90.24 M 64.18 91.15 C 63.27 95.75 68.76 90.26 64.18 91.15 M 69.48 91.24 C 68.74 96.76 74.98 91.03 69.48 91.24 M 74.27 91.44 C 73.09 95.98 78.64 91.53 74.27 91.44 Z" />
<path fill="#ff007f" opacity="1.00" d=" M 67.39 103.44 C 78.88 101.46 94.61 110.38 89.81 123.88 C 85.75 136.83 68.36 133.76 59.86 127.18 C 53.39 119.61 57.25 105.65 67.39 103.44 M 68.41 107.41 C 58.90 108.25 56.75 122.85 65.06 126.95 C 74.02 131.77 84.54 119.43 79.99 111.03 C 77.46 107.37 72.57 105.93 68.41 107.41 Z" />
</g>
</svg>
