<?xml version="1.0" encoding="UTF-8" ?>
<!DOCTYPE svg PUBLIC "-//W3C//DTD SVG 1.1//EN" "http://www.w3.org/Graphics/SVG/1.1/DTD/svg11.dtd">
<svg width="150pt" height="150pt" viewBox="0 0 150 150" version="1.1" xmlns="http://www.w3.org/2000/svg">
<path fill="#f00077" opacity="0.94" d=" M 56.44 30.52 C 75.79 27.02 96.78 41.72 98.27 61.62 C 99.84 69.62 96.21 77.64 97.73 85.59 C 103.42 93.88 113.61 97.44 119.75 105.24 C 123.76 111.16 117.73 117.45 112.32 119.34 C 105.67 121.88 100.34 116.09 95.64 112.39 C 89.81 107.63 85.76 100.12 78.20 98.01 C 68.43 97.21 57.77 101.52 48.76 96.22 C 32.08 87.93 25.32 65.59 33.06 49.02 C 38.03 40.34 45.77 31.31 56.44 30.52 M 61.46 38.50 C 55.91 39.22 49.79 39.76 45.23 43.22 C 38.02 50.46 34.44 61.25 36.56 71.37 C 39.44 85.21 54.72 94.52 68.39 92.42 C 81.50 91.06 92.05 78.14 90.95 65.03 C 91.74 49.57 76.55 36.48 61.46 38.50 M 92.93 90.70 C 91.16 92.48 89.38 94.25 87.61 96.03 C 90.30 98.78 93.05 101.47 95.79 104.17 C 97.30 102.16 98.80 100.14 100.28 98.10 C 97.82 95.64 95.38 93.16 92.93 90.70 M 104.64 101.15 C 103.03 103.40 101.24 105.53 99.89 107.95 C 101.67 110.14 103.89 112.09 106.49 113.22 C 109.42 113.30 112.30 112.80 115.15 112.19 C 112.50 107.77 108.37 104.60 104.64 101.15 Z" />
<path fill="#f00077" opacity="0.94" d=" M 53.01 48.81 C 58.28 41.23 69.05 43.66 75.61 48.37 C 75.15 48.99 74.24 50.24 73.78 50.86 C 66.90 49.75 59.92 49.63 53.01 48.81 Z" />
</svg>
