<svg xmlns="http://www.w3.org/2000/svg" version="1.0" preserveAspectRatio="xMidYMid meet" viewBox="0 0.17 449.77 12.19">
<metadata>
Created by potrace 1.10, written by Peter Selinger 2001-2011
</metadata>
<g transform="translate(0.000000,25.000000) scale(0.100000,-0.100000)" fill="#ff007f" stroke="none">
<path d="M4470 226 c0 -30 2 -29 -39 -15 -28 10 -35 9 -52 -10 -24 -25 -46 -27 -78 -4 -22 15 -25 15 -37 -1 -11 -15 -16 -16 -36 -5 -14 8 -67 14 -134 16 -67 2 -128 9 -154 18 -40 14 -45 14 -53 0 -7 -14 -10 -14 -30 0 -28 19 -86 20 -93 0 -5 -13 -9 -13 -34 0 -42 22 -103 19 -125 -5 -15 -16 -27 -18 -84 -14 -36 3 -105 12 -153 21 -105 19 -138 13 -138 -23 0 -21 -4 -25 -17 -19 -57 22 -172 45 -202 40 -29 -5 -32 -10 -28 -31 4 -21 1 -24 -25 -24 -15 0 -60 11 -98 24 -39 14 -70 21 -70 16 0 -5 -4 -20 -9 -33 l-9 -24 -86 23 c-81 21 -107 19 -90 -7 4 -8 -1 -9 -17 -3 -13 4 -55 15 -94 24 -60 15 -70 15 -73 3 -3 -10 -12 -13 -30 -9 -58 12 -255 36 -292 36 -21 0 -40 -5 -42 -11 -2 -7 -17 -7 -48 0 -53 12 -170 14 -170 3 0 -4 5 -13 12 -20 28 -28 -178 -10 -254 23 -13 5 -18 3 -18 -9 0 -21 -19 -20 -79 3 -53 20 -69 17 -49 -7 11 -13 8 -14 -22 -7 -19 4 -53 16 -74 26 -57 27 -86 23 -54 -9 30 -30 -16 -27 -141 9 -30 8 -46 9 -48 2 -3 -7 -20 -4 -50 6 -35 12 -47 13 -50 4 -3 -10 -28 -11 -95 -6 -84 6 -91 5 -85 -11 4 -10 3 -15 -3 -11 -13 8 -134 25 -224 32 -58 4 -72 2 -82 -12 -11 -14 -22 -16 -59 -10 -42 6 -47 4 -52 -14 -7 -27 -14 -26 -103 4 -88 30 -84 30 -77 5 5 -18 0 -20 -51 -22 -59 -2 -70 -1 -135 9 -24 3 -37 1 -37 -6 0 -6 15 -11 34 -11 25 0 40 -7 54 -25 23 -29 44 -33 40 -7 -2 14 6 18 47 20 28 2 67 -2 88 -8 45 -13 61 -5 32 17 -20 16 -20 16 0 8 99 -37 135 -40 135 -9 0 15 8 16 65 10 36 -4 80 -9 97 -13 43 -9 33 18 -13 31 l-34 10 40 4 c22 2 41 -1 43 -7 2 -6 28 -11 57 -11 30 0 86 -7 126 -15 76 -16 89 -14 70 9 -10 12 0 13 71 9 46 -2 124 -9 173 -15 173 -21 205 -21 205 -4 0 13 5 13 38 2 24 -9 85 -14 165 -14 69 0 130 -3 136 -6 5 -3 55 -9 112 -12 l102 -7 -7 27 c-8 31 -12 30 114 12 57 -9 96 -11 98 -5 5 14 84 10 227 -11 93 -14 131 -16 136 -8 5 8 32 4 91 -12 45 -14 85 -23 88 -22 3 2 4 11 2 21 -3 17 2 17 75 -4 43 -13 81 -21 86 -18 4 2 7 13 7 23 0 30 17 33 76 11 30 -12 73 -21 94 -21 38 0 40 2 40 30 0 26 4 30 28 30 16 0 66 -11 112 -25 106 -32 110 -32 110 5 0 34 14 37 85 20 22 -5 87 -14 144 -20 99 -10 106 -10 132 9 36 27 63 26 106 0 l34 -21 15 21 c20 28 43 27 88 -4 37 -25 38 -25 43 -5 7 25 19 25 59 1 22 -14 35 -16 42 -9 21 21 222 2 237 -23 10 -15 35 -10 35 6 0 12 4 13 19 5 31 -16 73 -12 96 10 19 18 23 18 50 4 27 -14 31 -14 43 3 15 21 12 65 -5 71 -8 2 -13 -6 -13 -22z"/>
</g>
</svg>