<svg xmlns="http://www.w3.org/2000/svg" version="1.0" preserveAspectRatio="xMidYMid meet" viewBox="0.84 0.25 448.84 5.62">  <g transform="translate(0.000000,12.000000) scale(0.100000,-0.100000)" fill="#ff007f" stroke="none"> <path d="M83 110 c-130 -11 -87 -17 104 -16 103 0 217 -3 251 -7 41 -5 62 -5 58 1 -13 21 -264 34 -413 22z"/> <path d="M1605 112 c-100 -1 -163 -7 -170 -14 -7 -8 30 -9 135 -4 80 3 196 6 258 6 66 0 112 4 112 10 0 5 -36 9 -87 7 -49 -1 -160 -3 -248 -5z"/> <path d="M2123 98 c16 -10 389 -10 405 0 7 5 -84 8 -202 8 -118 0 -210 -4 -203 -8z"/> <path d="M3055 94 c-49 -7 -146 -13 -215 -14 -103 -2 -119 -4 -90 -12 65 -19 377 6 405 33 5 6 5 8 0 8 -6 -1 -50 -8 -100 -15z"/> <path d="M4390 99 c-30 -4 -149 -11 -265 -15 -162 -6 -201 -10 -170 -17 78 -17 515 10 540 34 10 10 -23 10 -105 -2z"/> <path d="M3433 91 c-45 -3 -85 -10 -90 -15 -9 -9 312 2 372 14 48 9 -154 10 -282 1z"/> <path d="M815 80 c100 -11 336 -10 270 0 -27 5 -115 8 -195 8 -120 -1 -133 -2 -75 -8z"/> </g> </svg>