<?xml version="1.0" encoding="UTF-8" ?>
<!DOCTYPE svg PUBLIC "-//W3C//DTD SVG 1.1//EN" "http://www.w3.org/Graphics/SVG/1.1/DTD/svg11.dtd">
<svg width="80pt" height="80pt" viewBox="0 0 80 80" version="1.1" xmlns="http://www.w3.org/2000/svg">
<path fill="#f00078" opacity="0.94" d=" M 41.38 16.35 C 49.28 18.62 57.58 18.63 65.66 17.47 C 65.84 22.75 65.07 28.23 66.59 33.39 C 67.69 37.20 70.72 39.93 73.23 42.84 C 68.82 43.86 64.02 44.52 60.25 47.25 C 56.39 51.15 53.93 56.11 50.97 60.67 C 47.29 57.62 43.76 52.64 38.13 54.21 C 32.00 55.41 27.42 60.12 23.06 64.26 C 21.17 58.64 21.50 52.10 17.70 47.29 C 14.13 44.24 9.73 42.43 5.68 40.11 C 9.26 37.73 13.09 35.76 16.81 33.60 C 20.68 32.08 21.04 27.61 22.53 24.25 C 26.88 24.92 31.30 26.25 35.71 25.65 C 39.91 24.68 39.90 19.67 41.38 16.35 M 38.70 28.57 C 35.16 30.98 30.67 29.90 26.79 31.20 C 23.19 33.75 20.04 36.90 16.54 39.58 C 20.29 43.73 23.81 48.17 26.24 53.23 C 30.76 51.82 35.28 50.37 39.96 49.59 C 43.42 50.37 46.83 51.40 50.20 52.53 C 53.34 46.76 58.63 42.86 64.18 39.56 C 61.78 34.45 61.16 28.79 60.34 23.28 C 55.63 23.39 50.87 22.73 46.19 23.35 C 43.56 24.87 41.38 27.09 38.70 28.57 Z" />
</svg>
