<?xml version="1.0" encoding="UTF-8" ?>
<!DOCTYPE svg PUBLIC "-//W3C//DTD SVG 1.1//EN" "http://www.w3.org/Graphics/SVG/1.1/DTD/svg11.dtd">
<svg width="80pt" height="80pt" viewBox="0 0 80 80" version="1.1" xmlns="http://www.w3.org/2000/svg">
<path fill="#f6007b" opacity="0.96" d=" M 28.78 11.69 C 30.67 11.45 34.46 10.98 36.36 10.74 C 45.38 25.61 50.51 43.23 48.61 60.69 C 47.92 64.49 45.05 67.29 42.45 69.93 C 37.88 64.48 40.41 57.34 40.58 51.00 C 40.44 45.03 38.93 39.18 37.52 33.41 C 35.54 25.81 30.67 19.34 28.78 11.69 Z" />
<path fill="#f6007b" opacity="0.96" d=" M 50.93 22.87 C 52.66 22.06 54.40 21.26 56.14 20.49 C 59.71 27.47 62.00 35.12 61.96 43.01 C 61.80 46.44 59.39 49.14 57.65 51.91 C 55.42 49.41 52.48 46.90 53.35 42.97 C 52.64 36.26 51.96 29.54 50.93 22.87 Z" />
<path fill="#f6007b" opacity="0.96" d=" M 16.58 25.37 C 18.23 24.39 19.87 23.41 21.52 22.42 C 30.84 29.59 32.29 41.90 32.33 52.89 C 30.89 53.59 29.45 54.30 28.02 55.02 C 27.07 54.60 26.13 54.19 25.18 53.78 C 24.25 43.80 21.14 34.24 16.58 25.37 Z" />
</svg>
