<?xml version="1.0" encoding="UTF-8" ?>
<!DOCTYPE svg PUBLIC "-//W3C//DTD SVG 1.1//EN" "http://www.w3.org/Graphics/SVG/1.1/DTD/svg11.dtd">
<svg width="80pt" height="80pt" viewBox="0 0 80 80" version="1.1" xmlns="http://www.w3.org/2000/svg">
<path fill="#f4007a" opacity="0.96" d=" M 54.78 10.85 C 56.10 11.04 57.42 11.24 58.74 11.44 C 58.68 14.52 58.66 17.60 58.53 20.67 C 62.41 19.85 66.44 19.61 70.21 21.10 C 66.52 24.54 61.70 26.29 57.25 28.51 C 57.17 31.08 57.10 33.65 57.03 36.22 C 62.28 34.45 67.54 32.68 72.98 31.54 C 73.43 33.04 73.88 34.55 74.32 36.05 C 68.34 38.59 62.23 40.80 56.18 43.14 C 56.03 48.61 55.89 54.09 55.71 59.57 C 54.32 59.77 52.94 59.97 51.55 60.17 C 50.69 55.44 50.20 50.64 49.61 45.87 C 44.43 48.64 39.23 51.35 34.02 54.06 C 37.57 58.25 40.98 62.56 44.29 66.95 C 42.88 67.39 41.47 67.83 40.06 68.26 C 36.38 64.79 32.98 60.94 28.84 58.00 C 22.71 59.17 18.18 64.24 12.51 66.66 C 11.99 65.87 10.95 64.30 10.43 63.51 C 14.45 59.61 18.90 56.20 23.35 52.83 C 22.52 51.48 21.67 50.15 20.83 48.81 C 17.46 51.49 14.17 54.26 10.82 56.96 C 9.48 56.23 8.13 55.50 6.79 54.76 C 9.57 51.41 12.43 48.12 15.32 44.85 C 11.52 40.12 7.39 35.53 4.78 30.00 C 11.44 31.39 16.11 36.68 21.02 40.96 C 30.38 34.64 40.79 30.17 50.49 24.46 C 53.28 20.56 53.26 15.34 54.78 10.85 M 50.89 30.96 C 42.58 35.28 34.48 39.98 26.18 44.30 C 26.13 45.79 26.09 47.28 26.05 48.77 C 35.21 48.37 42.86 42.53 50.89 38.69 C 50.89 36.11 50.89 33.53 50.89 30.96 Z" />
</svg>
