<?xml version="1.0" encoding="UTF-8" ?>
<!DOCTYPE svg PUBLIC "-//W3C//DTD SVG 1.1//EN" "http://www.w3.org/Graphics/SVG/1.1/DTD/svg11.dtd">
<svg width="80pt" height="80pt" viewBox="0 0 80 80" version="1.1" xmlns="http://www.w3.org/2000/svg">
<path fill="#f40079" opacity="0.96" d=" M 25.06 14.08 C 26.62 10.45 29.82 5.07 34.39 7.57 C 40.95 11.47 42.30 20.22 45.43 26.61 C 50.45 25.64 55.46 24.34 60.61 24.44 C 66.03 25.34 71.10 31.56 68.07 37.05 C 65.40 41.10 60.20 42.32 56.11 44.56 C 59.17 51.79 64.35 61.74 57.34 68.31 C 55.37 71.71 50.88 71.76 47.63 70.40 C 41.91 67.34 39.74 60.91 37.38 55.28 C 31.32 58.37 23.43 62.68 17.01 57.98 C 12.00 55.31 9.20 47.91 13.24 43.22 C 16.64 38.48 22.66 38.33 27.87 37.52 C 25.84 29.92 23.64 21.95 25.06 14.08 M 31.99 12.11 C 27.74 22.39 32.88 33.17 37.20 42.48 C 30.73 43.95 20.57 40.61 16.90 48.07 C 17.26 51.88 20.81 55.11 24.70 54.61 C 30.56 53.37 34.79 48.68 38.60 44.42 C 39.30 44.68 40.01 44.93 40.71 45.19 C 43.03 52.81 44.18 63.75 53.38 66.11 C 53.94 62.15 54.79 58.05 53.91 54.08 C 52.14 49.06 48.92 44.76 46.35 40.15 C 50.31 39.06 54.33 38.19 58.29 37.07 C 61.42 36.22 62.27 32.66 63.56 30.11 C 56.02 30.11 48.66 31.96 41.89 35.20 C 39.27 27.22 37.37 18.83 31.99 12.11 Z" />
</svg>
