<?xml version="1.0" encoding="UTF-8" ?>
<!DOCTYPE svg PUBLIC "-//W3C//DTD SVG 1.1//EN" "http://www.w3.org/Graphics/SVG/1.1/DTD/svg11.dtd">
<svg width="80pt" height="80pt" viewBox="0 0 80 80" version="1.1" xmlns="http://www.w3.org/2000/svg">
<path fill="#f4007a" opacity="0.96" d=" M 54.47 11.51 C 56.00 9.74 58.73 10.58 60.79 10.22 C 57.24 22.20 48.21 31.49 41.10 41.48 C 35.26 38.49 29.34 35.61 23.74 32.18 C 20.97 30.60 19.97 27.24 18.90 24.48 C 26.44 25.85 32.93 30.03 39.85 33.04 C 44.82 25.93 49.08 18.32 54.47 11.51 Z" />
<path fill="#f4007a" opacity="0.96" d=" M 42.27 46.46 C 49.90 41.12 57.65 35.92 65.90 31.58 C 66.75 33.30 67.58 35.03 68.39 36.77 C 62.87 40.56 57.25 44.21 51.48 47.62 C 54.69 52.00 58.36 56.03 61.57 60.41 C 63.01 62.34 61.73 64.86 61.56 66.98 C 52.87 62.91 47.17 54.41 42.27 46.46 Z" />
<path fill="#f4007a" opacity="0.96" d=" M 11.97 41.03 C 20.88 40.40 29.47 43.17 37.47 46.83 C 36.72 55.03 35.09 63.12 33.04 71.09 C 31.59 70.45 28.69 69.18 27.23 68.55 C 27.12 62.72 28.84 57.02 29.79 51.30 C 23.75 49.63 17.69 47.95 11.95 45.40 C 11.96 44.31 11.97 42.12 11.97 41.03 Z" />
</svg>
