<?xml version="1.0" encoding="UTF-8" ?>
<!DOCTYPE svg PUBLIC "-//W3C//DTD SVG 1.1//EN" "http://www.w3.org/Graphics/SVG/1.1/DTD/svg11.dtd">
<svg width="80pt" height="80pt" viewBox="0 0 80 80" version="1.1" xmlns="http://www.w3.org/2000/svg">
<path fill="#f30079" opacity="0.95" d=" M 4.21 29.22 C 5.43 26.10 9.15 25.18 11.85 23.98 C 10.24 32.21 8.91 40.60 9.64 49.00 C 20.16 47.61 23.18 35.88 32.09 31.93 C 33.44 35.09 34.79 38.25 36.19 41.39 C 39.59 38.39 42.46 34.79 46.10 32.07 C 50.12 33.46 53.41 36.97 57.90 36.88 C 65.65 34.28 70.07 25.60 78.68 24.65 C 75.12 33.08 68.36 41.14 59.01 42.94 C 54.60 44.83 50.53 41.91 46.43 40.76 C 43.86 42.75 41.58 45.22 38.58 46.55 C 35.19 45.99 32.06 44.74 29.19 42.81 C 24.17 48.12 18.68 55.54 10.59 55.42 C 1.20 50.56 0.52 38.02 4.21 29.22 Z" />
</svg>
