<svg xmlns="http://www.w3.org/2000/svg" version="1.0" preserveAspectRatio="xMidYMid meet" viewBox="1.74 0.47 448.19 20.44">  <g transform="translate(0.000000,42.000000) scale(0.100000,-0.100000)" fill="#ff007f" stroke="none"> <path d="M4205 413 c-11 -2 -45 -10 -76 -18 -46 -12 -75 -13 -150 -5 -85 9 -566 16 -681 9 -37 -2 -49 -7 -59 -26 -14 -27 -9 -27 -119 1 -45 11 -64 11 -100 1 -25 -7 -75 -21 -112 -31 -63 -17 -68 -17 -86 -1 -23 21 -33 22 -25 1 7 -19 -23 -13 -115 23 l-63 25 -49 -21 c-56 -24 -81 -26 -98 -9 -10 10 -15 10 -22 -1 -7 -12 -25 -13 -122 -2 -89 11 -129 11 -190 2 -42 -7 -92 -9 -112 -6 -23 5 -45 2 -67 -9 -28 -14 -38 -14 -106 0 -57 12 -78 12 -89 3 -7 -6 -21 -9 -29 -5 -8 3 -32 -3 -53 -13 -33 -17 -46 -18 -117 -9 -105 13 -101 14 -167 -11 -93 -34 -163 -23 -113 19 33 27 0 28 -74 0 -63 -23 -141 -36 -183 -31 -4 1 0 13 7 29 10 17 11 28 4 31 -5 1 -48 -15 -95 -38 -47 -23 -95 -41 -106 -41 -19 0 -19 0 1 26 41 52 22 57 -71 19 -65 -27 -81 -26 -54 1 28 27 13 26 -55 -5 -64 -29 -139 -49 -139 -37 0 3 5 15 12 26 21 33 3 32 -80 -5 -86 -37 -108 -42 -114 -23 -3 9 -11 9 -34 0 -16 -6 -49 -12 -74 -11 -25 0 -71 -7 -102 -15 -72 -20 -129 -44 -105 -45 10 -1 34 6 54 14 44 18 43 18 43 0 0 -16 36 -13 95 7 17 5 68 12 115 14 47 1 134 8 194 15 89 10 109 10 116 -1 6 -10 12 -11 22 -2 10 8 26 8 58 1 42 -10 93 -9 295 8 106 8 213 8 280 -1 54 -7 65 -5 110 18 58 30 78 32 96 10 14 -17 94 -15 178 4 36 8 49 7 67 -5 32 -21 127 -20 159 1 15 10 49 19 77 22 28 2 53 6 56 9 3 2 18 -5 35 -17 40 -28 95 -28 117 1 15 21 17 21 60 6 25 -9 76 -19 113 -22 58 -5 72 -3 96 14 24 18 30 19 52 7 37 -20 86 -17 110 7 21 21 22 21 58 4 26 -13 66 -19 143 -21 102 -3 109 -2 137 22 l30 25 61 -32 c50 -26 69 -30 103 -26 23 3 46 13 53 21 14 20 37 20 80 0 31 -15 37 -15 70 1 35 16 38 16 94 -4 72 -26 76 -26 106 4 l25 25 43 -25 c57 -33 76 -32 109 10 35 44 66 45 117 5 69 -55 126 -48 151 18 11 29 26 28 82 -8 l47 -29 25 25 c27 27 47 26 92 -2 31 -19 60 -18 79 5 16 18 18 18 81 -7 64 -26 66 -26 79 -7 16 22 18 45 4 45 -5 0 -10 -7 -10 -15 0 -25 -45 -18 -118 19 -68 34 -121 47 -157 39z m-547 -23 c68 0 112 -4 112 -10 0 -5 -7 -10 -15 -10 -8 0 -24 -13 -37 -30 -27 -37 -42 -37 -98 0 l-44 29 -27 -32 -27 -32 -48 18 c-55 19 -106 22 -134 7 -22 -12 -93 15 -87 33 2 7 23 13 48 13 24 1 60 6 79 12 19 6 64 9 100 7 36 -3 116 -5 178 -5z m639 -5 c35 -15 36 -17 20 -32 -15 -15 -21 -16 -50 -4 -53 22 -95 25 -122 7 -22 -15 -55 -13 -55 3 0 9 106 39 143 40 15 1 44 -6 64 -14z m-345 -11 c35 -5 36 -7 26 -30 -6 -13 -21 -27 -34 -30 -24 -6 -72 15 -93 40 -8 9 -20 16 -27 16 -8 0 -14 5 -14 11 0 10 32 9 142 -7z m-1322 -11 c0 -19 -37 -43 -67 -43 -45 0 -42 13 10 32 48 19 57 21 57 11z m523 -15 c46 -14 43 -32 -6 -36 -40 -4 -122 32 -111 49 7 11 50 6 117 -13z m-973 -13 c0 -24 -41 -38 -74 -25 -44 16 -24 28 62 39 6 0 12 -6 12 -14z m190 1 c58 -9 79 -16 67 -21 -26 -11 -136 0 -177 18 l-35 15 30 1 c17 0 68 -6 115 -13z m-515 -9 c61 -16 45 -32 -31 -31 -64 1 -84 12 -59 31 23 16 27 16 90 0z m-1048 -35 c-21 -22 -34 -27 -57 -24 -17 2 -30 7 -30 11 0 8 103 50 109 45 3 -2 -8 -17 -22 -32z m204 20 c-9 -17 -101 -47 -101 -33 0 9 80 50 98 50 9 1 10 -4 3 -17z m239 -7 c0 -9 -9 -15 -24 -15 -30 0 -43 17 -19 23 34 9 43 7 43 -8z m-760 -20 c-7 -8 -24 -15 -39 -15 -25 1 -25 1 9 20 39 20 50 19 30 -5z"/> </g> </svg>