<?xml version="1.0" standalone="no"?>
<!DOCTYPE svg PUBLIC "-//W3C//DTD SVG 20010904//EN"
 "http://www.w3.org/TR/2001/REC-SVG-20010904/DTD/svg10.dtd">
<svg version="1.0" xmlns="http://www.w3.org/2000/svg"
 width="1024.000000pt" height="1024.000000pt" viewBox="0 0 1024.000000 1024.000000"
 preserveAspectRatio="xMidYMid meet">
<metadata>
Created by potrace 1.10, written by Peter Selinger 2001-2011
</metadata>
<g transform="translate(0.000000,1024.000000) scale(0.050000,-0.050000)"
fill="#ff007f" stroke="none">
<path d="M4340 19966 c-185 -29 -360 -147 -360 -242 0 -52 57 -124 98 -124 52
0 122 -84 122 -147 0 -79 -102 -164 -424 -355 -519 -308 -655 -484 -656 -849
0 -99 -2 -103 -139 -225 -233 -209 -323 -470 -255 -738 15 -58 11 -68 -52
-109 -376 -246 -403 -805 -56 -1152 108 -108 117 -124 131 -235 22 -172 63
-260 166 -350 98 -86 261 -528 337 -910 81 -414 121 -559 220 -812 59 -149
138 -379 176 -510 186 -641 413 -1038 658 -1149 319 -145 686 151 772 621 34
186 76 306 173 500 110 221 149 357 149 519 0 171 22 245 154 521 188 393 266
702 266 1056 0 124 26 157 150 197 142 44 202 126 221 301 12 109 24 134 101
217 259 278 244 691 -37 1009 l-98 110 13 170 c27 355 -116 651 -394 815 -40
24 -52 43 -42 65 114 232 -249 756 -554 800 l-70 10 -4 178 c-8 398 -448 868
-766 818z m231 -251 c251 -160 359 -364 358 -675 -1 -284 -26 -335 -233 -466
-218 -139 -224 -209 -13 -136 226 77 397 213 397 315 0 111 351 -95 444 -260
68 -123 44 -349 -44 -403 -12 -7 -51 -73 -88 -147 -126 -250 -209 -293 -731
-381 -344 -58 -421 -83 -421 -133 0 -41 51 -38 532 31 584 84 611 97 748 356
90 171 124 179 254 57 170 -159 228 -279 238 -496 14 -282 -60 -387 -308 -438
-167 -35 -253 -86 -345 -208 -125 -166 -138 -171 -433 -171 -404 -1 -736 -64
-736 -140 0 -36 154 -36 398 2 102 15 251 19 420 11 300 -15 349 1 439 141 91
143 157 187 356 240 103 27 208 63 234 79 107 69 287 -182 289 -401 3 -270
-66 -361 -301 -394 -182 -25 -195 -30 -351 -123 -150 -89 -287 -96 -522 -25
-146 44 -214 37 -375 -40 -213 -102 -252 -105 -512 -39 l-224 57 -137 -44
c-198 -64 -310 -58 -529 28 -102 40 -247 85 -323 101 -330 69 -473 234 -478
553 -4 212 25 277 170 373 142 95 161 97 249 30 91 -69 144 -85 377 -108 113
-12 261 -42 340 -70 352 -126 1130 32 1130 228 0 112 -60 125 -195 43 -122
-74 -259 -120 -407 -135 -107 -12 -190 -2 -458 55 -49 10 -194 27 -322 36
-321 24 -441 97 -571 348 -84 163 17 470 193 586 l73 49 81 -77 c227 -217 910
-277 1117 -98 106 91 22 147 -174 115 -763 -124 -1103 181 -740 663 83 110
135 153 371 309 401 264 572 426 572 543 0 80 -56 184 -119 219 -64 37 -78 74
-36 93 63 28 268 -3 346 -53z m1371 -3908 c-70 -259 -737 -536 -1102 -459
-190 41 -344 40 -581 0 -255 -44 -440 -30 -669 52 -99 36 -269 90 -377 120
-227 64 -290 112 -313 240 l-16 85 135 -11 c85 -7 210 -39 333 -86 256 -97
396 -109 579 -48 118 40 155 43 287 28 224 -24 397 -15 543 31 162 51 230 51
378 1 175 -59 357 -45 522 39 268 137 316 138 281 8z m-302 -456 c0 -5 -18
-83 -40 -175 -24 -99 -40 -236 -40 -339 0 -255 -44 -262 -278 -41 -15 15 -49
41 -75 58 -68 44 -59 76 54 203 56 62 116 137 133 166 46 76 246 180 246 128z
m-2165 -61 c118 -35 133 -71 52 -124 -29 -19 -91 -88 -139 -153 -99 -135 -77
-151 -175 123 -83 229 -49 249 262 154z m1768 -123 c-11 -20 -59 -75 -106
-121 l-87 -84 -95 71 c-126 94 -125 95 100 140 219 44 216 44 188 -6z m-1041
-38 c206 -24 208 -73 10 -178 l-114 -61 -109 116 c-126 133 -124 163 9 147 50
-6 142 -17 204 -24z m-378 -154 c146 -167 144 -162 86 -246 -27 -41 -59 -112
-71 -157 -50 -199 -77 -213 -180 -88 -38 46 -98 119 -134 162 -106 126 -84
284 56 402 90 76 122 66 243 -73z m858 93 c14 -18 79 -68 142 -111 141 -95
141 -77 -4 -229 -66 -68 -138 -166 -159 -216 -22 -51 -44 -92 -50 -92 -22 0
-371 302 -390 338 -31 58 -34 54 150 173 94 61 176 124 182 140 15 39 95 37
129 -3z m621 -473 c228 -185 228 -188 3 -418 -201 -206 -194 -204 -355 -89
-193 138 -189 124 -112 352 127 379 170 393 464 155z m-1076 -32 c68 -64 170
-161 228 -215 128 -119 122 -142 -75 -302 -170 -137 -187 -136 -348 34 -149
159 -150 163 -83 369 91 277 101 282 278 114z m-659 -147 c109 -134 107 -127
33 -165 -85 -45 -107 -26 -144 124 -49 206 -29 213 111 41z m351 -401 l156
-165 -59 -67 c-32 -37 -82 -116 -111 -175 -65 -131 -80 -133 -175 -16 -171
208 -233 482 -125 548 111 68 143 55 314 -125z m966 -40 c115 -74 115 -76 13
-192 -45 -51 -105 -138 -132 -193 -28 -55 -54 -103 -57 -107 -8 -9 -325 256
-379 316 l-40 45 60 49 c56 47 144 109 267 191 49 33 54 33 112 -6 34 -23 104
-69 156 -103z m377 -77 l-39 -88 -2 74 c-1 51 10 80 34 94 50 27 51 18 7 -80z
m-86 -142 c37 -37 28 -257 -16 -401 -55 -180 -75 -192 -181 -111 -135 104
-137 114 -58 279 109 229 188 300 255 233z m-843 -143 c75 -69 168 -154 206
-188 88 -77 74 -110 -112 -260 -152 -122 -139 -124 -338 62 l-139 130 88 166
c139 263 115 256 295 90z m-336 -476 c84 -78 153 -150 153 -158 0 -17 -172
-158 -193 -159 -32 0 -159 386 -142 435 13 39 19 35 182 -118z m830 60 c180
-124 180 -138 -5 -312 -137 -128 -161 -129 -308 -14 -140 110 -140 109 47 253
169 130 179 132 266 73z m-394 -444 c152 -151 152 -150 31 -271 -202 -202
-211 -201 -341 17 -104 175 -104 176 16 288 128 119 143 118 294 -34z m467
-100 l-24 -80 -30 62 c-28 58 -27 66 17 125 58 80 77 25 37 -107z m-64 -199
c9 -43 -151 -213 -231 -247 -58 -24 -112 -23 -201 4 -26 9 192 226 293 293 58
39 127 13 139 -50z"/>
<path d="M4577 19265 c-129 -323 -236 -452 -487 -585 -281 -148 -410 -260
-410 -354 0 -67 50 -57 110 22 67 88 173 156 310 200 341 109 560 389 560 717
0 73 -54 73 -83 0z"/>
<path d="M5080 18330 c-138 -91 -194 -170 -122 -170 38 0 262 162 262 190 0
43 -58 34 -140 -20z"/>
<path d="M5666 17457 c-84 -106 -165 -177 -202 -177 -43 0 -92 -46 -70 -67 54
-54 247 26 303 126 68 120 43 212 -31 118z"/>
<path d="M3381 17411 c-53 -63 100 -155 190 -114 71 32 61 53 -46 95 -52 21
-100 41 -107 44 -7 3 -23 -8 -37 -25z"/>
<path d="M2988 16512 c-35 -90 102 -212 291 -259 205 -51 215 19 18 119 -53
26 -126 75 -164 108 -74 65 -128 77 -145 32z"/>
<path d="M5749 16443 c-118 -73 -214 -223 -142 -223 47 0 292 188 287 220 -7
44 -76 46 -145 3z"/>
</g>
</svg>
