 <svg  version="1.0" xmlns="http://www.w3.org/2000/svg"  width="1024.000000pt" height="1024.000000pt" viewBox="0 0 1024.000000 1024.000000"  preserveAspectRatio="xMidYMid meet">  <g transform="translate(0.000000,1024.000000) scale(0.050000,-0.050000)" fill="#ff007f" stroke="none"> <path d="M3800 19842 c-530 -88 -834 -181 -1260 -386 -297 -143 -374 -193 -692 -450 -612 -493 -960 -1220 -730 -1526 93 -124 91 -138 -33 -188 -327 -133 -437 -296 -421 -627 11 -237 44 -316 190 -458 l106 -102 -75 -68 c-41 -37 -98 -85 -126 -107 -303 -238 -105 -617 252 -481 122 47 122 47 13 -169 l-94 -188 1 -233 c1 -213 6 -239 55 -328 l54 -96 -60 -68 c-154 -176 -160 -431 -20 -947 102 -380 533 -733 1077 -883 84 -23 171 -50 193 -58 43 -18 344 -83 540 -117 126 -21 536 -70 790 -94 83 -8 177 -17 210 -21 415 -46 1566 -45 1927 3 127 16 273 30 324 30 51 0 137 13 191 30 54 16 121 30 148 30 195 1 886 219 1097 345 438 264 640 618 646 1137 4 258 -27 361 -140 467 -75 69 -76 77 -21 154 133 186 149 596 28 697 -42 35 -40 108 2 92 385 -148 541 264 194 513 -107 77 -107 86 5 203 158 165 178 325 59 481 -84 110 -84 111 -17 212 109 165 78 360 -78 484 -86 69 -266 155 -324 155 -56 0 -56 54 0 150 191 325 -272 1296 -797 1671 -53 38 -122 89 -154 114 -31 25 -141 82 -243 126 -103 45 -210 94 -239 109 -278 152 -1000 350 -1428 392 -394 40 -914 40 -1150 0z m1000 -191 c221 -20 638 -94 800 -142 50 -14 158 -45 240 -69 216 -62 809 -333 950 -434 66 -48 149 -105 185 -129 191 -122 581 -729 651 -1012 70 -284 33 -412 -140 -478 -51 -19 -170 -75 -265 -123 -219 -113 -350 -142 -597 -130 -173 8 -210 3 -344 -45 -293 -104 -379 -107 -789 -27 -148 29 -417 19 -631 -24 -213 -42 -494 -50 -600 -16 -210 68 -573 75 -950 20 -229 -34 -321 -27 -517 40 -153 52 -223 64 -433 73 -170 7 -284 22 -360 48 -60 21 -190 66 -289 99 -377 128 -483 238 -453 472 72 574 750 1269 1542 1583 94 37 211 83 260 102 50 20 162 51 250 70 88 19 205 47 260 62 274 76 772 100 1230 60z m-3285 -2464 c64 -17 56 -36 -33 -76 -89 -40 -212 -161 -227 -223 -60 -253 660 -251 905 2 113 117 304 91 195 -27 -165 -177 -116 -261 199 -341 209 -54 284 -53 401 5 350 175 485 246 559 296 99 67 158 71 311 17 63 -22 136 -40 163 -40 116 0 61 -77 -143 -201 -109 -66 -123 -69 -364 -80 -240 -11 -260 -16 -451 -98 -227 -97 -330 -107 -524 -51 -75 22 -166 32 -256 28 -345 -17 -476 -7 -610 46 -71 28 -202 67 -290 87 -491 112 -613 338 -293 543 191 122 313 152 458 113z m6293 -88 c269 -129 332 -205 269 -325 -59 -113 -218 -288 -281 -308 -36 -12 -129 -46 -206 -75 -399 -152 -492 -170 -666 -130 -91 21 -265 4 -499 -49 -139 -31 -178 -25 -464 78 -129 46 -169 51 -300 42 -255 -20 -326 -14 -471 40 -270 99 -462 271 -411 367 46 85 227 45 343 -77 182 -189 276 -177 416 54 138 226 306 195 488 -91 117 -182 291 -224 426 -102 40 37 42 37 88 -3 97 -84 363 -105 434 -34 31 30 42 113 25 174 -7 22 4 28 41 22 289 -44 597 14 630 119 28 87 -115 239 -251 269 -117 26 -105 62 34 100 137 37 123 40 355 -71z m-5829 -102 c87 -30 70 -55 -80 -120 -249 -107 -577 -68 -455 55 94 96 356 128 535 65z m5381 -54 c108 -34 154 -89 101 -122 -84 -52 -561 31 -561 98 0 17 184 54 280 57 39 1 119 -14 180 -33z m-789 -23 c121 -46 304 -276 248 -311 -72 -44 -170 -14 -257 79 -63 67 -76 66 -165 -21 -93 -91 -154 -82 -228 34 -55 88 -53 109 16 125 25 5 104 33 175 61 155 60 144 58 211 33z m-3251 -57 c0 -38 -209 -146 -289 -150 -77 -3 -81 0 -81 57 0 60 1 60 133 70 74 6 140 17 149 25 20 21 88 19 88 -2z m2133 -13 c33 -101 -119 -177 -205 -103 -60 51 -52 93 18 93 24 0 58 10 74 20 36 24 104 18 113 -10z m-2714 -19 c14 -16 30 -67 36 -113 l11 -84 -108 14 c-233 29 -288 74 -183 148 100 70 203 85 244 35z m1862 -159 c27 -232 657 -548 1011 -507 178 21 186 20 385 -44 228 -73 381 -76 653 -13 119 28 166 30 311 10 155 -20 184 -19 310 18 311 93 545 164 656 201 144 48 193 19 193 -116 0 -194 -358 -345 -800 -338 -116 2 -172 -7 -244 -41 -132 -60 -324 -76 -423 -34 -121 50 -193 41 -304 -38 -154 -109 -264 -84 -648 144 -79 47 -107 53 -250 49 -179 -4 -455 82 -531 165 -20 23 -67 77 -103 120 -78 92 -163 132 -280 132 -198 0 -340 125 -287 252 55 132 82 150 219 144 l121 -6 11 -98z m-521 -93 c0 -56 -91 -186 -223 -317 -205 -204 -218 -209 -485 -194 -234 14 -250 11 -462 -88 -138 -64 -248 -70 -470 -24 -143 29 -239 36 -390 29 -219 -11 -293 7 -708 165 -297 114 -379 170 -432 297 -43 104 -35 106 113 26 70 -38 195 -84 277 -102 83 -18 197 -50 255 -72 148 -54 381 -105 418 -90 98 37 361 34 507 -7 210 -59 247 -55 531 60 l253 102 174 -14 c226 -18 299 4 472 138 145 113 170 127 170 91z m415 -430 c59 -27 70 -26 116 4 51 33 52 32 146 -70 67 -72 131 -117 214 -151 66 -26 164 -67 219 -91 79 -35 124 -43 215 -35 156 14 160 -11 24 -133 -188 -168 -263 -188 -433 -115 -229 98 -781 118 -876 32 -19 -17 -58 -80 -88 -141 -109 -222 -358 -244 -812 -71 -122 46 -260 54 -326 19 -24 -13 -129 -25 -235 -26 -176 -3 -204 -9 -347 -77 -221 -105 -412 -69 -412 77 0 256 -503 438 -807 291 -204 -99 -313 -99 -313 -1 0 77 307 359 390 359 41 0 491 -153 567 -192 29 -15 68 -28 87 -28 123 0 239 -48 346 -141 62 -55 123 -99 136 -100 13 0 77 -6 142 -12 148 -15 147 22 -4 83 -283 114 -273 210 16 149 242 -51 301 -49 428 11 l106 50 278 -142 c408 -208 478 -207 648 12 131 169 153 177 327 118 197 -67 272 -34 113 50 -44 23 -116 61 -160 84 -118 62 -199 41 -294 -78 -190 -236 -262 -246 -561 -76 -143 81 -176 127 -83 117 382 -42 378 -44 652 244 l215 226 151 -108 c82 -59 179 -122 215 -138z m3495 -460 c280 -223 270 -400 -15 -292 -180 68 -436 43 -657 -64 -197 -95 -318 -133 -318 -99 0 10 29 33 65 50 138 66 293 202 365 318 44 72 90 122 116 127 212 46 351 33 444 -40z m-658 22 c37 -94 -186 -241 -455 -300 -274 -61 -520 -240 -1017 -739 -368 -371 -353 -366 -564 -191 -370 307 -465 351 -1276 598 l-50 15 76 68 c42 37 102 109 133 160 124 200 272 217 591 65 138 -66 181 -77 312 -80 83 -2 225 -23 316 -48 237 -64 277 21 47 99 l-103 35 133 145 c186 202 171 199 400 88 254 -123 355 -128 495 -28 92 66 97 67 194 45 208 -48 495 -30 596 37 99 66 155 76 172 31z m-5704 -227 c35 -20 69 -64 84 -110 108 -311 321 -398 628 -254 l170 80 316 0 c227 0 334 -8 383 -28 37 -16 151 -39 252 -51 115 -14 224 -41 289 -72 57 -27 114 -49 126 -49 48 0 244 -84 234 -100 -6 -10 -53 -24 -105 -31 -135 -18 -247 -78 -305 -162 -272 -392 -453 -411 -877 -93 -102 78 -264 185 -360 238 l-173 98 -320 0 c-176 0 -353 -7 -393 -16 -127 -27 -139 4 -129 323 5 150 9 276 10 280 4 14 113 -20 170 -53z m-314 -349 c-6 -350 51 -410 337 -358 417 77 715 -21 1179 -389 204 -162 354 -182 645 -89 195 62 255 102 351 233 111 151 178 194 395 248 l172 43 168 -78 c175 -80 316 -172 489 -317 389 -326 462 -316 887 124 147 151 323 320 390 374 l123 99 241 -13 c264 -13 362 6 517 103 91 57 316 145 372 145 173 0 350 -421 266 -631 -84 -210 -288 -404 -473 -450 -217 -53 -466 -124 -529 -151 -160 -68 -344 -128 -554 -180 l-220 -55 -1440 1 c-1438 0 -1730 11 -2010 74 -249 55 -491 116 -653 164 -89 26 -173 48 -186 48 -37 0 -262 116 -375 194 -309 212 -397 701 -187 1041 79 128 99 90 95 -180z m-81 -961 c190 -155 477 -290 736 -346 78 -16 195 -43 261 -59 106 -25 461 -92 790 -148 61 -11 164 -29 230 -40 95 -17 1505 -49 2030 -47 387 2 799 62 1130 166 99 31 239 72 310 90 714 180 799 209 972 333 99 72 133 67 186 -26 127 -223 -498 -569 -1168 -646 -55 -7 -154 -21 -220 -33 -66 -11 -174 -28 -240 -37 -66 -9 -174 -26 -240 -38 -66 -12 -196 -32 -290 -44 -494 -62 -671 -77 -886 -78 -233 -1 -237 -2 -230 -46 10 -73 384 -101 736 -54 189 25 780 84 900 89 162 7 368 31 460 52 213 50 536 146 606 182 42 21 154 65 250 99 96 33 203 83 238 109 114 86 133 41 76 -180 -74 -282 -440 -644 -738 -730 -34 -9 -170 -49 -302 -87 -340 -98 -732 -177 -1081 -218 -412 -48 -1768 -29 -2359 33 -408 43 -887 129 -1110 201 -49 16 -184 57 -300 91 -488 144 -806 453 -891 866 -37 176 -32 193 43 140 82 -58 291 -188 301 -188 5 0 61 -26 124 -57 209 -103 647 -225 913 -253 144 -16 165 -18 420 -47 585 -66 938 -68 926 -6 -7 33 -69 46 -526 104 -152 20 -372 55 -640 102 -66 12 -169 29 -230 38 -417 64 -506 82 -593 116 -511 204 -747 369 -747 524 0 122 59 150 153 73z"/> <path d="M4313 19363 c-48 -53 -41 -92 30 -173 149 -171 378 -176 377 -8 -2 145 -313 285 -407 181z m236 -125 c33 -31 -7 -45 -59 -22 -63 29 -67 72 -5 53 25 -7 53 -21 64 -31z"/> <path d="M3630 19327 c-344 -176 -325 -433 21 -270 191 91 274 216 192 290 -49 45 -95 40 -213 -20z m90 -106 c0 -18 -101 -81 -129 -81 -29 0 -5 34 44 65 63 39 85 43 85 16z"/> <path d="M5155 19339 c-100 -60 20 -263 200 -337 139 -57 240 41 177 172 -49 103 -298 212 -377 165z m200 -159 c95 -58 81 -111 -16 -60 -40 22 -91 100 -65 100 9 0 45 -18 81 -40z"/> <path d="M2743 18983 c-171 -70 -294 -207 -269 -301 30 -117 232 -73 377 81 186 198 128 315 -108 220z m37 -121 c0 -29 -120 -122 -157 -121 -23 0 -11 20 42 70 73 68 115 87 115 51z"/> <path d="M5991 18909 c-50 -51 -38 -79 81 -192 205 -197 375 -215 375 -41 0 142 -362 326 -456 233z m278 -179 c45 -35 24 -68 -24 -38 -36 23 -58 68 -32 67 10 0 34 -13 56 -29z"/> <path d="M4005 18835 c-89 -114 -185 -417 -146 -463 92 -111 361 105 361 289 0 134 -151 256 -215 174z m86 -231 c-16 -72 -111 -172 -111 -116 0 40 32 107 76 157 40 46 51 32 35 -41z"/> <path d="M4884 18825 c-45 -15 -64 -96 -40 -168 49 -148 61 -175 98 -215 52 -55 197 -59 245 -5 114 126 -135 444 -303 388z m161 -200 c38 -44 64 -125 39 -125 -26 0 -77 63 -93 115 -16 54 11 59 54 10z"/> <path d="M3191 18514 c-178 -100 -256 -352 -121 -386 64 -16 239 81 313 174 151 189 20 333 -192 212z m109 -135 c0 -29 -100 -119 -133 -119 -40 0 -33 24 24 85 51 55 109 73 109 34z"/> <path d="M5533 18465 c-15 -30 -25 -64 -22 -75 3 -11 11 -46 18 -77 39 -176 332 -282 395 -143 73 161 -312 452 -391 295z m222 -151 c71 -64 62 -124 -13 -85 -57 29 -82 67 -82 124 0 33 27 22 95 -39z"/> <path d="M1810 18315 c-158 -184 -301 -492 -252 -541 30 -30 51 -5 101 122 42 107 125 245 238 396 102 135 26 155 -87 23z"/> <path d="M4396 18175 c-104 -146 -48 -475 82 -475 140 0 204 132 160 330 -46 209 -151 272 -242 145z m135 -183 c16 -64 4 -137 -24 -146 -29 -10 -51 80 -35 144 16 63 44 64 59 2z"/> <path d="M1865 17995 c-98 -126 -166 -375 -102 -375 10 0 26 20 35 45 10 25 42 104 72 175 30 72 59 141 64 155 6 14 -3 25 -19 25 -17 0 -39 -11 -50 -25z"/> <path d="M2001 17783 c-31 -58 -27 -216 6 -229 55 -21 75 18 69 136 -6 123 -38 161 -75 93z"/> <path d="M2837 14933 c40 -48 276 -157 325 -150 95 14 49 63 -110 120 -177 64 -251 74 -215 30z"/> <path d="M7191 14776 c-43 -62 -40 -116 8 -116 44 0 101 71 101 124 0 51 -71 45 -109 -8z"/> <path d="M7428 14550 c-88 -89 -4 -175 88 -89 49 46 55 80 20 115 -34 34 -52 30 -108 -26z"/> <path d="M1440 14522 c0 -37 104 -142 142 -142 43 0 15 95 -41 136 -73 54 -101 56 -101 6z"/> <path d="M6337 14535 c-135 -109 -92 -285 53 -219 114 52 136 177 39 221 -62 28 -55 28 -92 -2z"/> <path d="M1928 14471 c-17 -43 4 -65 83 -91 138 -46 168 35 34 91 -87 36 -103 36 -117 0z"/> <path d="M6773 14403 c-46 -50 -45 -126 2 -109 42 14 104 86 105 121 0 38 -69 30 -107 -12z"/> <path d="M4704 14316 c-64 -64 6 -133 96 -96 65 27 73 44 35 75 -45 36 -106 46 -131 21z"/> <path d="M3982 14213 c-56 -68 76 -146 193 -115 84 23 81 75 -6 111 -91 38 -157 39 -187 4z"/> <path d="M2448 14117 c-32 -53 153 -144 198 -98 19 18 11 35 -32 72 -60 52 -142 65 -166 26z"/> <path d="M3503 14014 c-21 -25 -17 -36 20 -62 53 -37 148 -42 168 -10 36 58 -143 126 -188 72z"/> <path d="M5184 13999 c-63 -25 -51 -91 15 -84 58 7 101 40 101 77 0 32 -48 34 -116 7z"/> </g> </svg> 