<?xml version="1.0" standalone="no"?>
<!DOCTYPE svg PUBLIC "-//W3C//DTD SVG 20010904//EN"
 "http://www.w3.org/TR/2001/REC-SVG-20010904/DTD/svg10.dtd">
<svg version="1.0" xmlns="http://www.w3.org/2000/svg"
 width="1024.000000pt" height="1024.000000pt" viewBox="0 0 1024.000000 1024.000000"
 preserveAspectRatio="xMidYMid meet">
<metadata>
Created by potrace 1.10, written by Peter Selinger 2001-2011
</metadata>
<g transform="translate(0.000000,1024.000000) scale(0.050000,-0.050000)"
fill="#ff007f" stroke="none">
<path d="M4158 20059 c-510 -59 -593 -436 -144 -658 68 -33 136 -61 151 -61
87 0 98 -42 55 -208 -22 -87 -40 -202 -40 -256 0 -96 0 -97 -55 -82 -242 66
-932 0 -1039 -99 -156 -143 -41 -478 204 -593 95 -45 104 -65 68 -156 -13 -32
-22 -162 -20 -306 3 -264 0 -274 -183 -910 -93 -319 -157 -692 -195 -1121 -41
-478 -57 -568 -131 -776 -109 -301 -31 -478 292 -666 l153 -89 3 -240 c4 -317
53 -404 268 -480 87 -30 86 -27 37 -152 -47 -121 -60 -206 -73 -456 -5 -110
-24 -249 -41 -310 -105 -357 -129 -567 -71 -599 58 -31 92 25 143 239 26 105
59 226 74 270 15 44 41 197 58 340 32 279 51 372 104 505 l34 85 126 0 c300 0
346 36 365 291 18 238 44 282 174 299 497 65 655 226 656 669 0 241 7 305 37
371 211 454 350 1145 352 1750 0 198 36 313 140 460 58 81 107 291 93 403 -13
116 -8 121 207 178 416 110 498 246 298 499 -106 134 -539 320 -745 320 -97 0
-107 25 -100 251 8 311 -3 298 291 322 352 30 457 92 456 271 -3 354 -625 635
-1540 696 -159 11 -299 18 -310 17 -11 -1 -79 -9 -152 -18z m552 -169 c132
-16 281 -39 330 -50 50 -11 189 -43 309 -71 487 -112 753 -337 564 -477 -71
-53 -602 -56 -877 -5 -91 17 -202 37 -246 44 -91 14 -380 93 -560 152 -354
116 -440 346 -153 409 29 6 62 15 73 18 51 17 343 7 560 -20z m-152 -669 c39
-11 95 -24 122 -29 l50 -10 -3 -276 c-3 -264 -6 -284 -74 -463 -87 -232 -62
-214 -263 -184 -194 29 -192 25 -110 197 68 144 100 314 95 504 -4 150 33 280
79 280 17 0 64 -9 104 -19z m659 -113 c38 -8 45 -18 33 -54 -7 -24 -20 -156
-28 -294 -18 -326 -110 -600 -201 -600 -280 0 -307 38 -197 288 53 123 61 164
68 380 11 338 17 343 325 280z m-1122 -486 c43 -1 65 -12 65 -31 0 -27 -90
-248 -108 -266 -18 -18 -395 85 -501 137 -133 65 -179 54 -124 -31 67 -101
189 -144 913 -321 600 -147 1590 -178 1590 -50 l0 49 -231 -6 c-430 -12 -470
10 -375 206 51 105 45 103 216 53 375 -109 557 -200 612 -305 60 -116 4 -151
-342 -216 -132 -24 -289 -57 -350 -72 -387 -95 -1013 -11 -1490 201 -33 14
-114 50 -180 80 -66 29 -190 80 -276 113 -278 108 -378 253 -263 383 70 80
260 97 844 76z m-379 -731 c221 -128 320 -168 523 -212 301 -66 865 -123 1118
-114 l227 8 -8 -106 c-7 -75 -29 -137 -76 -211 -131 -209 -130 -205 -126 -486
6 -361 -27 -653 -88 -790 -35 -78 -55 -172 -69 -320 -27 -295 -48 -380 -158
-632 -128 -291 -143 -362 -115 -542 51 -323 -87 -453 -505 -480 -542 -35
-1413 279 -1468 530 -25 114 80 283 140 225 93 -91 489 -179 556 -124 102 85
24 155 -200 180 -86 10 -211 40 -277 67 l-120 49 7 129 c8 155 -1 145 102 108
109 -38 209 -38 241 0 43 52 6 86 -144 132 -194 61 -196 63 -196 200 0 143
-10 142 256 16 473 -225 735 -267 631 -101 -20 31 -42 39 -216 81 -54 13 -218
82 -365 153 l-266 129 0 95 c1 160 12 162 219 38 216 -130 253 -145 292 -112
53 43 31 75 -106 151 -342 190 -369 220 -328 364 l13 45 96 -61 c318 -201 536
-247 647 -136 72 72 46 96 -102 96 -176 0 -611 202 -611 284 0 33 45 196 53
196 18 0 142 -68 281 -154 153 -94 212 -100 237 -24 16 51 -5 67 -266 201
-113 58 -205 111 -205 118 0 62 66 219 86 204 13 -10 83 -39 154 -64 72 -25
180 -74 240 -109 273 -156 567 -182 514 -45 -14 37 -402 195 -774 315 -100 32
-100 32 -50 208 24 86 33 187 31 355 -1 129 3 235 9 235 7 0 81 -40 166 -89z
m-152 -3909 c61 -21 225 -55 365 -75 l254 -36 -12 -51 c-6 -27 -17 -113 -23
-190 -16 -187 -30 -197 -257 -183 -209 13 -382 85 -427 178 -44 93 -57 395
-16 395 3 0 56 -17 116 -38z"/>
<path d="M4151 19721 c-23 -37 129 -121 218 -121 33 0 5 83 -34 98 -91 34
-171 44 -184 23z"/>
<path d="M5400 19549 c-150 -65 -464 -57 -552 14 -29 23 -88 1 -88 -34 0 -32
19 -38 249 -80 239 -44 584 20 567 106 -9 49 -50 48 -176 -6z"/>
<path d="M5553 19387 c-33 -34 -6 -49 80 -43 125 8 143 56 22 56 -49 0 -94 -6
-102 -13z"/>
<path d="M4491 18775 c-4 -14 -13 -61 -19 -105 -7 -44 -18 -100 -24 -125 -9
-33 -4 -45 19 -45 61 0 134 220 91 273 -29 34 -57 35 -67 2z"/>
<path d="M3780 17472 c0 -30 173 -99 202 -80 35 21 17 48 -54 78 -91 38 -148
38 -148 2z"/>
<path d="M4445 17257 c-25 -25 1 -116 41 -141 72 -46 118 35 65 115 -35 53
-70 62 -106 26z"/>
<path d="M5094 17238 c-83 -44 -111 -89 -78 -122 26 -26 212 115 193 146 -16
25 -27 22 -115 -24z"/>
<path d="M4901 16623 c-111 -32 -39 -99 79 -73 55 12 94 43 77 60 -18 17 -112
25 -156 13z"/>
<path d="M4372 16329 c-14 -38 100 -149 154 -149 50 0 28 74 -39 135 -58 53
-98 57 -115 14z"/>
<path d="M4761 15927 c-49 -110 -49 -107 -12 -107 35 0 91 99 91 159 0 69 -36
46 -79 -52z"/>
<path d="M4248 15490 c-37 -56 -25 -139 22 -157 46 -18 95 91 70 156 -24 64
-50 65 -92 1z"/>
<path d="M4714 14980 c-134 -85 -125 -137 12 -68 75 38 134 87 134 111 0 32
-52 17 -146 -43z"/>
<path d="M4080 14710 c-32 -38 -12 -90 36 -90 57 0 108 46 93 86 -16 42 -95
45 -129 4z"/>
<path d="M3392 14424 c-16 -27 23 -55 128 -90 91 -30 120 -28 120 8 0 39 -227
114 -248 82z"/>
<path d="M4555 14365 c-82 -84 -92 -114 -44 -133 61 -23 198 96 186 161 -12
62 -64 52 -142 -28z"/>
<path d="M3800 13764 c0 -53 56 -88 116 -75 107 24 88 91 -26 91 -49 0 -90 -7
-90 -16z"/>
</g>
</svg>
