 <svg  version="1.0" xmlns="http://www.w3.org/2000/svg"  width="1024.000000pt" height="1024.000000pt" viewBox="0 0 1024.000000 1024.000000"  preserveAspectRatio="xMidYMid meet">  <g transform="translate(0.000000,1024.000000) scale(0.050000,-0.050000)" fill="#ff007f" stroke="none"> <path d="M5495 19839 c-149 -99 -528 -582 -582 -740 -22 -68 -30 -183 -31 -441 -1 -406 15 -461 195 -666 129 -148 130 -146 -32 -162 -291 -27 -626 -111 -686 -171 -101 -101 -134 -415 -62 -595 54 -134 56 -384 3 -384 -8 0 -39 49 -68 108 -135 275 -364 403 -572 319 -107 -42 -108 -41 -61 170 48 214 51 347 11 513 -38 154 -37 281 0 477 36 186 38 361 8 524 -16 89 -16 182 2 366 32 323 27 330 -252 409 -109 31 -243 69 -298 85 -496 144 -721 167 -996 98 -112 -27 -303 -68 -423 -90 -120 -21 -251 -55 -290 -75 -276 -139 -439 -1404 -312 -2424 86 -693 145 -942 235 -998 100 -62 583 -203 762 -222 183 -19 540 -100 613 -139 21 -12 79 -21 128 -21 l89 0 8 -125 c23 -346 17 -683 -15 -856 -37 -197 -33 -409 12 -780 22 -174 22 -258 0 -470 -26 -256 -23 -332 31 -776 25 -201 156 -284 538 -341 621 -93 1212 -173 1710 -232 193 -23 548 -74 790 -113 567 -91 637 -87 892 44 103 52 215 109 248 125 512 251 505 234 510 1264 10 1913 -17 2380 -139 2380 -24 0 -40 20 -48 58 -12 63 -89 102 -202 102 -35 0 -130 23 -211 50 -81 28 -169 50 -195 50 -170 0 -158 85 24 172 188 89 244 152 262 299 50 398 -173 679 -617 778 -53 12 -55 15 -43 107 18 134 -96 208 -444 284 -284 63 -296 74 -144 129 401 144 367 633 -87 1285 -110 158 -157 357 -117 500 49 177 -1 220 -144 125z m-2630 -309 c217 -53 395 -103 395 -111 0 -8 -83 -34 -185 -57 -102 -24 -241 -57 -309 -74 l-124 -32 -376 101 c-207 56 -406 109 -442 118 -118 28 -79 51 186 107 326 69 372 66 855 -52z m2626 -85 c17 -144 68 -264 168 -394 329 -429 400 -830 171 -971 -89 -55 -105 -42 -63 47 89 186 -50 559 -290 784 -163 152 -205 120 -145 -111 42 -165 25 -251 -75 -371 -44 -54 -94 -124 -110 -156 -70 -135 -97 -31 -97 383 0 444 3 453 242 729 179 207 181 208 199 60z m-3601 -143 c719 -208 660 -163 638 -492 -21 -315 -21 -619 1 -860 11 -128 6 -271 -17 -496 -37 -351 -41 -709 -14 -1111 24 -349 18 -361 -148 -292 -41 17 -184 44 -317 60 -243 29 -583 137 -673 215 -118 101 -237 1493 -179 2104 41 441 143 908 212 977 26 25 106 8 497 -105z m1575 -117 c-19 -144 -18 -358 4 -605 12 -146 8 -229 -17 -362 -40 -212 -41 -394 -2 -538 87 -324 -14 -751 -200 -852 -93 -49 -97 -39 -73 179 11 104 17 206 12 226 -4 20 -12 78 -17 127 -6 50 -19 131 -30 180 -30 133 -25 284 16 526 35 204 32 456 -7 622 -13 57 31 499 52 522 18 20 203 84 252 88 19 2 22 -26 10 -113z m-474 -131 c-1 -46 -10 -97 -19 -112 -13 -20 -11 -24 5 -14 17 10 22 -4 19 -47 -2 -33 -14 -61 -25 -61 -13 0 -12 -6 2 -15 30 -20 24 -718 -7 -775 -24 -45 -15 -481 12 -581 9 -33 14 -155 10 -269 -4 -148 1 -213 18 -224 18 -12 18 -15 -2 -16 -18 0 -22 -14 -14 -40 7 -22 4 -40 -8 -40 -11 0 -42 -22 -69 -49 -27 -27 -54 -43 -61 -36 -7 6 -12 0 -12 -15 0 -15 -5 -21 -12 -15 -13 14 -85 -49 -75 -67 3 -7 -16 -22 -42 -34 -45 -20 -48 -18 -42 32 3 30 -4 60 -16 68 -16 10 -16 21 2 39 14 14 25 34 25 46 0 12 -8 9 -18 -6 -10 -17 -18 21 -20 99 -1 78 7 131 21 140 29 18 38 98 11 98 -10 0 -14 -18 -8 -40 6 -22 1 -40 -10 -40 -27 0 0 145 31 165 16 10 16 14 1 15 -13 0 -19 23 -13 55 23 140 43 765 24 765 -6 0 -13 50 -14 110 -2 61 6 110 16 110 24 0 16 45 -11 65 -12 9 -10 15 6 15 15 0 21 9 14 20 -7 12 -22 15 -33 8 -12 -7 -6 11 13 40 24 36 29 60 14 77 -11 14 -16 61 -12 105 5 44 8 121 8 170 0 65 6 82 20 60 14 -22 18 -11 16 42 -1 39 5 84 14 98 11 17 8 21 -7 12 -33 -21 -29 33 7 79 25 34 32 35 49 9 16 -23 20 -24 21 -3 0 16 12 23 31 15 18 -6 26 -3 19 8 -7 11 -3 20 9 20 19 0 29 -28 23 -65 -1 -8 7 -15 19 -15 11 0 19 11 18 25 -7 52 2 73 27 64 16 -6 25 -43 25 -95z m2618 -613 c56 -161 43 -219 -106 -446 -99 -150 -104 -153 -163 -91 -109 118 -100 286 22 418 88 95 138 190 138 262 l1 46 39 -50 c21 -27 53 -90 69 -139z m324 -783 c259 -36 281 -66 93 -133 -287 -102 -396 -105 -911 -25 -461 72 -520 85 -529 112 -16 47 695 64 818 20 67 -24 78 -23 108 11 40 44 178 49 421 15z m-1253 -218 c435 -92 948 -164 1120 -157 l169 7 13 -60 c28 -127 16 -355 -32 -632 -27 -158 -50 -351 -50 -429 0 -154 -19 -189 -100 -189 -56 0 -100 -32 -100 -74 0 -18 30 -26 95 -26 52 0 209 -10 349 -23 294 -26 339 -16 463 108 67 67 85 76 140 64 63 -13 396 -103 453 -122 53 -18 -61 -62 -245 -94 -167 -30 -252 -61 -355 -133 -124 -87 -360 -83 -590 9 -147 59 -258 68 -414 32 -171 -40 -270 -27 -461 61 -160 74 -190 81 -282 71 -356 -42 -371 -41 -594 34 l-211 71 -139 -31 c-304 -70 -319 -65 -291 83 17 88 231 350 286 350 36 0 14 -125 -27 -159 -107 -86 -18 -88 204 -3 285 108 487 580 375 876 -43 116 -59 332 -29 382 20 32 31 31 253 -16z m1560 -70 c0 -40 -10 -50 -50 -50 -86 0 -63 93 25 98 14 1 25 -20 25 -48z m539 -248 c151 -150 195 -334 122 -497 -50 -109 -92 -115 -69 -10 41 192 -11 382 -139 504 -40 38 -73 76 -73 85 0 43 72 6 159 -82z m-317 13 c221 -170 262 -410 119 -692 -98 -194 -245 -271 -379 -199 -79 42 -75 76 8 76 307 0 388 493 130 787 -102 116 -19 136 122 28z m-211 -145 c173 -183 160 -510 -21 -510 l-70 0 0 167 c0 92 -6 222 -13 290 -15 147 6 157 104 53z m-2281 -92 c52 -48 114 -135 149 -209 33 -69 75 -135 95 -146 73 -41 -77 -189 -161 -157 -17 7 -31 59 -39 145 -14 149 -74 272 -174 356 -73 62 -77 93 -10 93 32 0 85 -31 140 -82z m-280 -78 c160 -127 203 -238 140 -360 -89 -173 -253 -147 -395 64 -150 224 51 458 255 296z m-417 -151 c20 -52 -17 -101 -167 -217 -194 -152 -266 -143 -266 34 0 110 64 174 176 175 52 1 112 10 134 19 63 27 110 23 123 -11z m121 -351 c58 -49 69 -106 16 -85 -15 6 -23 22 -17 37 5 14 0 32 -12 39 -11 7 -21 4 -21 -8 0 -11 -20 -20 -45 -20 -25 0 -74 -6 -110 -13 -42 -8 -65 -5 -65 10 0 12 29 23 65 24 36 0 54 6 41 11 -19 8 -19 16 -2 35 34 36 83 26 150 -30z m-614 -55 c0 -9 23 -28 50 -43 28 -15 50 -35 50 -45 0 -9 -10 -11 -23 -3 -15 9 -18 5 -8 -10 11 -18 21 -18 43 0 16 13 63 24 106 25 43 1 75 8 71 15 -5 8 7 26 25 41 23 18 29 19 19 2 -9 -14 -6 -25 6 -25 44 0 19 -34 -49 -66 -38 -18 -70 -43 -70 -55 0 -12 -9 -16 -19 -10 -11 7 -14 28 -8 47 8 25 6 27 -8 8 -10 -14 -27 -24 -37 -21 -34 9 -116 -28 -153 -71 -21 -23 -32 -31 -25 -17 8 16 1 20 -19 13 -17 -7 -26 -20 -20 -30 6 -10 2 -18 -10 -18 -26 0 -26 12 -1 60 13 25 13 42 0 50 -11 7 -20 21 -20 32 0 11 10 14 23 6 16 -10 16 -3 1 24 -25 44 3 108 47 108 16 0 29 -7 29 -17z m3627 -169 c134 40 177 21 110 -46 -95 -95 -397 -77 -397 23 0 41 21 44 106 19 69 -20 101 -20 181 4z m-2996 -15 c28 -47 -11 -124 -57 -112 -266 67 -277 74 -169 108 87 28 210 30 226 4z m-471 -89 c0 -35 -92 -84 -115 -62 -14 14 69 91 100 92 8 0 15 -14 15 -30z m415 -193 c256 -91 345 -100 528 -54 148 37 370 29 445 -18 11 -7 151 -18 311 -24 286 -11 294 -13 456 -89 l164 -78 166 17 c316 33 452 24 585 -39 105 -50 143 -57 305 -57 174 0 195 -7 188 -58 -16 -121 0 -636 28 -870 32 -271 33 -331 9 -592 -18 -203 -21 -372 -10 -558 27 -431 13 -1077 -24 -1135 -35 -55 -77 -54 -536 15 -143 21 -318 45 -390 53 -157 16 -659 81 -920 119 -104 15 -356 51 -560 80 -974 139 -956 134 -1015 255 -47 96 -74 446 -48 636 31 233 29 396 -7 600 -38 218 -38 367 2 601 36 205 32 462 -13 937 -34 361 -6 382 336 259z m4077 -742 c9 -2589 19 -2371 -111 -2474 -106 -84 -576 -327 -601 -311 -20 12 -22 140 -26 1430 0 149 3 437 8 640 5 224 -2 445 -16 560 -74 579 -71 590 215 638 223 38 308 68 419 149 39 28 79 51 90 52 13 1 21 -241 22 -684z"/> <path d="M1660 18774 c0 -54 146 -205 178 -185 38 23 24 58 -57 146 -89 96 -121 106 -121 39z"/> <path d="M1981 17875 c-65 -69 -80 -135 -32 -135 39 0 151 122 151 165 0 55 -52 41 -119 -30z"/> <path d="M1473 17327 c-26 -27 -12 -67 49 -136 106 -121 159 -65 65 68 -55 77 -86 96 -114 68z"/> <path d="M2039 16661 c-71 -74 -105 -161 -63 -161 23 0 156 144 170 184 24 70 -31 58 -107 -23z"/> <path d="M4520 17304 c-81 -65 42 -335 146 -320 111 15 22 356 -92 356 -5 0 -30 -16 -54 -36z"/> <path d="M4971 17209 c-62 -63 0 -271 91 -300 115 -36 141 256 28 308 -67 30 -81 29 -119 -8z"/> <path d="M5520 17100 c-94 -94 74 -227 203 -159 87 46 99 97 37 159 -54 54 -186 54 -240 0z"/> <path d="M4728 16689 c-60 -59 -55 -89 19 -125 109 -54 242 24 194 114 -41 77 -142 83 -213 11z"/> <path d="M5324 16723 c-42 -27 -61 -147 -36 -225 30 -94 121 -109 154 -24 48 126 -35 302 -118 249z"/> <path d="M4471 16401 c-42 -46 -24 -119 60 -246 90 -136 163 -75 129 108 -29 156 -116 219 -189 138z"/> <path d="M4935 16318 c-21 -12 -35 -44 -35 -79 0 -122 255 -197 304 -89 46 102 -161 231 -269 168z"/> <path d="M5586 16285 c-67 -44 -84 -202 -28 -254 37 -33 41 -32 80 7 100 100 55 316 -52 247z"/> <path d="M3529 16679 c-42 -68 121 -228 182 -178 43 36 35 80 -25 143 -54 56 -133 74 -157 35z"/> <path d="M3472 15202 c-18 -28 126 -202 168 -202 69 0 63 38 -22 130 -81 87 -124 109 -146 72z"/> <path d="M4914 14731 c-100 -92 -125 -181 -50 -181 39 0 221 225 205 252 -22 34 -60 17 -155 -71z"/> <path d="M5772 14185 c-31 -30 -4 -84 84 -171 156 -154 201 -111 64 61 -79 100 -125 134 -148 110z"/> <path d="M4220 13645 c0 -47 211 -273 238 -256 42 26 21 75 -81 182 -105 112 -157 136 -157 74z"/> <path d="M3616 13260 c-120 -80 -149 -115 -120 -144 25 -25 214 90 234 142 23 60 -26 60 -114 2z"/> <path d="M5380 13114 c0 -38 146 -174 186 -174 55 0 40 58 -34 132 -68 68 -152 91 -152 42z"/> <path d="M7061 15128 c-51 -71 -60 -96 -42 -115 29 -28 161 111 161 170 0 64 -51 40 -119 -55z"/> <path d="M6940 14139 c0 -49 114 -159 164 -159 57 0 42 46 -40 126 -85 83 -124 94 -124 33z"/> <path d="M7042 13009 c-69 -78 -84 -156 -28 -145 67 12 168 216 108 216 -10 0 -46 -32 -80 -71z"/> </g> </svg> 