<?xml version="1.0" encoding="UTF-8" ?>
<!DOCTYPE svg PUBLIC "-//W3C//DTD SVG 1.1//EN" "http://www.w3.org/Graphics/SVG/1.1/DTD/svg11.dtd">
<svg width="105pt" height="76pt" viewBox="0 0 105 76" version="1.1" xmlns="http://www.w3.org/2000/svg">
<g id="#ffffffff">
<path fill="#ffffff" opacity="1.00" d=" M 37.26 9.07 C 47.79 8.12 58.45 8.33 68.96 9.43 C 75.31 9.54 81.67 9.21 88.02 9.47 C 91.24 9.48 92.79 13.18 92.45 15.97 C 92.35 29.65 92.45 43.33 92.56 57.00 C 93.05 60.27 90.63 64.00 87.04 63.53 C 65.03 63.50 43.02 63.87 21.02 63.57 C 18.42 63.52 15.44 63.52 13.50 61.48 C 11.59 58.71 11.97 55.20 11.54 52.03 C 11.22 40.36 11.56 28.69 11.27 17.02 C 11.36 14.44 10.89 10.75 13.93 9.66 C 21.69 9.20 29.52 10.08 37.26 9.07 Z" />
</g>
</svg>