<?xml version="1.0" encoding="UTF-8" ?>
<!DOCTYPE svg PUBLIC "-//W3C//DTD SVG 1.1//EN" "http://www.w3.org/Graphics/SVG/1.1/DTD/svg11.dtd">
<svg width="114pt" height="91pt" viewBox="0 0 114 91" version="1.1" xmlns="http://www.w3.org/2000/svg">
<g id="#ff007fff">
<path fill="#ff007f" opacity="1.00" d=" M 68.28 7.04 C 72.63 6.61 76.69 9.78 80.78 11.16 C 85.90 13.79 91.06 7.32 95.86 11.05 C 99.90 13.82 94.42 18.55 97.10 22.05 C 99.62 26.09 94.84 29.66 95.38 33.77 C 96.00 36.51 98.06 38.57 99.24 41.04 C 100.60 44.99 96.53 47.98 97.32 51.89 C 97.83 56.23 102.50 60.67 98.90 64.87 C 94.74 69.05 88.73 65.88 84.01 64.41 C 77.92 66.71 71.12 69.03 64.75 66.35 C 58.66 63.76 52.17 66.39 46.06 67.39 C 40.89 68.21 36.41 65.21 31.88 63.38 C 27.64 63.88 23.53 66.55 19.16 65.10 C 14.90 63.21 14.69 57.39 16.77 53.82 C 19.72 50.76 19.33 45.48 16.57 42.41 C 13.96 39.15 17.07 35.54 18.49 32.55 C 19.85 27.64 15.24 23.78 15.52 19.00 C 14.66 13.48 21.43 9.12 26.24 11.56 C 30.99 13.14 34.31 7.74 38.92 8.72 C 41.15 9.56 43.31 13.04 45.83 10.82 C 50.83 6.74 55.97 13.92 61.26 11.15 C 63.51 9.63 65.71 7.99 68.28 7.04 M 67.43 9.52 C 64.40 11.16 61.68 13.76 58.00 13.91 C 54.98 13.42 52.19 12.01 49.16 11.57 C 46.64 11.85 44.33 15.67 42.03 13.03 C 39.69 10.87 35.84 10.68 33.16 12.27 C 28.38 15.53 20.71 10.37 17.50 16.49 C 16.41 21.44 20.50 25.49 20.81 30.29 C 21.56 33.61 17.87 35.79 18.28 38.99 C 17.82 43.20 22.99 46.46 20.91 50.72 C 19.36 54.40 15.34 59.15 19.33 62.67 C 22.86 65.67 27.05 60.90 31.00 61.55 C 35.42 60.94 38.50 65.57 42.98 64.70 C 48.45 65.23 53.69 63.57 58.99 62.58 C 64.36 63.22 69.64 67.11 75.14 64.99 C 79.01 64.38 82.77 61.38 86.76 63.09 C 90.09 64.51 94.30 65.75 97.58 63.55 C 98.79 59.01 95.28 55.37 94.82 51.09 C 96.45 46.93 98.09 41.79 95.09 37.84 C 92.60 34.44 93.34 29.89 95.41 26.50 C 97.10 23.20 92.13 20.50 94.13 17.29 C 94.57 15.88 96.35 14.33 95.21 12.83 C 91.43 11.16 87.60 13.44 83.97 14.39 C 78.13 14.05 73.65 7.77 67.43 9.52 Z" />
</g>
</svg>
