<?xml version="1.0" encoding="UTF-8" ?>
<!DOCTYPE svg PUBLIC "-//W3C//DTD SVG 1.1//EN" "http://www.w3.org/Graphics/SVG/1.1/DTD/svg11.dtd">
<svg width="117pt" height="90pt" viewBox="0 0 117 90" version="1.1" xmlns="http://www.w3.org/2000/svg">
<g id="#ff007fff">
<path fill="#ff007f" opacity="1.00" d=" M 66.28 8.00 C 70.69 7.61 74.69 10.73 78.77 12.16 C 83.89 14.80 89.14 8.19 93.85 12.13 C 96.60 12.93 95.23 16.52 94.62 18.51 C 93.38 21.34 96.36 23.89 95.79 26.73 C 95.03 29.18 93.61 31.43 93.31 34.02 C 93.51 37.80 97.83 40.06 97.45 44.00 C 97.64 46.89 94.97 49.07 95.30 51.99 C 95.15 56.76 100.79 61.36 96.95 65.90 C 92.74 69.97 86.63 67.13 82.01 65.28 C 77.53 67.06 72.90 69.05 67.96 68.47 C 64.44 68.75 61.50 66.15 58.00 66.34 C 51.85 65.69 46.12 69.24 39.96 68.35 C 36.31 67.81 33.25 65.59 29.86 64.38 C 25.63 64.87 21.49 67.70 17.16 66.09 C 12.57 64.11 12.61 57.82 15.22 54.22 C 17.94 50.86 16.84 45.78 14.10 42.74 C 11.59 37.97 18.47 34.33 16.40 29.44 C 14.72 25.13 12.47 20.80 13.80 16.03 C 16.25 13.43 19.67 10.53 23.44 12.32 C 27.35 13.79 30.68 11.14 34.09 9.76 C 37.21 8.66 39.47 11.60 41.97 12.90 C 43.80 11.74 45.70 10.28 48.00 10.53 C 50.88 10.39 53.06 13.01 55.98 12.69 C 60.22 13.22 62.32 8.55 66.28 8.00 M 65.43 10.53 C 62.93 11.66 61.01 13.93 58.23 14.50 C 54.62 15.66 51.26 13.21 47.78 12.65 C 44.73 12.22 42.55 17.00 39.84 14.19 C 37.48 11.58 33.32 11.82 30.50 13.63 C 26.68 15.75 21.58 13.26 17.88 14.88 C 10.81 20.92 22.22 28.88 17.86 35.74 C 14.80 38.62 16.64 43.43 18.58 46.52 C 22.21 52.07 12.84 57.16 16.48 62.50 C 18.90 67.28 24.19 62.63 27.96 62.55 C 31.52 61.82 34.40 64.07 37.45 65.40 C 44.05 66.49 50.59 64.97 57.00 63.57 C 60.58 64.04 63.90 65.74 67.47 66.37 C 73.69 67.97 79.45 61.50 85.54 64.35 C 88.68 65.89 92.42 66.18 95.65 64.73 C 96.64 60.12 93.37 56.42 92.82 52.09 C 94.03 48.68 95.34 45.13 94.47 41.46 C 93.19 38.74 90.93 36.21 91.51 32.97 C 91.31 30.15 94.07 28.07 93.65 25.23 C 93.23 22.89 90.48 20.72 92.10 18.27 C 92.62 16.86 94.24 15.39 93.23 13.82 C 89.42 12.25 85.61 14.39 82.00 15.42 C 76.15 14.75 71.60 9.02 65.43 10.53 Z" />
</g>
</svg>
