<?xml version="1.0" encoding="UTF-8" ?>
<!DOCTYPE svg PUBLIC "-//W3C//DTD SVG 1.1//EN" "http://www.w3.org/Graphics/SVG/1.1/DTD/svg11.dtd">
<svg width="258pt" height="99pt" viewBox="0 0 258 99" version="1.1" xmlns="http://www.w3.org/2000/svg">
<g id="#ff007fff">
<path fill="#ff007f" opacity="1.00" d=" M 66.29 12.15 C 88.50 10.69 110.64 13.57 133.04 12.81 C 144.24 14.82 155.94 12.36 167.00 14.68 C 186.16 15.61 206.37 11.66 224.45 19.43 C 232.19 22.46 236.35 30.41 238.30 37.92 C 238.36 50.23 242.13 63.66 236.39 75.34 C 225.62 88.11 207.50 88.25 192.02 89.32 C 176.12 88.58 159.24 91.14 144.05 87.34 C 106.52 86.13 68.75 85.33 30.98 85.29 C 21.99 83.03 16.57 72.85 17.63 63.95 C 18.05 51.85 13.33 38.28 19.79 26.86 C 30.10 11.52 50.14 12.91 66.29 12.15 M 49.41 15.43 C 39.08 16.66 26.17 20.48 21.38 31.25 C 19.78 41.07 20.02 51.42 20.84 61.24 C 25.17 73.07 39.08 66.65 48.22 69.62 C 80.48 69.67 112.75 69.64 145.01 69.64 C 166.80 71.67 188.68 71.84 210.95 71.67 C 220.10 70.04 232.14 66.58 234.63 55.80 C 234.16 47.87 236.02 39.28 233.02 31.92 C 226.34 20.55 212.11 17.62 200.01 18.34 C 149.52 17.55 100.13 14.03 49.41 15.43 M 235.36 61.22 C 231.29 67.11 240.35 62.47 235.36 61.22 M 232.21 65.20 C 233.84 69.97 238.19 65.70 232.21 65.20 M 230.07 67.30 C 232.83 73.14 237.21 68.95 230.07 67.30 M 21.14 68.25 C 20.97 72.75 23.37 78.23 27.77 79.79 C 26.05 75.85 24.70 70.87 21.14 68.25 M 227.40 69.48 C 224.82 71.55 230.54 73.42 232.05 74.65 C 234.49 72.95 229.19 69.71 227.40 69.48 M 26.35 71.23 C 27.75 74.81 29.31 81.23 33.68 81.76 C 31.52 78.44 30.16 71.87 26.35 71.23 M 223.32 71.54 C 218.87 72.50 226.42 75.41 227.72 77.25 C 234.28 78.24 225.68 71.56 223.32 71.54 M 31.34 72.22 C 33.01 76.11 34.75 83.05 39.67 82.89 C 36.41 79.83 35.72 72.98 31.34 72.22 M 35.33 72.10 C 37.53 75.35 39.06 80.36 42.78 81.81 C 40.79 78.55 39.47 72.83 35.33 72.10 M 39.28 72.11 C 42.25 75.07 43.26 81.21 47.67 81.81 C 45.54 78.41 44.10 71.78 39.28 72.11 M 44.33 72.10 C 46.53 75.35 48.08 80.30 51.76 81.83 C 49.38 78.85 48.26 72.85 44.33 72.10 M 77.36 72.22 C 77.62 75.63 80.37 78.15 82.13 80.90 C 89.15 85.08 81.39 70.68 77.36 72.22 M 94.22 72.12 C 98.00 75.59 100.11 82.72 105.64 82.79 C 102.66 78.61 100.88 70.55 94.22 72.12 M 49.33 73.20 C 50.92 76.62 53.01 82.38 57.70 81.91 C 54.77 79.31 53.43 73.69 49.33 73.20 M 53.23 73.11 C 56.48 76.18 58.20 82.63 63.65 81.78 C 61.53 78.07 58.70 71.88 53.23 73.11 M 60.30 73.09 C 63.08 76.21 64.67 82.43 69.65 81.77 C 67.57 78.31 65.48 72.08 60.30 73.09 M 66.24 73.09 C 69.25 76.09 70.55 82.45 75.62 81.80 C 73.98 78.04 71.56 71.92 66.24 73.09 M 73.28 73.19 C 74.71 76.20 76.49 80.59 79.76 81.81 C 78.17 78.87 76.89 74.03 73.28 73.19 M 83.27 73.08 C 85.44 77.42 87.72 83.56 93.78 82.00 C 90.42 78.33 89.59 71.32 83.27 73.08 M 90.32 73.03 C 93.33 76.81 94.78 83.94 100.76 82.88 C 96.80 80.14 95.24 73.79 90.32 73.03 M 102.27 73.07 C 104.69 77.21 106.91 83.91 112.76 82.87 C 108.62 79.88 108.41 71.87 102.27 73.07 M 108.25 73.11 C 111.58 77.11 113.49 84.72 119.65 83.78 C 117.00 79.75 114.33 72.20 108.25 73.11 M 115.28 73.15 C 118.31 77.32 120.52 84.73 126.72 83.89 C 122.56 80.53 121.75 72.13 115.28 73.15 M 122.34 73.20 C 123.94 77.32 126.80 83.82 131.68 83.87 C 128.64 80.37 127.58 72.95 122.34 73.20 M 128.37 73.22 C 129.33 77.18 133.61 85.58 137.65 83.09 C 134.22 80.16 133.50 72.77 128.37 73.22 M 217.40 73.21 C 218.41 75.72 224.41 82.66 226.68 79.08 C 224.01 77.02 221.15 73.36 217.40 73.21 M 134.24 74.07 C 137.07 78.46 139.40 85.34 145.75 83.83 C 142.45 79.76 140.93 72.36 134.24 74.07 M 142.29 74.18 C 144.59 79.17 148.09 86.41 154.88 84.85 C 149.72 81.70 149.64 72.21 142.29 74.18 M 150.34 74.14 C 152.07 79.51 156.07 87.15 162.74 85.84 C 158.60 82.22 156.49 73.98 150.34 74.14 M 156.26 74.02 C 159.89 78.15 162.49 85.68 168.64 85.79 C 165.38 81.80 162.46 73.69 156.26 74.02 M 163.32 74.17 C 166.00 79.27 170.11 86.87 176.83 85.86 C 171.76 82.59 169.70 74.22 163.32 74.17 M 169.29 74.10 C 172.83 78.36 176.07 85.05 181.67 85.91 C 177.40 82.41 175.02 75.26 169.29 74.10 M 174.29 74.13 C 178.21 78.34 181.30 85.65 187.68 85.90 C 182.77 82.48 180.99 73.62 174.29 74.13 M 211.34 74.13 C 213.82 77.23 217.57 81.10 221.64 81.75 C 220.11 78.30 215.54 74.18 211.34 74.13 M 181.24 75.14 C 184.52 79.18 187.61 85.77 193.69 84.94 C 189.81 81.58 187.07 74.60 181.24 75.14 M 188.36 75.20 C 190.44 79.13 194.69 84.60 199.65 84.88 C 196.12 81.76 193.52 75.18 188.36 75.20 M 194.36 75.22 C 196.29 78.97 200.37 83.65 204.62 84.87 C 201.37 81.89 199.26 75.03 194.36 75.22 M 199.29 75.13 C 202.38 78.70 204.99 84.76 210.64 83.87 C 207.22 80.75 204.68 74.40 199.29 75.13 M 205.28 75.11 C 207.37 77.80 210.12 80.04 212.48 82.54 C 223.30 85.43 209.76 74.07 205.28 75.11 Z" />
<path fill="#ff007f" opacity="1.00" d=" M 43.32 20.24 C 46.17 20.12 51.78 18.93 52.96 21.02 C 45.02 21.08 36.89 23.88 29.96 27.83 C 31.05 22.87 38.89 22.02 43.32 20.24 Z" />
<path fill="#ff007f" opacity="1.00" d=" M 201.35 21.27 C 209.73 21.37 220.40 21.95 226.78 28.31 C 227.14 32.00 223.21 28.09 222.24 26.74 C 216.54 22.83 204.43 25.82 201.35 21.27 Z" />
</g>
</svg>
