<?xml version="1.0" encoding="UTF-8" ?>
<!DOCTYPE svg PUBLIC "-//W3C//DTD SVG 1.1//EN" "http://www.w3.org/Graphics/SVG/1.1/DTD/svg11.dtd">
<svg width="150pt" height="150pt" viewBox="0 0 150 150" version="1.1" xmlns="http://www.w3.org/2000/svg">
<path fill="#f00078" opacity="0.94" d=" M 55.53 47.43 C 59.79 40.06 66.67 32.27 76.03 33.03 C 85.63 31.37 93.22 38.98 98.39 46.04 C 103.80 44.71 109.98 42.36 115.02 45.98 C 125.00 52.19 126.26 66.65 121.52 76.59 C 118.18 84.24 109.60 86.42 102.04 86.62 C 102.09 85.29 102.16 83.96 102.22 82.63 C 108.27 80.65 114.90 76.88 116.31 70.18 C 118.07 62.99 115.95 53.10 107.69 51.37 C 102.70 51.17 98.38 54.48 93.80 56.04 C 91.05 48.26 85.83 37.87 76.14 38.21 C 66.25 39.80 62.23 50.54 58.29 58.38 C 53.26 55.73 48.54 50.76 42.31 52.29 C 34.90 56.02 30.38 65.73 33.35 73.67 C 36.69 81.17 45.54 82.37 52.35 85.27 C 51.58 87.06 50.77 88.83 49.95 90.59 C 41.03 89.59 30.55 86.14 27.10 76.96 C 21.92 66.43 27.36 52.92 37.11 47.11 C 42.86 44.00 49.73 45.08 55.53 47.43 Z" />
<path fill="#f00078" opacity="0.94" d=" M 74.96 64.97 C 75.23 61.90 78.97 61.31 81.12 59.91 C 83.76 72.72 83.37 85.95 85.12 98.89 C 89.48 95.04 94.12 91.41 99.55 89.20 C 100.50 92.51 101.21 96.37 97.78 98.79 C 91.62 105.79 86.10 114.28 77.21 118.00 C 71.82 107.69 60.81 101.34 56.97 90.20 C 64.57 89.18 69.65 95.81 75.14 99.91 C 75.35 88.27 73.44 76.56 74.96 64.97 Z" />
</svg>
