<svg xmlns="http://www.w3.org/2000/svg" version="1.0" preserveAspectRatio="xMidYMid meet" viewBox="89.74 34.05 274.54 379.41">  <g transform="translate(0.000000,1024.000000) scale(0.050000,-0.050000)" fill="#ff007f" stroke="none"> <path d="M3892 19780 c-127 -23 -128 -23 -163 -231 -17 -99 -48 -237 -68 -309 -20 -71 -42 -153 -48 -181 -10 -45 -21 -50 -107 -48 l-96 2 10 78 c61 491 -36 662 -340 598 -324 -68 -334 -79 -310 -343 40 -446 21 -873 -40 -906 -69 -37 -69 -38 -90 260 -29 410 -77 457 -376 369 -306 -89 -329 -124 -276 -415 17 -90 40 -254 51 -364 26 -260 44 -349 130 -647 99 -344 95 -351 -254 -451 -108 -31 -128 -50 -118 -117 2 -7 17 -97 34 -200 17 -102 40 -252 50 -335 10 -82 33 -271 51 -420 19 -148 36 -292 39 -320 21 -196 75 -602 101 -760 35 -213 58 -449 88 -890 11 -165 33 -358 48 -430 58 -259 92 -475 112 -710 41 -463 -35 -419 715 -416 778 3 1307 -52 1745 -183 835 -249 769 -241 930 -111 55 44 176 136 268 205 231 171 299 232 332 294 37 73 90 362 90 498 1 121 25 231 112 503 30 94 80 278 112 410 32 132 66 268 77 301 10 34 19 107 19 163 0 56 18 190 41 299 22 108 45 244 51 301 10 112 117 571 147 636 31 67 158 495 172 580 8 44 26 129 41 188 33 129 37 122 -165 273 -167 127 -163 115 -99 231 27 49 82 187 122 308 46 136 107 271 162 353 140 211 131 251 -84 365 -95 51 -184 92 -199 92 -49 0 -49 35 0 123 156 284 172 596 29 597 -15 0 -98 23 -184 50 -187 60 -202 55 -310 -105 -152 -228 -227 -383 -239 -498 -12 -118 -36 -144 -103 -108 -63 33 -11 258 123 539 168 353 140 439 -167 521 -231 61 -273 34 -357 -226 -21 -64 -32 -75 -68 -65 -24 7 -95 18 -159 25 -141 16 -141 16 -104 160 97 374 5 504 -347 484 -169 -10 -210 -48 -306 -287 -109 -271 -111 -273 -256 -303 -162 -33 -164 -31 -118 118 84 270 35 455 -121 455 -31 0 -96 4 -144 9 -48 4 -132 0 -186 -9z m319 -286 c-7 -55 -28 -128 -47 -162 -28 -51 -34 -122 -36 -402 -2 -449 -31 -554 -165 -599 -139 -48 -137 -49 -127 126 5 88 -1 188 -13 225 -69 210 -66 438 7 649 27 80 50 163 50 185 0 60 41 81 171 88 173 9 176 7 160 -110z m1019 78 c37 -56 28 -109 -46 -272 -40 -88 -54 -168 -74 -403 l-24 -293 -103 -163 c-57 -89 -103 -171 -103 -182 0 -10 -10 -19 -22 -19 -24 0 -6 186 24 242 51 99 -3 560 -81 686 l-38 62 58 130 c32 72 58 139 58 151 4 114 284 163 351 61z m-1968 -82 c21 -97 20 -469 -1 -509 -11 -20 -51 -55 -89 -77 -111 -65 -128 -158 -66 -345 59 -175 62 -168 -46 -135 -130 39 -136 69 -135 609 l1 462 132 30 c171 39 189 36 204 -35z m2894 -279 c18 -18 -32 -186 -87 -296 -60 -119 -103 -269 -120 -416 -11 -97 -20 -114 -70 -136 -141 -63 -299 -407 -299 -652 0 -207 -40 -342 -137 -465 -125 -158 -129 -173 -142 -496 -10 -240 -22 -330 -62 -453 l-49 -153 -135 2 c-171 3 -172 19 -7 184 148 149 157 174 162 511 4 260 29 335 141 437 110 100 134 167 150 424 15 242 31 293 140 442 60 83 125 324 150 556 7 72 28 165 45 208 24 62 26 85 6 116 -22 35 7 181 51 259 7 14 242 -51 263 -72z m-1468 -196 c55 -86 74 -394 32 -506 -41 -107 -47 -391 -13 -543 50 -219 43 -317 -30 -446 -147 -258 -140 -235 -126 -432 9 -123 6 -197 -10 -225 -32 -61 -56 -53 -46 14 5 32 -14 122 -43 202 -62 172 -65 265 -12 456 52 188 50 284 -10 454 -27 76 -55 179 -62 230 -7 50 -27 107 -44 127 -27 30 -28 50 -8 130 13 52 22 186 20 298 -5 236 -13 223 138 255 167 37 182 36 214 -14z m870 -38 c121 -28 125 -36 98 -210 -44 -288 -61 -350 -148 -528 -91 -188 -127 -343 -128 -555 0 -114 -46 -228 -120 -294 -142 -127 -170 -203 -172 -460 -1 -283 -2 -284 -151 -445 -118 -128 -142 -181 -167 -377 -23 -182 -219 -289 -241 -132 -8 52 -40 148 -71 214 -95 196 -73 278 131 498 115 124 139 199 123 385 -17 182 8 271 110 400 128 162 141 198 160 435 22 273 21 268 141 458 117 183 146 260 166 433 23 212 48 229 269 178z m-3091 -78 c10 -9 26 -140 36 -292 11 -167 37 -352 66 -467 35 -138 51 -270 59 -482 6 -161 25 -363 43 -448 38 -187 32 -215 -45 -191 -31 10 -89 23 -130 30 -65 11 -76 20 -83 77 -5 35 -23 172 -41 305 -17 132 -54 307 -82 388 -57 169 -104 406 -120 611 -6 77 -21 197 -33 266 -25 146 -25 148 123 201 105 37 169 38 207 2z m4296 -1 c187 -54 192 -25 -96 -584 -28 -54 -62 -145 -78 -203 -27 -105 -66 -176 -189 -346 -87 -121 -133 -114 -69 10 96 186 99 402 8 520 -68 88 217 674 310 638 15 -5 66 -21 114 -35z m-3156 -88 c77 -77 99 -221 73 -478 -24 -235 -23 -248 28 -459 63 -261 64 -314 10 -533 -56 -229 -56 -380 -1 -530 86 -233 84 -819 -3 -806 -35 5 -47 32 -74 176 -39 201 -65 283 -143 466 -59 134 -59 138 -55 490 4 326 0 367 -46 524 -42 141 -53 228 -62 512 -9 250 -21 365 -45 425 -51 126 -30 171 96 208 138 40 186 41 222 5z m-481 -745 c17 -96 36 -230 41 -298 5 -72 33 -181 66 -260 55 -132 57 -147 51 -422 -6 -292 21 -507 89 -712 103 -313 -240 22 -380 371 -29 73 -53 149 -53 169 0 21 -36 144 -80 275 -80 236 -80 238 -80 550 -1 171 -9 348 -19 391 -25 108 -21 111 167 111 l166 0 32 -175z m1139 -95 l59 -240 -45 -190 c-57 -237 -56 -279 11 -480 62 -185 59 -283 -14 -528 -36 -118 -40 -169 -29 -351 15 -250 18 -245 -103 -208 -52 16 -130 26 -174 23 -102 -7 -107 21 -59 361 38 274 31 442 -21 544 -56 107 -61 285 -14 480 64 267 67 306 33 462 -69 319 -73 307 100 350 191 47 189 49 256 -223z m1966 169 c51 -42 32 -130 -71 -324 l-99 -190 -29 -308 c-41 -443 -99 -557 -280 -557 -132 0 -164 -32 -203 -200 -34 -144 -106 -320 -132 -320 -9 0 -12 92 -7 205 26 502 35 547 135 665 110 131 140 220 166 499 25 266 35 298 145 489 l51 87 148 -11 c81 -6 160 -22 176 -35z m722 -37 c157 -74 155 -68 78 -234 -36 -78 -91 -218 -121 -310 -77 -233 -96 -265 -253 -431 -91 -96 -158 -190 -195 -273 -64 -143 -137 -194 -277 -194 -107 0 -105 -11 -44 268 88 401 104 437 273 608 159 161 186 204 287 459 74 189 76 190 252 107z m-168 -1206 c78 -11 66 -58 -13 -49 -40 4 -72 0 -72 -10 0 -9 -10 -17 -21 -17 -12 0 -18 16 -14 35 4 19 18 33 31 30 13 -3 23 2 22 10 -7 40 7 74 16 41 4 -18 27 -36 51 -40z m-4305 -18 c39 -12 122 -39 185 -62 l116 -41 120 -247 120 -247 225 -181 c123 -99 289 -213 368 -253 l144 -72 163 26 c145 24 178 23 296 -7 240 -62 391 -35 627 110 103 64 111 66 310 62 l204 -5 83 95 c95 108 158 225 209 389 55 178 68 181 370 98 83 -23 175 -46 205 -53 72 -14 71 -56 -2 -340 -72 -276 -94 -393 -143 -730 -46 -326 -116 -628 -220 -950 -103 -320 -107 -342 -103 -624 4 -228 0 -257 -65 -460 -92 -288 -132 -491 -132 -680 0 -127 -27 -306 -46 -306 -29 0 -574 148 -655 178 -185 67 -521 143 -759 170 -49 5 -179 21 -288 34 -122 14 -300 19 -460 11 -144 -6 -390 -18 -546 -26 -236 -11 -286 -8 -293 15 -5 15 -19 127 -33 248 -13 121 -37 283 -53 359 -47 229 -84 534 -78 641 7 116 -33 447 -90 750 -39 207 -104 656 -129 890 -7 66 -30 255 -50 420 -59 467 -79 730 -59 781 19 51 293 55 459 7z m4445 -238 c70 0 69 -14 -14 -220 -38 -93 -97 -287 -131 -430 -34 -143 -75 -314 -90 -380 -41 -168 -109 -486 -123 -570 -6 -38 -15 -77 -20 -85 -6 -9 -27 -184 -48 -390 -46 -459 -58 -521 -146 -785 -98 -293 -128 -420 -151 -646 -25 -249 -48 -288 -281 -469 -217 -168 -223 -170 -199 -70 10 41 24 188 31 325 13 256 19 282 125 587 57 162 62 197 62 440 0 283 20 385 167 873 38 127 83 289 100 360 17 72 54 225 82 340 28 116 51 237 51 270 0 33 13 128 28 210 16 83 35 227 43 320 8 94 24 182 35 196 57 71 288 150 384 132 22 -4 65 -8 95 -8z"/> <path d="M3990 19395 c-10 -30 -70 -352 -70 -377 0 -10 13 -18 28 -18 25 0 92 279 92 385 0 40 -37 48 -50 10z"/> <path d="M5002 19379 c-23 -44 -42 -93 -42 -110 0 -46 39 -34 59 19 10 26 28 54 40 61 26 16 28 84 3 100 -10 6 -37 -25 -60 -70z"/> <path d="M3048 19333 c-20 -52 1 -122 38 -130 31 -5 36 5 30 69 -6 77 -47 114 -68 61z"/> <path d="M4533 18747 c-28 -29 -14 -287 15 -287 39 0 58 98 41 209 -13 87 -27 107 -56 78z"/> <path d="M5414 18747 c-8 -7 -14 -59 -14 -115 0 -125 57 -93 65 37 5 72 -20 109 -51 78z"/> <path d="M5266 18265 c-79 -144 -108 -385 -46 -385 11 0 20 25 20 55 1 71 47 239 87 314 30 56 28 91 -4 91 -9 0 -34 -34 -57 -75z"/> <path d="M4956 17385 c-61 -65 -116 -273 -81 -308 26 -26 54 21 73 124 7 40 35 102 62 139 82 112 41 146 -54 45z"/> <path d="M4727 16564 c-67 -57 -147 -176 -147 -219 0 -49 56 -24 80 36 14 34 60 94 103 134 118 112 86 155 -36 49z"/> <path d="M2318 18551 c-6 -5 -3 -71 5 -145 8 -75 15 -157 16 -182 1 -34 11 -45 36 -40 22 5 33 23 29 47 -3 21 -12 101 -20 177 -12 123 -36 173 -66 143z"/> <path d="M2470 17639 c-16 -74 12 -115 48 -71 29 35 22 116 -11 126 -13 5 -30 -20 -37 -55z"/> <path d="M6560 18516 c-44 -73 -51 -116 -18 -116 31 0 97 84 97 124 2 62 -38 58 -79 -8z"/> <path d="M3460 18389 c-26 -67 -25 -69 11 -69 31 0 72 77 55 105 -17 30 -47 14 -66 -36z"/> <path d="M3473 18146 c-24 -24 -13 -158 16 -197 27 -36 30 -30 30 75 1 106 -16 152 -46 122z"/> <path d="M2913 17947 c-21 -22 -15 -287 7 -287 22 0 33 45 48 195 10 100 -11 135 -55 92z"/> <path d="M3080 17069 c0 -50 39 -109 71 -109 38 0 37 40 -2 96 -36 51 -69 58 -69 13z"/> <path d="M4077 17951 c-17 -18 2 -381 20 -387 27 -9 63 110 63 208 0 117 -46 216 -83 179z"/> <path d="M4020 17099 c0 -22 20 -108 44 -190 43 -146 43 -155 13 -305 -18 -85 -29 -158 -24 -163 34 -37 117 223 114 359 -4 158 -147 450 -147 299z"/> <path d="M5936 17905 c-63 -72 -90 -225 -40 -225 19 0 104 187 104 228 0 42 -26 41 -64 -3z"/> <path d="M5803 17152 c-23 -49 -51 -95 -62 -102 -34 -20 -24 -50 16 -50 56 0 116 82 120 165 6 100 -23 95 -74 -13z"/> <path d="M6754 17681 c-40 -114 -82 -188 -147 -260 -92 -103 -104 -166 -19 -111 70 47 185 228 220 349 68 230 25 247 -54 22z"/> <path d="M6288 16929 c-22 -53 -25 -80 -9 -96 27 -27 79 39 80 101 1 75 -38 72 -71 -5z"/> <path d="M2304 16555 c7 -50 50 -66 96 -35 26 18 25 25 -9 50 -57 44 -95 38 -87 -15z"/> <path d="M2631 15846 c-13 -35 42 -127 84 -141 13 -4 29 16 37 44 22 89 -90 178 -121 97z"/> <path d="M5601 15827 c-46 -59 -54 -127 -15 -127 25 0 94 118 94 161 0 35 -37 20 -79 -34z"/> <path d="M3293 15547 c-23 -23 -14 -87 12 -89 72 -7 166 49 143 85 -12 20 -135 23 -155 4z"/> <path d="M5025 15407 c-33 -14 -32 -76 2 -105 45 -37 131 42 95 86 -27 32 -51 37 -97 19z"/> <path d="M4200 15090 c-19 -23 -10 -36 43 -69 105 -64 198 -44 121 25 -60 55 -138 76 -164 44z"/> <path d="M5411 15029 c-37 -38 -40 -82 -6 -95 44 -15 95 26 95 77 0 56 -41 65 -89 18z"/> <path d="M2780 14993 c0 -51 160 -233 204 -233 36 0 12 89 -47 172 -63 87 -157 124 -157 61z"/> <path d="M3710 14439 c-15 -90 -7 -110 40 -92 41 16 57 62 42 123 -20 79 -67 61 -82 -31z"/> <path d="M4770 14348 c-30 -73 -40 -148 -19 -148 42 0 131 69 141 110 31 125 -72 156 -122 38z"/> <path d="M2820 14131 c0 -54 48 -111 94 -111 39 0 19 99 -29 135 -48 37 -65 31 -65 -24z"/> <path d="M5145 13857 c-35 -35 -31 -116 6 -130 42 -16 112 52 105 102 -7 47 -75 64 -111 28z"/> <path d="M4053 13727 c-24 -25 -13 -40 69 -93 97 -64 118 -67 118 -15 0 76 -138 156 -187 108z"/> <path d="M3020 13372 c0 -34 112 -132 150 -132 54 0 53 44 -2 102 -58 61 -148 79 -148 30z"/> <path d="M3793 13187 c-7 -8 -13 -26 -13 -40 0 -33 112 -37 131 -5 25 39 -83 80 -118 45z"/> <path d="M4987 13086 c-24 -4 -59 -26 -79 -48 -55 -60 1 -88 82 -41 54 32 97 107 56 100 -9 -1 -35 -6 -59 -11z"/> <path d="M6565 16015 c-34 -43 -108 -218 -97 -230 30 -29 152 151 152 224 0 37 -28 40 -55 6z"/> <path d="M6271 14921 c-38 -72 -39 -101 -5 -101 26 0 94 99 94 138 0 45 -60 20 -89 -37z"/> <path d="M6152 14002 c-45 -49 -34 -112 18 -112 29 0 42 16 47 57 8 78 -21 103 -65 55z"/> <path d="M5985 13361 c-55 -71 -57 -101 -6 -101 37 0 101 88 101 139 0 39 -50 19 -95 -38z"/> </g> </svg>