<?xml version="1.0" encoding="UTF-8" ?>
<!DOCTYPE svg PUBLIC "-//W3C//DTD SVG 1.1//EN" "http://www.w3.org/Graphics/SVG/1.1/DTD/svg11.dtd">
<svg width="150pt" height="150pt" viewBox="0 0 150 150" version="1.1" xmlns="http://www.w3.org/2000/svg">
<path fill="#f30079" opacity="0.95" d=" M 79.99 39.78 C 91.14 54.41 105.05 66.86 120.80 76.34 C 120.85 77.98 120.95 81.26 121.01 82.90 C 105.27 90.45 88.83 99.52 79.91 115.15 C 78.21 109.22 77.37 103.09 76.59 96.99 C 60.73 96.42 44.77 98.14 28.95 96.82 C 29.00 84.53 28.59 72.24 29.04 59.95 C 28.72 56.06 34.72 56.14 36.99 56.14 C 50.89 55.60 64.81 56.06 78.72 56.00 C 79.04 50.59 79.21 45.15 79.99 39.78 M 83.18 52.92 C 83.02 55.64 82.71 61.07 82.56 63.79 C 65.51 64.21 48.45 64.15 31.40 63.53 C 31.77 72.60 32.00 81.67 32.13 90.75 C 48.33 87.91 64.86 89.21 81.22 89.04 C 81.48 93.82 81.33 98.61 81.38 103.40 C 89.28 93.32 99.58 85.48 110.48 78.89 C 100.79 70.87 91.22 62.66 83.18 52.92 Z" />
</svg>
