<?xml version="1.0" encoding="UTF-8" ?>
<!DOCTYPE svg PUBLIC "-//W3C//DTD SVG 1.1//EN" "http://www.w3.org/Graphics/SVG/1.1/DTD/svg11.dtd">
<svg width="150pt" height="150pt" viewBox="0 0 150 150" version="1.1" xmlns="http://www.w3.org/2000/svg">
<g id="#ff007fff">
<path fill="#ff007f" opacity="1.00" d=" M 96.43 21.26 C 99.65 18.96 103.70 21.54 104.29 25.12 C 101.50 39.10 95.12 52.38 91.35 65.88 C 100.55 82.37 121.04 92.29 125.39 111.89 C 116.10 118.04 106.92 125.03 96.88 129.67 C 79.49 118.21 60.31 109.92 43.07 98.15 C 37.94 94.94 24.45 97.72 27.20 88.40 C 32.12 79.11 24.66 67.67 29.13 59.13 C 52.26 47.84 75.25 36.05 96.43 21.26 M 91.40 35.74 C 74.58 44.67 57.84 53.82 41.27 63.22 C 60.72 79.16 85.38 90.15 108.29 99.21 C 102.09 86.88 86.88 77.35 79.78 65.14 C 85.54 57.13 94.35 42.94 91.40 35.74 M 38.53 75.38 C 36.23 79.17 35.32 84.49 39.21 87.61 C 44.84 86.34 45.38 75.05 38.53 75.38 M 51.78 82.49 C 49.29 86.83 47.51 94.05 54.01 95.72 C 60.55 92.60 61.59 80.17 51.78 82.49 M 68.32 88.44 C 64.33 91.66 62.74 99.31 66.28 102.62 C 70.67 101.20 76.17 90.12 68.32 88.44 M 81.52 97.52 C 78.12 99.27 76.97 103.21 77.36 106.78 C 81.12 112.08 89.99 95.17 81.52 97.52 M 94.30 102.65 C 91.50 105.65 87.04 113.07 92.00 115.81 C 96.51 113.72 98.70 104.46 94.30 102.65 Z" />
</g>
</svg>
