<?xml version="1.0" encoding="UTF-8" ?>
<!DOCTYPE svg PUBLIC "-//W3C//DTD SVG 1.1//EN" "http://www.w3.org/Graphics/SVG/1.1/DTD/svg11.dtd">
<svg width="150pt" height="150pt" viewBox="0 0 150 150" version="1.1" xmlns="http://www.w3.org/2000/svg">
<path fill="#f00078" opacity="0.94" d=" M 25.65 70.30 C 41.19 60.02 52.00 44.62 64.81 31.42 C 65.48 37.20 65.90 43.00 66.42 48.79 C 84.41 51.82 102.61 50.55 120.59 48.27 C 120.95 63.44 121.58 78.62 121.46 93.79 C 102.90 92.04 84.66 97.55 66.12 96.21 C 66.10 102.39 66.42 108.58 65.83 114.74 C 52.68 106.02 40.87 95.35 29.93 84.04 C 26.22 80.45 26.35 75.07 25.65 70.30 M 30.73 75.20 C 40.32 85.07 50.55 94.34 61.83 102.24 C 62.40 97.57 62.94 92.89 63.30 88.20 C 81.29 88.35 98.87 83.92 116.84 83.66 C 116.98 75.14 117.17 66.61 117.63 58.10 C 99.76 59.31 81.57 60.10 63.94 56.27 C 63.42 52.04 62.90 47.81 62.40 43.59 C 52.81 55.03 43.44 66.98 30.73 75.20 Z" />
</svg>
