<?xml version="1.0" encoding="UTF-8" ?>
<!DOCTYPE svg PUBLIC "-//W3C//DTD SVG 1.1//EN" "http://www.w3.org/Graphics/SVG/1.1/DTD/svg11.dtd">
<svg width="150pt" height="150pt" viewBox="0 0 150 150" version="1.1" xmlns="http://www.w3.org/2000/svg">
<g id="#ff007fff">
<path fill="#ff007f" opacity="1.00" d=" M 13.37 19.35 C 20.54 19.14 27.91 19.28 34.63 22.26 C 56.33 25.70 77.35 32.10 98.22 38.70 C 111.31 42.00 124.37 46.07 138.01 46.00 C 141.16 46.70 148.05 44.45 147.14 49.89 C 139.68 60.65 130.53 70.24 119.88 77.88 C 115.77 81.25 116.48 87.12 115.71 91.83 C 113.31 102.66 112.57 113.75 110.64 124.65 C 108.73 126.42 106.56 128.53 103.99 129.23 C 95.23 127.64 87.42 123.09 79.28 119.70 C 76.91 118.81 75.04 116.00 72.36 116.40 C 68.29 120.06 63.83 123.24 59.41 126.44 C 57.48 128.06 55.23 126.41 54.61 124.38 C 43.04 95.15 30.68 66.21 18.92 37.04 C 16.38 32.37 15.67 26.84 12.31 22.60 C 11.27 21.63 12.12 19.60 13.37 19.35 M 27.16 26.15 C 28.39 29.39 32.60 26.76 34.88 28.19 C 36.37 29.59 33.23 29.63 33.32 30.95 C 36.12 34.60 42.11 31.51 45.03 34.97 C 44.28 37.02 41.74 35.96 40.14 36.17 C 41.50 37.39 42.91 38.57 44.42 39.60 C 47.52 40.18 51.76 36.84 54.07 40.03 C 52.48 42.03 49.48 41.55 47.23 42.20 C 48.50 43.39 49.90 44.43 51.22 45.57 C 54.66 44.97 59.49 41.80 62.20 45.04 C 60.03 47.60 56.20 47.16 53.18 47.22 C 54.52 49.03 56.82 49.94 58.29 51.69 C 61.45 55.17 67.13 49.61 70.05 53.02 C 68.41 55.49 64.79 55.06 62.17 55.26 C 66.22 62.67 75.21 59.16 81.74 58.32 C 81.46 62.94 74.59 61.75 71.30 63.13 C 72.47 65.80 75.26 67.60 77.31 69.66 C 81.21 68.97 84.91 67.01 88.87 66.32 C 89.87 66.75 90.50 68.88 88.89 68.99 C 85.59 69.69 82.38 70.74 79.32 72.14 C 81.07 73.69 82.19 76.87 84.87 76.73 C 91.60 75.00 97.54 71.20 103.97 68.76 C 105.79 69.58 104.44 71.68 103.04 72.02 C 97.39 74.19 92.14 77.29 86.37 79.17 C 89.16 82.78 92.16 87.15 96.20 89.81 C 100.35 97.39 102.67 106.65 106.97 113.69 C 108.83 103.14 110.06 92.50 111.84 81.96 C 111.75 78.49 116.28 76.83 115.56 73.46 C 90.77 58.34 67.01 41.13 40.12 29.86 C 36.25 27.41 31.76 26.06 27.16 26.15 M 20.12 27.21 C 31.20 53.45 41.89 79.91 52.71 106.29 C 55.04 110.77 55.71 116.24 59.06 120.11 C 68.34 114.89 75.89 106.91 83.66 99.68 C 85.85 96.91 90.54 94.52 89.59 90.46 C 68.89 66.87 45.76 45.37 20.12 27.21 M 55.17 31.15 L 55.51 31.70 C 77.33 42.52 97.59 56.74 118.33 69.68 C 119.16 70.51 120.41 71.18 121.59 70.61 C 128.44 64.95 135.15 58.87 139.81 51.19 C 128.05 51.53 116.59 48.20 105.18 45.80 C 88.54 40.80 71.95 35.72 55.17 31.15 M 93.18 96.41 C 91.88 97.85 90.01 99.05 89.32 100.88 C 90.90 103.21 92.12 99.05 93.89 99.17 C 94.58 100.03 95.04 101.12 95.96 101.79 C 95.56 99.91 94.99 97.21 93.18 96.41 M 87.21 102.27 C 85.53 102.62 85.81 105.90 87.76 104.99 C 89.39 104.59 88.98 101.73 87.21 102.27 M 93.19 102.23 C 89.64 105.13 96.94 104.93 93.19 102.23 M 97.22 104.25 C 95.98 104.65 95.06 106.63 96.15 107.64 C 97.97 108.50 98.75 104.74 97.22 104.25 M 83.26 106.46 C 82.21 107.12 80.13 109.03 82.36 109.61 C 84.65 111.09 85.90 105.84 83.26 106.46 M 90.24 106.04 C 88.89 106.33 88.27 108.70 89.94 109.01 C 92.18 109.57 92.77 105.22 90.24 106.04 M 93.21 109.27 C 91.76 109.74 91.71 112.23 93.16 112.71 C 94.99 112.66 95.53 108.79 93.21 109.27 M 98.37 109.31 C 97.40 110.66 99.16 113.16 100.71 112.61 C 101.31 111.32 100.04 108.45 98.37 109.31 M 79.17 110.37 C 76.81 111.44 76.98 114.25 79.92 113.83 C 82.99 113.77 81.10 110.37 79.17 110.37 M 86.40 110.40 C 83.83 111.12 86.23 115.47 87.81 112.80 C 89.70 111.80 87.91 109.43 86.40 110.40 M 96.17 112.36 C 93.95 113.96 96.55 117.18 98.73 116.68 C 99.14 114.92 98.07 112.50 96.17 112.36 M 83.13 114.26 C 81.05 114.97 83.42 117.52 84.77 116.57 C 85.41 115.56 84.35 113.88 83.13 114.26 M 90.22 114.44 C 86.87 116.77 92.37 122.18 95.24 120.23 C 96.63 118.91 94.90 117.21 93.80 116.42 C 92.59 116.47 91.19 118.72 90.34 116.87 C 90.14 116.21 91.58 113.65 90.22 114.44 M 101.34 116.41 C 100.81 117.35 99.72 118.55 100.36 119.66 C 102.69 121.29 104.14 115.28 101.34 116.41 M 97.33 121.21 C 96.54 122.47 98.70 123.59 99.62 122.76 C 100.26 121.59 98.22 120.35 97.33 121.21 M 103.31 121.17 C 102.31 121.39 101.32 123.55 102.76 123.79 C 104.35 123.84 105.81 120.33 103.31 121.17 Z" />
</g>
</svg>
