<?xml version="1.0" encoding="UTF-8" ?>
<!DOCTYPE svg PUBLIC "-//W3C//DTD SVG 1.1//EN" "http://www.w3.org/Graphics/SVG/1.1/DTD/svg11.dtd">
<svg width="551pt" height="347pt" viewBox="0 0 551 347" version="1.1" xmlns="http://www.w3.org/2000/svg">
<g id="#ff007fff">
<path fill="#ff007f" opacity="1.00" d=" M 123.28 24.06 C 149.17 18.58 173.36 38.19 199.01 30.63 C 225.92 26.32 253.69 30.27 280.73 27.50 C 312.20 23.03 344.20 24.56 375.50 29.32 C 401.28 31.47 426.54 26.54 451.98 24.60 C 468.25 24.52 489.07 24.68 497.84 41.20 C 511.15 68.59 499.24 99.55 506.08 128.12 C 509.22 159.06 494.09 189.01 499.42 219.95 C 499.78 242.69 506.24 271.67 486.44 288.51 C 469.04 299.83 448.70 288.42 429.99 289.38 C 411.26 288.27 392.67 293.94 374.02 290.24 C 361.56 287.36 348.70 288.69 336.00 288.40 C 303.77 288.26 271.81 284.08 239.49 285.67 C 218.85 287.87 198.70 294.47 178.03 296.42 C 147.89 298.14 119.10 285.37 88.93 287.37 C 69.23 288.56 47.41 300.38 29.03 288.00 C 15.04 273.90 22.38 253.20 22.63 235.97 C 20.87 215.16 26.16 194.21 22.12 173.70 C 12.35 154.88 25.62 134.75 22.61 115.00 C 25.08 89.19 14.62 60.49 29.02 37.03 C 45.95 21.69 70.82 30.65 90.98 31.61 C 102.34 34.54 112.44 26.37 123.28 24.06 Z" />
</g>
</svg>
