<?xml version="1.0" encoding="UTF-8" ?>
<!DOCTYPE svg PUBLIC "-//W3C//DTD SVG 1.1//EN" "http://www.w3.org/Graphics/SVG/1.1/DTD/svg11.dtd">
<svg width="150pt" height="150pt" viewBox="0 0 150 150" version="1.1" xmlns="http://www.w3.org/2000/svg">
<path fill="#fa007c" opacity="0.98" d=" M 22.93 29.22 C 23.98 28.37 25.03 27.53 26.09 26.68 C 29.30 28.39 32.51 30.12 35.70 31.87 C 36.11 30.15 36.54 28.43 36.98 26.72 C 50.58 34.90 62.51 45.41 74.71 55.48 C 86.28 44.84 98.53 34.78 112.04 26.69 C 112.47 28.41 112.88 30.13 113.29 31.86 C 116.79 29.95 120.33 28.10 123.88 26.28 C 124.88 29.04 125.49 31.91 125.86 34.82 C 127.39 34.19 128.93 33.56 130.47 32.95 C 128.60 37.54 127.03 42.71 122.73 45.68 C 112.04 54.18 100.56 61.68 90.46 70.92 C 100.10 81.88 110.07 92.70 117.94 105.05 C 121.58 108.99 120.06 114.35 119.51 119.06 C 115.20 117.86 111.22 121.53 107.35 121.32 C 96.12 109.52 86.38 96.27 74.28 85.26 C 64.60 95.27 54.88 105.31 46.43 116.41 C 44.84 118.25 43.44 120.60 41.06 121.53 C 37.25 120.47 33.63 118.65 29.49 119.06 C 28.94 114.35 27.42 109.00 31.05 105.05 C 38.84 92.63 49.11 82.06 58.59 70.96 C 48.43 61.77 36.96 54.21 26.28 45.66 C 22.06 42.73 20.46 37.67 18.49 33.19 C 20.28 33.81 22.06 34.44 23.85 35.06 C 23.53 33.11 23.22 31.17 22.93 29.22 Z" />
</svg>
