<?xml version="1.0" encoding="UTF-8" ?>
<!DOCTYPE svg PUBLIC "-//W3C//DTD SVG 1.1//EN" "http://www.w3.org/Graphics/SVG/1.1/DTD/svg11.dtd">
<svg width="80pt" height="80pt" viewBox="0 0 80 80" version="1.1" xmlns="http://www.w3.org/2000/svg">
<path fill="#f20078" opacity="0.95" d=" M 21.81 10.92 C 23.14 10.99 24.47 11.07 25.79 11.15 C 27.98 15.39 30.24 19.59 32.37 23.87 C 39.22 21.79 46.13 19.87 53.21 18.74 C 51.83 24.95 48.43 30.44 45.08 35.78 C 52.31 37.67 59.96 39.23 66.03 43.88 C 62.35 46.70 58.37 49.08 54.38 51.43 C 57.78 55.33 61.09 59.32 63.97 63.62 C 55.80 64.57 46.53 71.68 38.70 66.10 C 43.71 63.02 49.55 61.89 55.12 60.23 C 52.62 57.01 48.77 54.42 47.86 50.23 C 49.90 47.84 52.57 46.12 55.04 44.21 C 49.52 42.41 43.95 40.75 38.51 38.73 C 40.14 34.20 42.36 29.93 44.60 25.69 C 39.51 27.06 34.41 28.42 29.21 29.32 C 27.73 26.51 26.26 23.70 24.74 20.90 C 22.93 26.53 20.94 32.11 18.58 37.53 C 17.45 36.67 16.32 35.79 15.19 34.92 C 17.33 26.90 19.31 18.83 21.81 10.92 Z" />
</svg>
