<?xml version="1.0" encoding="UTF-8" ?>
<!DOCTYPE svg PUBLIC "-//W3C//DTD SVG 1.1//EN" "http://www.w3.org/Graphics/SVG/1.1/DTD/svg11.dtd">
<svg width="80pt" height="80pt" viewBox="0 0 80 80" version="1.1" xmlns="http://www.w3.org/2000/svg">
<path fill="#f4007a" opacity="0.96" d=" M 32.42 9.51 C 39.54 9.28 48.55 6.23 54.75 11.24 C 60.15 17.98 58.67 28.77 52.79 34.77 C 49.28 37.20 44.75 37.27 40.72 38.38 C 40.66 46.66 40.70 55.25 43.77 63.07 C 45.29 66.55 42.54 70.14 39.37 71.42 C 34.88 73.21 30.94 68.81 27.16 67.16 C 28.27 64.26 29.57 61.44 31.08 58.72 C 28.05 55.58 25.30 51.71 26.00 46.99 C 26.16 41.18 25.15 34.10 29.27 29.27 C 31.98 26.59 35.77 25.51 39.14 23.94 C 34.69 24.67 30.27 25.53 25.82 26.26 C 24.47 23.98 22.58 21.80 22.26 19.09 C 23.13 14.15 27.42 10.07 32.42 9.51 M 27.34 19.51 C 32.27 19.26 37.21 18.20 42.14 18.84 C 45.28 19.36 47.04 22.76 46.97 25.71 C 43.03 29.41 37.14 30.40 33.50 34.44 C 31.09 40.14 32.64 46.45 32.50 52.45 C 33.55 52.69 34.61 52.92 35.67 53.16 C 34.56 47.75 33.66 42.09 34.61 36.63 C 37.18 31.11 44.75 31.97 49.16 29.08 C 53.32 24.82 51.24 18.48 49.57 13.52 C 42.17 15.23 33.90 15.21 27.34 19.51 M 35.67 64.15 C 34.85 65.35 36.93 66.61 37.71 65.47 C 38.58 64.23 36.47 62.96 35.67 64.15 Z" />
</svg>
