<?xml version="1.0" encoding="UTF-8" ?>
<!DOCTYPE svg PUBLIC "-//W3C//DTD SVG 1.1//EN" "http://www.w3.org/Graphics/SVG/1.1/DTD/svg11.dtd">
<svg width="80pt" height="80pt" viewBox="0 0 80 80" version="1.1" xmlns="http://www.w3.org/2000/svg">
<path fill="#f40079" opacity="0.96" d=" M 23.99 31.99 C 26.69 25.52 29.06 18.59 34.24 13.59 C 35.19 14.53 36.15 15.46 37.10 16.39 C 34.01 25.64 29.78 34.46 26.69 43.72 C 24.02 50.65 22.56 58.10 18.79 64.57 C 17.93 64.11 16.21 63.18 15.35 62.71 C 16.23 52.02 20.09 41.89 23.99 31.99 Z" />
<path fill="#f40079" opacity="0.96" d=" M 29.34 58.85 C 30.22 47.80 37.44 38.28 45.36 31.06 C 45.90 33.50 47.06 36.23 45.60 38.60 C 41.74 45.40 37.59 52.04 33.90 58.95 C 32.38 58.92 30.86 58.88 29.34 58.85 Z" />
<path fill="#f40079" opacity="0.96" d=" M 42.48 58.01 C 40.43 49.07 49.96 43.97 56.48 40.50 C 57.05 41.76 57.64 43.03 58.22 44.30 C 53.24 49.13 48.79 54.81 42.48 58.01 Z" />
<path fill="#f40079" opacity="0.96" d=" M 51.55 58.79 C 53.62 54.07 58.20 51.58 62.56 49.30 C 63.51 51.08 64.47 52.85 65.43 54.63 C 61.22 57.28 56.51 58.59 51.55 58.79 Z" />
</svg>
