<?xml version="1.0" encoding="UTF-8" ?>
<!DOCTYPE svg PUBLIC "-//W3C//DTD SVG 1.1//EN" "http://www.w3.org/Graphics/SVG/1.1/DTD/svg11.dtd">
<svg width="80pt" height="80pt" viewBox="0 0 80 80" version="1.1" xmlns="http://www.w3.org/2000/svg">
<path fill="#f20078" opacity="0.95" d=" M 37.33 16.62 C 42.94 12.79 48.43 7.19 55.89 8.12 C 60.61 9.20 65.21 12.97 65.97 17.97 C 67.36 22.79 64.75 27.23 62.74 31.38 C 65.33 35.21 69.17 39.22 67.42 44.37 C 65.35 51.58 56.74 53.98 50.10 52.87 C 46.95 52.01 45.01 49.17 43.03 46.79 C 47.58 46.95 52.14 47.54 56.71 47.38 C 59.88 46.72 61.60 43.69 63.49 41.38 C 62.61 39.87 61.73 38.36 60.86 36.85 C 57.73 36.75 54.60 36.69 51.47 36.61 C 51.29 35.46 51.10 34.31 50.92 33.16 C 55.27 29.37 62.39 26.14 60.90 19.10 C 60.02 13.71 52.85 11.44 48.63 14.58 C 43.05 17.20 39.78 22.31 37.27 27.67 C 36.31 27.77 35.35 27.88 34.39 27.98 C 32.98 23.16 31.46 18.36 28.99 13.96 C 23.92 14.79 19.09 17.81 18.05 23.18 C 16.41 31.08 23.75 36.23 29.22 40.19 C 30.86 37.73 32.50 35.27 34.13 32.80 C 35.29 33.28 36.45 33.76 37.60 34.24 C 33.52 45.76 26.55 56.22 18.26 65.13 C 18.00 63.30 17.16 61.35 17.74 59.52 C 20.85 53.94 24.43 48.64 27.82 43.24 C 21.74 40.97 15.35 37.04 13.42 30.43 C 8.92 20.58 19.10 7.55 29.82 10.19 C 32.90 11.54 35.00 14.30 37.33 16.62 Z" />
<path fill="#f20078" opacity="0.95" d=" M 27.68 72.46 C 27.62 59.74 34.84 48.47 40.69 37.60 C 41.57 37.90 43.34 38.49 44.22 38.79 C 39.68 50.38 35.72 62.78 27.68 72.46 Z" />
</svg>
