<?xml version="1.0" encoding="UTF-8" ?>
<!DOCTYPE svg PUBLIC "-//W3C//DTD SVG 1.1//EN" "http://www.w3.org/Graphics/SVG/1.1/DTD/svg11.dtd">
<svg width="80pt" height="80pt" viewBox="0 0 80 80" version="1.1" xmlns="http://www.w3.org/2000/svg">
<path fill="#f7007b" opacity="0.97" d=" M 30.25 12.30 C 31.40 8.35 34.21 5.26 37.31 2.70 C 38.66 3.59 40.02 4.47 41.38 5.35 C 35.47 21.46 29.86 38.28 31.28 55.70 C 31.88 60.82 33.90 67.91 39.99 68.69 C 44.18 68.08 47.86 64.62 48.36 60.34 C 49.15 53.11 44.89 45.93 47.81 38.82 C 56.27 42.48 57.35 52.82 56.84 60.88 C 54.95 69.29 47.62 78.09 38.13 76.71 C 31.24 75.99 26.30 69.55 24.69 63.19 C 20.41 46.14 25.00 28.58 30.25 12.30 Z" />
</svg>
