<?xml version="1.0" encoding="UTF-8" ?>
<!DOCTYPE svg PUBLIC "-//W3C//DTD SVG 1.1//EN" "http://www.w3.org/Graphics/SVG/1.1/DTD/svg11.dtd">
<svg width="80pt" height="80pt" viewBox="0 0 80 80" version="1.1" xmlns="http://www.w3.org/2000/svg">
<path fill="#f4007a" opacity="0.96" d=" M 6.09 34.97 C 5.40 25.75 9.92 13.77 20.32 12.67 C 19.12 19.83 13.24 25.12 12.43 32.40 C 11.30 36.76 13.98 40.37 15.89 43.92 C 25.12 44.21 31.43 36.47 40.11 35.06 C 38.61 42.18 36.01 49.63 38.52 56.84 C 44.43 54.93 49.84 51.84 55.58 49.51 C 56.63 53.24 57.62 57.00 58.85 60.69 C 62.88 58.86 66.79 56.77 70.72 54.75 C 71.58 56.24 72.45 57.73 73.31 59.22 C 69.86 62.69 66.72 67.89 60.95 67.00 C 56.40 67.28 53.16 63.61 50.43 60.51 C 45.54 61.58 39.54 64.53 35.10 60.93 C 31.00 58.12 31.45 52.59 30.51 48.24 C 25.29 49.20 19.93 49.99 14.63 49.39 C 8.50 47.75 5.56 40.87 6.09 34.97 Z" />
</svg>
