<?xml version="1.0" encoding="UTF-8" ?>
<!DOCTYPE svg PUBLIC "-//W3C//DTD SVG 1.1//EN" "http://www.w3.org/Graphics/SVG/1.1/DTD/svg11.dtd">
<svg width="80pt" height="80pt" viewBox="0 0 80 80" version="1.1" xmlns="http://www.w3.org/2000/svg">
<path fill="#f30079" opacity="0.95" d=" M 12.25 35.12 C 12.81 29.05 16.99 24.03 21.65 20.43 C 22.88 21.42 24.10 22.41 25.33 23.40 C 23.51 27.69 21.45 31.88 19.57 36.15 C 35.85 37.80 50.76 30.80 65.96 26.46 C 66.81 28.32 67.66 30.18 68.47 32.06 C 54.07 37.51 39.57 44.01 23.99 44.81 C 18.73 44.41 12.27 41.06 12.25 35.12 Z" />
<path fill="#f30079" opacity="0.95" d=" M 12.47 53.04 C 23.72 48.53 35.74 42.93 48.10 44.17 C 48.06 45.86 48.03 47.55 48.00 49.24 C 37.04 52.40 26.07 55.55 15.01 58.35 C 14.15 56.59 13.30 54.82 12.47 53.04 Z" />
</svg>
