<?xml version="1.0" encoding="UTF-8" ?>
<!DOCTYPE svg PUBLIC "-//W3C//DTD SVG 1.1//EN" "http://www.w3.org/Graphics/SVG/1.1/DTD/svg11.dtd">
<svg width="80pt" height="80pt" viewBox="0 0 80 80" version="1.1" xmlns="http://www.w3.org/2000/svg">
<path fill="#f6007b" opacity="0.96" d=" M 16.00 17.14 C 19.20 15.89 21.17 19.40 21.51 22.08 C 21.99 26.64 21.78 31.25 22.02 35.83 C 27.51 33.89 32.08 30.19 36.05 26.03 C 37.78 24.23 40.73 21.69 43.26 23.70 C 46.99 25.69 45.02 31.26 42.70 33.70 C 37.49 40.03 30.31 47.06 21.33 45.64 C 8.82 43.44 4.15 23.21 16.00 17.14 Z" />
<path fill="#f6007b" opacity="0.96" d=" M 46.78 31.74 C 49.69 29.80 55.63 31.66 54.64 35.80 C 52.77 41.14 49.11 45.67 47.17 51.00 C 54.83 50.40 62.32 48.33 70.01 48.12 C 70.03 49.84 70.06 51.56 70.09 53.28 C 63.55 58.84 55.19 63.22 46.30 61.71 C 41.76 60.46 37.95 56.33 37.49 51.58 C 35.98 43.75 40.79 36.30 46.78 31.74 Z" />
</svg>
