<?xml version="1.0" encoding="UTF-8" ?>
<!DOCTYPE svg PUBLIC "-//W3C//DTD SVG 1.1//EN" "http://www.w3.org/Graphics/SVG/1.1/DTD/svg11.dtd">
<svg width="80pt" height="80pt" viewBox="0 0 80 80" version="1.1" xmlns="http://www.w3.org/2000/svg">
<path fill="#f40079" opacity="0.96" d=" M 10.32 23.32 C 17.23 22.06 23.21 26.68 27.63 31.36 C 34.81 42.20 22.69 59.78 9.96 56.14 C 4.61 54.79 2.33 49.25 0.00 44.82 L 0.00 37.29 C 2.41 32.07 4.78 25.92 10.32 23.32 M 12.09 28.40 C 9.51 32.16 6.73 36.15 7.01 41.01 C 4.91 46.64 11.54 51.38 16.37 49.45 C 21.93 47.65 24.26 40.72 22.75 35.40 C 20.15 31.88 15.70 30.57 12.09 28.40 Z" />
<path fill="#f40079" opacity="0.96" d=" M 41.76 33.19 C 47.97 33.92 54.02 35.44 59.44 38.64 C 58.39 43.40 57.03 48.77 52.67 51.66 C 47.87 53.95 40.64 52.82 38.63 47.34 C 36.83 42.28 40.06 37.71 41.76 33.19 M 43.98 39.84 C 44.24 42.01 44.51 44.19 45.15 46.29 C 48.96 46.89 51.05 43.90 53.11 41.51 C 50.08 40.91 47.03 40.35 43.98 39.84 Z" />
<path fill="#f40079" opacity="0.96" d=" M 66.60 37.52 C 71.10 36.16 75.72 38.62 80.00 39.99 L 80.00 46.36 C 76.75 49.74 71.01 52.43 66.72 49.31 C 62.78 46.77 61.85 39.70 66.60 37.52 M 71.53 43.13 C 70.60 44.31 72.65 45.68 73.45 44.46 C 74.43 43.27 72.34 41.93 71.53 43.13 Z" />
</svg>
