<?xml version="1.0" encoding="UTF-8" ?>
<!DOCTYPE svg PUBLIC "-//W3C//DTD SVG 1.1//EN" "http://www.w3.org/Graphics/SVG/1.1/DTD/svg11.dtd">
<svg width="80pt" height="80pt" viewBox="0 0 80 80" version="1.1" xmlns="http://www.w3.org/2000/svg">
<path fill="#f20078" opacity="0.95" d=" M 12.35 47.64 C 18.15 34.63 29.20 23.50 43.05 19.43 C 42.54 21.75 42.11 24.43 39.78 25.66 C 30.33 31.84 21.80 39.55 15.68 49.12 C 14.57 48.63 13.46 48.14 12.35 47.64 Z" />
<path fill="#f20078" opacity="0.95" d=" M 38.99 40.97 C 48.23 37.81 57.97 34.19 67.92 36.01 C 57.84 42.15 45.56 42.87 35.07 48.13 C 27.25 51.48 20.13 56.27 12.25 59.48 C 12.97 57.76 13.44 55.89 14.59 54.39 C 21.54 48.05 30.27 44.21 38.99 40.97 Z" />
</svg>
