<?xml version="1.0" encoding="UTF-8" ?>
<!DOCTYPE svg PUBLIC "-//W3C//DTD SVG 1.1//EN" "http://www.w3.org/Graphics/SVG/1.1/DTD/svg11.dtd">
<svg width="80pt" height="80pt" viewBox="0 0 80 80" version="1.1" xmlns="http://www.w3.org/2000/svg">
<path fill="#f30079" opacity="0.95" d=" M 30.83 24.78 C 36.33 21.43 41.95 18.28 47.75 15.49 C 48.31 16.73 48.87 17.98 49.43 19.24 C 43.58 23.00 37.53 26.44 31.35 29.63 C 31.17 28.01 31.00 26.39 30.83 24.78 Z" />
<path fill="#f30079" opacity="0.95" d=" M 17.80 36.88 C 31.86 32.88 46.52 32.76 61.02 32.82 C 61.14 34.35 61.28 35.89 61.23 37.42 C 47.07 37.98 32.78 37.83 18.91 41.19 C 18.53 39.75 18.16 38.32 17.80 36.88 Z" />
<path fill="#f30079" opacity="0.95" d=" M 27.09 49.40 C 34.41 50.38 41.45 52.83 48.14 55.88 C 51.20 57.13 53.25 59.81 54.99 62.49 C 45.05 62.45 36.53 56.09 27.11 53.77 C 27.10 52.31 27.09 50.85 27.09 49.40 Z" />
</svg>
