<?xml version="1.0" encoding="UTF-8" ?>
<!DOCTYPE svg PUBLIC "-//W3C//DTD SVG 1.1//EN" "http://www.w3.org/Graphics/SVG/1.1/DTD/svg11.dtd">
<svg width="80pt" height="80pt" viewBox="0 0 80 80" version="1.1" xmlns="http://www.w3.org/2000/svg">
<path fill="#f20079" opacity="0.95" d=" M 25.20 24.58 C 26.79 18.42 24.46 10.47 29.85 5.85 C 32.93 10.89 35.00 16.65 38.80 21.22 C 46.76 28.89 58.42 25.66 68.08 28.95 C 63.44 35.00 56.08 38.77 53.00 45.99 C 49.21 54.44 50.66 64.02 50.85 72.98 C 49.52 72.99 48.20 73.00 46.88 73.02 C 43.13 64.11 38.46 55.31 31.39 48.58 C 26.29 43.82 19.28 45.75 13.20 46.91 C 12.80 45.92 12.39 44.94 11.98 43.96 C 17.15 38.17 23.76 32.63 25.20 24.58 M 31.80 23.32 C 30.25 28.90 27.32 33.91 24.35 38.83 C 33.02 41.25 38.84 48.44 44.23 55.19 C 46.10 47.57 49.17 40.37 53.03 33.57 C 45.32 31.69 37.87 28.55 31.80 23.32 Z" />
</svg>
