<?xml version="1.0" encoding="UTF-8" ?>
<!DOCTYPE svg PUBLIC "-//W3C//DTD SVG 1.1//EN" "http://www.w3.org/Graphics/SVG/1.1/DTD/svg11.dtd">
<svg width="80pt" height="80pt" viewBox="0 0 80 80" version="1.1" xmlns="http://www.w3.org/2000/svg">
<path fill="#f4007a" opacity="0.96" d=" M 23.92 12.88 C 28.24 10.17 32.86 14.46 35.04 17.95 C 36.54 22.29 36.18 27.01 36.33 31.54 C 41.31 28.70 46.58 24.92 52.70 26.28 C 58.69 28.35 64.02 34.10 62.89 40.91 C 61.69 47.95 58.20 55.05 51.95 58.90 C 44.70 64.69 35.35 68.31 25.99 67.30 C 27.88 60.40 35.50 59.62 40.88 56.72 C 45.65 54.58 50.09 51.31 52.97 46.89 C 55.76 42.78 54.30 37.45 53.51 32.92 C 44.79 34.02 38.90 41.20 30.77 43.78 C 30.70 40.67 31.19 37.58 31.15 34.47 C 30.07 29.35 28.47 24.31 26.63 19.40 C 24.81 24.20 23.61 29.19 22.22 34.12 C 20.10 32.82 15.71 31.57 16.14 28.15 C 16.71 22.46 19.09 16.27 23.92 12.88 Z" />
</svg>
