<?xml version="1.0" encoding="UTF-8" ?>
<!DOCTYPE svg PUBLIC "-//W3C//DTD SVG 1.1//EN" "http://www.w3.org/Graphics/SVG/1.1/DTD/svg11.dtd">
<svg width="80pt" height="80pt" viewBox="0 0 80 80" version="1.1" xmlns="http://www.w3.org/2000/svg">
<path fill="#f10078" opacity="0.95" d=" M 29.73 17.72 C 32.61 15.43 36.48 15.81 39.94 15.30 C 41.41 18.90 42.88 22.50 44.29 26.13 C 47.09 26.45 50.06 26.20 52.68 27.37 C 55.80 29.23 55.44 33.32 55.79 36.45 C 58.63 38.10 63.01 38.72 62.92 43.04 C 64.78 48.09 61.60 52.73 58.64 56.48 C 57.30 55.83 55.96 55.18 54.62 54.53 C 55.44 50.72 56.45 46.95 57.25 43.13 C 54.02 43.44 50.80 43.76 47.57 44.02 C 47.74 39.90 48.34 35.81 48.83 31.72 C 45.47 32.58 42.15 33.52 38.79 34.33 C 37.83 29.75 37.44 25.05 35.94 20.59 C 32.41 23.65 29.05 27.03 24.75 29.04 C 25.49 24.95 25.97 20.26 29.73 17.72 Z" />
<path fill="#f10078" opacity="0.95" d=" M 15.07 56.59 C 19.97 48.46 26.38 41.03 34.57 36.10 C 34.84 39.76 34.32 43.64 31.14 46.09 C 26.90 50.78 22.50 57.99 15.07 56.59 Z" />
<path fill="#f10078" opacity="0.95" d=" M 20.09 63.29 C 24.35 56.93 29.66 51.28 35.67 46.54 C 36.48 47.08 38.10 48.17 38.91 48.71 C 34.65 55.07 29.34 60.72 23.33 65.46 C 22.52 64.92 20.90 63.83 20.09 63.29 Z" />
</svg>
