<?xml version="1.0" encoding="UTF-8" ?>
<!DOCTYPE svg PUBLIC "-//W3C//DTD SVG 1.1//EN" "http://www.w3.org/Graphics/SVG/1.1/DTD/svg11.dtd">
<svg width="80pt" height="80pt" viewBox="0 0 80 80" version="1.1" xmlns="http://www.w3.org/2000/svg">
<path fill="#f8007c" opacity="0.97" d=" M 27.76 21.68 C 34.29 20.23 40.94 19.39 47.59 18.70 C 49.74 30.88 47.64 43.38 45.40 55.39 C 44.96 61.10 34.92 61.76 34.00 56.13 C 31.59 44.72 29.34 33.25 27.76 21.68 Z" />
<path fill="#f8007c" opacity="0.97" d=" M 8.96 42.71 C 14.15 39.73 19.48 36.90 25.28 35.30 C 27.19 43.27 27.81 51.47 28.29 59.63 C 24.57 59.80 20.01 62.10 17.06 58.99 C 12.75 54.55 11.56 48.12 8.96 42.71 Z" />
<path fill="#f8007c" opacity="0.97" d=" M 55.96 38.26 C 61.49 39.82 66.69 42.30 71.66 45.15 C 69.39 50.14 67.04 55.22 63.27 59.27 C 60.24 64.78 51.75 60.21 51.54 55.04 C 52.02 49.26 53.90 43.66 55.96 38.26 Z" />
</svg>
