<?xml version="1.0" encoding="UTF-8" ?>
<!DOCTYPE svg PUBLIC "-//W3C//DTD SVG 1.1//EN" "http://www.w3.org/Graphics/SVG/1.1/DTD/svg11.dtd">
<svg width="80pt" height="80pt" viewBox="0 0 80 80" version="1.1" xmlns="http://www.w3.org/2000/svg">
<path fill="#f30079" opacity="0.95" d=" M 45.76 23.72 C 48.72 19.29 52.87 13.71 58.89 14.11 C 62.95 15.51 66.81 19.02 67.61 23.40 C 70.60 36.76 65.50 50.12 60.01 62.14 C 58.46 61.63 56.91 61.13 55.35 60.63 C 57.52 50.14 62.67 40.18 62.61 29.32 C 62.92 24.63 59.78 21.27 56.44 18.66 C 53.28 23.63 49.40 28.62 48.63 34.63 C 47.73 43.67 48.69 52.83 47.23 61.82 C 44.44 58.87 41.17 55.60 42.00 51.01 C 41.65 41.90 41.55 32.06 45.76 23.72 Z" />
<path fill="#f30079" opacity="0.95" d=" M 16.35 36.18 C 23.51 33.97 29.04 40.42 31.98 46.00 C 34.90 50.81 35.60 56.51 36.16 61.99 C 34.20 61.23 31.32 61.18 30.54 58.82 C 27.86 52.02 25.13 43.96 17.81 40.91 C 17.55 44.81 17.45 48.71 17.52 52.61 C 19.49 55.96 22.53 58.53 25.21 61.31 C 23.59 62.72 21.95 64.11 20.32 65.51 C 15.18 60.09 10.23 53.87 10.04 46.00 C 10.30 41.93 13.34 38.63 16.35 36.18 Z" />
</svg>
