<?xml version="1.0" encoding="UTF-8" ?>
<!DOCTYPE svg PUBLIC "-//W3C//DTD SVG 1.1//EN" "http://www.w3.org/Graphics/SVG/1.1/DTD/svg11.dtd">
<svg width="80pt" height="80pt" viewBox="0 0 80 80" version="1.1" xmlns="http://www.w3.org/2000/svg">
<path fill="#f5007a" opacity="0.96" d=" M 25.93 37.00 C 34.12 26.13 41.26 13.97 52.99 6.46 C 53.96 7.68 54.92 8.90 55.89 10.13 C 52.44 17.86 48.79 25.50 45.69 33.37 C 50.39 35.19 56.16 35.47 59.90 39.26 C 61.65 43.93 56.84 45.77 54.41 48.41 C 43.04 56.77 33.20 67.45 20.16 73.33 C 20.93 61.79 30.95 53.94 34.52 43.32 C 30.51 45.03 26.42 46.53 22.17 47.50 C 22.78 43.78 22.95 39.78 25.93 37.00 M 33.49 36.37 C 36.22 37.45 38.91 38.65 41.55 39.94 C 39.74 45.93 36.87 51.50 33.97 57.02 C 40.08 52.02 46.26 47.11 52.27 42.00 C 47.89 40.76 43.59 39.22 39.53 37.15 C 40.42 33.02 41.34 28.88 42.73 24.88 C 39.71 28.76 36.68 32.62 33.49 36.37 Z" />
</svg>
