<?xml version="1.0" encoding="UTF-8" ?>
<!DOCTYPE svg PUBLIC "-//W3C//DTD SVG 1.1//EN" "http://www.w3.org/Graphics/SVG/1.1/DTD/svg11.dtd">
<svg width="80pt" height="80pt" viewBox="0 0 80 80" version="1.1" xmlns="http://www.w3.org/2000/svg">
<path fill="#f20078" opacity="0.95" d=" M 39.52 46.61 C 38.92 38.48 34.92 28.75 40.99 21.68 C 45.38 26.92 44.81 34.05 45.76 40.45 C 46.68 44.71 46.44 49.10 45.08 53.22 C 42.71 51.56 39.78 49.83 39.52 46.61 Z" />
<path fill="#f20078" opacity="0.95" d=" M 26.02 22.73 C 28.61 24.79 31.95 26.89 31.06 31.00 C 32.10 37.96 32.54 45.01 32.59 52.05 C 32.62 54.39 31.14 56.35 30.14 58.36 C 25.55 53.02 25.81 45.58 25.08 38.99 C 24.56 33.57 24.10 27.95 26.02 22.73 Z" />
<path fill="#f20078" opacity="0.95" d=" M 48.71 29.97 C 57.98 30.62 56.98 41.52 55.74 48.09 C 54.70 48.08 52.62 48.06 51.58 48.05 C 49.86 42.17 47.95 36.18 48.71 29.97 Z" />
<path fill="#f20078" opacity="0.95" d=" M 63.30 43.52 C 61.85 39.27 60.66 34.61 63.62 30.72 C 66.54 33.92 68.77 37.68 70.02 41.85 C 67.78 42.43 65.54 42.98 63.30 43.52 Z" />
<path fill="#f20078" opacity="0.95" d=" M 11.39 35.06 C 13.11 35.01 14.83 34.97 16.56 34.93 C 17.71 40.52 18.41 46.19 18.57 51.89 C 16.87 51.97 15.16 52.05 13.46 52.12 C 11.69 46.63 11.16 40.81 11.39 35.06 Z" />
</svg>
