<?xml version="1.0" standalone="no"?>
<!DOCTYPE svg PUBLIC "-//W3C//DTD SVG 20010904//EN"
 "http://www.w3.org/TR/2001/REC-SVG-20010904/DTD/svg10.dtd">
<svg version="1.0" xmlns="http://www.w3.org/2000/svg"
 width="841.000000pt" height="31.000000pt" viewBox="0 0 841.000000 31.000000"
 preserveAspectRatio="xMidYMid meet">
<metadata>
Created by potrace 1.10, written by Peter Selinger 2001-2011
</metadata>
<g transform="translate(0.000000,31.000000) scale(0.100000,-0.100000)"
fill="#ff007f" stroke="none">
<path d="M2949 293 c-7 -7 -10 -14 -8 -16 2 -1 25 -13 52 -26 53 -27 75 -23
28 5 -17 10 -31 22 -31 26 0 7 114 -33 151 -53 25 -13 33 -11 20 5 -16 19
-102 55 -156 65 -34 6 -48 5 -56 -6z"/>
<path d="M3150 296 c0 -15 15 -29 35 -32 6 -1 27 -9 48 -18 58 -25 44 -4 -23
32 -46 25 -60 30 -60 18z"/>
<path d="M3699 299 c-8 -5 -27 -6 -43 -3 -27 6 -28 5 -22 -20 l7 -27 -50 26
c-58 29 -71 31 -71 10 0 -8 8 -15 18 -15 9 0 46 -14 80 -30 79 -37 89 -38 62
-3 -21 28 -11 48 13 24 18 -18 29 -13 22 10 -6 18 -4 20 17 14 12 -4 40 -18
61 -32 52 -33 69 -24 20 10 -48 33 -95 48 -114 36z"/>
<path d="M3830 300 c0 -5 13 -16 29 -24 16 -9 43 -27 60 -42 18 -15 34 -24 38
-21 7 7 -41 53 -82 78 -34 21 -45 23 -45 9z"/>
<path d="M2570 290 c0 -5 11 -17 25 -26 39 -25 22 -28 -24 -5 -44 23 -66 27
-55 10 7 -12 89 -49 109 -49 9 0 12 8 9 24 l-4 24 65 -23 c51 -19 65 -21 65
-10 0 12 6 12 41 0 49 -18 49 -18 49 -6 0 15 -78 41 -123 41 -23 0 -64 7 -91
15 -58 18 -66 18 -66 5z"/>
<path d="M3220 295 c0 -2 32 -20 71 -40 79 -40 90 -25 13 17 -44 25 -84 36
-84 23z"/>
<path d="M3330 293 c8 -3 55 -23 104 -45 48 -21 91 -36 95 -33 3 4 -14 25 -39
46 -44 38 -70 49 -70 29 0 -6 -9 -6 -26 0 -14 6 -37 10 -52 9 -15 0 -20 -3
-12 -6z"/>
<path d="M4335 275 c37 -30 31 -31 -30 -4 -79 35 -61 13 25 -30 89 -44 94 -46
85 -31 -10 16 11 12 25 -5 7 -8 18 -15 24 -15 6 1 -7 16 -28 35 -49 44 -40 57
15 21 22 -15 44 -25 47 -22 8 9 -17 31 -63 55 -35 19 -41 19 -51 6 -9 -13 -13
-13 -30 0 -34 25 -51 17 -19 -10z"/>
<path d="M300 275 c-9 -11 -23 -14 -46 -9 -19 3 -40 2 -47 -4 -6 -5 -21 -12
-32 -14 -16 -3 -12 -7 20 -23 22 -11 44 -30 50 -42 11 -26 25 -30 25 -9 0 8
-13 26 -30 39 -16 14 -30 29 -30 33 0 14 69 -5 110 -31 53 -33 63 -26 16 11
-61 49 -18 46 83 -6 52 -28 97 -47 100 -45 7 8 -9 20 -67 50 -79 41 -56 41 38
0 45 -20 84 -34 87 -31 11 10 -131 68 -191 77 -33 6 -63 12 -67 14 -4 3 -12
-2 -19 -10z"/>
<path d="M2235 280 c-7 -11 52 -43 65 -35 5 3 38 -6 75 -21 74 -30 94 -27 39
5 -45 27 -172 63 -179 51z"/>
<path d="M2420 282 c0 -13 95 -68 133 -77 65 -17 -4 29 -125 83 -5 2 -8 -1 -8
-6z"/>
<path d="M2870 278 c1 -15 24 -48 33 -48 4 0 4 7 0 16 -5 14 -3 14 26 -1 47
-24 49 -11 4 19 -41 28 -63 33 -63 14z"/>
<path d="M3960 276 c0 -8 11 -17 24 -20 14 -3 38 -18 56 -32 30 -26 50 -28 35
-4 -8 14 -95 70 -107 70 -4 0 -8 -6 -8 -14z"/>
<path d="M490 268 c0 -14 135 -63 149 -54 5 3 22 -1 37 -9 16 -8 38 -15 49
-15 18 1 19 1 3 11 -10 5 -18 15 -18 21 0 12 -29 37 -44 38 -5 0 -3 -7 4 -15
18 -22 4 -18 -38 10 -50 34 -65 31 -22 -5 42 -36 37 -37 -27 -6 -66 34 -93 41
-93 24z"/>
<path d="M870 271 l-45 -7 45 -13 c25 -7 76 -24 114 -37 38 -14 74 -23 80 -21
13 4 -77 46 -116 54 -16 3 -28 9 -28 14 0 16 39 10 118 -18 42 -14 93 -27 112
-28 19 -1 49 -5 65 -10 65 -17 7 12 -75 38 -91 28 -196 39 -270 28z"/>
<path d="M1470 265 c0 -12 -5 -15 -17 -10 -10 3 -40 9 -68 12 -64 7 -51 -11
20 -27 28 -6 78 -21 113 -32 35 -11 66 -18 69 -15 3 3 -19 18 -49 33 -29 15
-48 29 -43 31 6 2 57 -10 113 -25 56 -16 102 -25 102 -19 0 5 11 6 28 2 45
-12 128 -16 117 -6 -28 26 -154 58 -235 60 -47 1 -100 4 -117 7 -27 5 -33 3
-33 -11z m227 -21 c-3 -3 -12 -4 -19 -1 -8 3 -5 6 6 6 11 1 17 -2 13 -5z"/>
<path d="M1880 273 c1 -11 170 -86 177 -79 8 8 10 7 -81 49 -80 38 -96 43 -96
30z"/>
<path d="M2015 270 c-8 -13 4 -32 15 -25 4 3 27 -4 51 -14 61 -26 89 -34 89
-24 0 4 -19 16 -43 26 -23 11 -56 25 -74 33 -20 9 -34 10 -38 4z"/>
<path d="M2120 271 c0 -17 215 -89 227 -77 3 3 0 8 -8 10 -8 3 -57 21 -109 41
-103 38 -110 40 -110 26z"/>
<path d="M4050 271 c0 -5 13 -11 28 -14 15 -3 52 -22 81 -42 65 -45 77 -40 20
9 -61 52 -24 45 50 -9 69 -51 98 -59 57 -16 -48 50 -114 80 -179 80 -31 0 -57
-4 -57 -8z"/>
<path d="M19 251 c13 -12 30 -21 37 -21 17 0 52 -21 107 -63 21 -16 41 -27 44
-23 19 19 -116 111 -178 122 l-34 5 24 -20z"/>
<path d="M740 263 c0 -10 174 -73 199 -73 30 0 -6 18 -89 45 -47 15 -91 30
-97 33 -7 2 -13 0 -13 -5z"/>
<path d="M1146 261 c13 -13 184 -64 191 -57 3 3 -3 8 -13 12 -10 3 -47 17 -82
30 -63 24 -115 32 -96 15z"/>
<path d="M1240 262 c0 -12 206 -74 228 -70 9 2 -35 21 -98 41 -126 40 -130 41
-130 29z"/>
<path d="M1841 254 c18 -22 78 -51 122 -59 51 -10 46 -1 -10 20 -27 10 -60 26
-75 36 -33 24 -56 26 -37 3z"/>
<path d="M3238 213 c7 -3 16 -2 19 1 4 3 -2 6 -13 5 -11 0 -14 -3 -6 -6z"/>
<path d="M838 153 c7 -3 16 -2 19 1 4 3 -2 6 -13 5 -11 0 -14 -3 -6 -6z"/>
<path d="M968 153 c6 -2 18 -2 25 0 6 3 1 5 -13 5 -14 0 -19 -2 -12 -5z"/>
<path d="M1498 153 c6 -2 18 -2 25 0 6 3 1 5 -13 5 -14 0 -19 -2 -12 -5z"/>
<path d="M2118 153 c7 -3 16 -2 19 1 4 3 -2 6 -13 5 -11 0 -14 -3 -6 -6z"/>
<path d="M2248 153 c7 -3 16 -2 19 1 4 3 -2 6 -13 5 -11 0 -14 -3 -6 -6z"/>
</g>
</svg>
