<?xml version="1.0" encoding="UTF-8" ?>
<!DOCTYPE svg PUBLIC "-//W3C//DTD SVG 1.1//EN" "http://www.w3.org/Graphics/SVG/1.1/DTD/svg11.dtd">
<svg width="150pt" height="150pt" viewBox="0 0 150 150" version="1.1" xmlns="http://www.w3.org/2000/svg">
<g id="#ff007fff">
<path fill="#ff007f" opacity="1.00" d=" M 47.32 18.11 C 55.51 17.06 63.81 17.77 72.04 17.64 C 86.60 19.97 102.20 16.43 115.99 22.85 C 126.27 27.52 131.34 39.21 131.47 50.00 C 131.48 66.32 131.60 82.65 131.57 98.97 C 132.20 112.59 122.58 125.70 109.68 129.81 C 95.32 135.02 79.93 133.03 65.00 133.41 C 56.54 133.87 48.42 130.99 40.00 130.61 C 31.38 130.39 23.09 124.90 20.03 116.77 C 17.68 111.47 18.67 105.57 18.53 99.96 C 18.21 90.95 16.18 82.04 16.60 73.01 C 16.90 60.81 15.33 48.30 19.29 36.51 C 22.53 24.39 36.31 20.00 47.32 18.11 M 46.51 23.76 C 39.49 24.64 32.70 27.71 27.49 32.48 C 22.55 38.82 22.04 47.27 22.43 55.00 C 22.58 66.33 21.77 77.71 23.41 88.96 C 24.44 98.83 20.97 110.11 27.28 118.73 C 33.64 126.59 44.62 125.36 53.54 127.21 C 64.01 127.96 74.52 127.18 85.00 127.54 C 94.69 128.05 104.67 126.74 113.40 122.32 C 122.17 117.35 127.04 106.91 126.54 97.01 C 126.38 82.35 126.56 67.67 126.36 53.01 C 125.69 45.83 125.26 37.64 119.62 32.37 C 112.47 24.53 100.90 23.95 91.00 24.45 C 76.23 23.18 61.32 23.15 46.51 23.76 Z" />
<path fill="#ff007f" opacity="1.00" d=" M 74.62 37.63 C 79.57 37.56 84.74 36.75 89.54 38.27 C 93.70 39.84 91.54 45.63 94.90 48.11 C 97.26 51.63 101.50 52.28 105.05 53.94 C 108.89 57.98 107.17 64.43 107.64 69.50 C 102.95 74.35 95.92 69.68 91.26 66.94 C 91.02 77.89 93.28 89.70 87.87 99.80 C 79.49 115.25 54.27 117.56 43.97 103.01 C 38.27 95.15 40.88 84.86 42.97 76.22 C 45.15 67.82 54.12 64.69 61.49 62.30 C 64.79 60.98 69.67 61.46 71.28 65.01 C 71.83 70.11 71.47 75.26 71.33 80.38 C 68.33 80.50 65.31 80.64 62.31 80.42 C 59.39 83.78 56.71 89.32 59.59 93.40 C 65.52 97.36 73.06 92.46 75.32 86.55 C 76.54 70.22 73.89 53.96 74.62 37.63 M 80.35 42.20 C 80.37 56.80 80.65 71.41 80.55 86.01 C 80.68 91.68 75.85 95.79 71.53 98.65 C 65.01 102.94 54.86 99.65 52.80 91.92 C 51.72 84.04 57.12 73.28 66.58 75.51 C 66.45 72.75 66.43 69.98 66.50 67.21 C 58.70 68.04 48.67 71.24 47.43 80.27 C 45.69 88.44 44.29 100.17 53.45 104.46 C 64.84 112.00 82.82 105.08 85.19 91.37 C 86.37 81.68 84.91 71.84 85.88 62.14 C 90.56 56.29 96.19 65.76 101.70 66.03 C 101.57 63.30 101.52 60.58 101.38 57.85 C 94.25 57.29 89.20 51.17 87.03 44.81 C 86.19 41.92 82.62 42.71 80.35 42.20 Z" />
</g>
</svg>
