<?xml version="1.0" encoding="UTF-8" ?>
<!DOCTYPE svg PUBLIC "-//W3C//DTD SVG 1.1//EN" "http://www.w3.org/Graphics/SVG/1.1/DTD/svg11.dtd">
<svg width="150pt" height="150pt" viewBox="0 0 150 150" version="1.1" xmlns="http://www.w3.org/2000/svg">
<g id="#ff007fff">
<path fill="#ff007f" opacity="1.00" d=" M 49.35 17.18 C 58.14 16.17 67.23 16.30 75.98 17.63 C 89.57 17.91 103.95 15.96 116.51 22.37 C 125.75 26.36 130.08 36.54 131.37 45.94 C 131.44 63.96 131.46 81.97 131.45 99.99 C 131.29 112.16 123.12 123.49 111.99 128.14 C 94.74 134.89 75.99 131.58 57.94 132.38 C 47.12 129.99 35.06 131.22 25.61 124.40 C 21.06 119.48 17.87 112.82 18.57 105.99 C 19.17 93.88 15.97 82.14 16.64 70.00 C 16.99 55.63 14.48 39.15 24.07 27.08 C 31.28 21.37 40.20 17.93 49.35 17.18 M 47.49 22.69 C 40.57 23.58 34.04 26.32 28.48 30.49 C 24.12 34.44 23.47 40.64 22.40 46.08 C 22.68 60.38 21.51 74.82 23.39 88.97 C 24.10 99.20 20.90 111.11 28.48 119.52 C 35.54 125.69 45.59 124.47 54.08 126.60 C 68.03 126.57 81.97 126.63 95.91 126.60 C 103.92 125.21 112.61 123.64 118.50 117.51 C 123.12 113.53 124.88 107.41 126.52 101.77 C 126.68 84.88 126.48 67.99 126.57 51.10 C 125.23 45.21 125.44 38.51 121.41 33.56 C 116.59 26.68 107.94 24.20 100.02 23.39 C 82.45 23.91 65.07 21.28 47.49 22.69 Z" />
<path fill="#ff007f" opacity="1.00" d=" M 54.25 41.05 C 66.42 39.89 78.80 40.87 91.05 40.62 C 101.75 41.41 108.36 52.11 109.38 61.94 C 109.48 70.77 109.75 79.66 107.49 88.25 C 107.24 94.39 106.01 101.95 99.80 104.89 C 87.92 111.29 73.98 109.05 61.02 109.44 C 55.13 109.93 48.48 108.04 45.15 102.81 C 38.24 89.00 38.72 72.91 40.59 58.06 C 39.82 49.71 46.28 42.60 54.25 41.05 M 58.44 45.65 C 54.04 46.42 49.41 47.87 47.10 52.06 C 43.30 67.52 42.72 84.64 49.57 99.45 C 54.63 106.75 64.49 104.10 72.00 104.59 C 81.60 104.46 93.13 104.68 100.39 97.44 C 103.24 86.92 103.90 75.94 103.65 65.00 C 104.11 59.17 102.22 53.14 98.01 49.02 C 93.75 45.85 88.17 45.17 83.01 45.46 C 74.83 45.61 66.59 45.05 58.44 45.65 Z" />
<path fill="#ff007f" opacity="1.00" d=" M 91.05 51.70 C 93.40 51.37 95.36 52.83 97.28 53.93 C 97.36 55.61 97.38 57.30 97.27 58.99 C 96.41 59.64 95.63 60.37 94.93 61.18 C 93.65 61.29 92.37 61.28 91.10 61.14 C 90.36 60.37 89.59 59.65 88.77 58.98 C 88.13 56.23 88.82 53.50 91.05 51.70 Z" />
<path fill="#ff007f" opacity="1.00" d=" M 70.29 57.10 C 76.24 55.87 84.81 55.98 87.63 62.51 C 92.22 70.05 92.18 81.90 84.52 87.50 C 76.65 94.48 61.81 92.01 58.38 81.46 C 53.65 72.04 59.34 58.41 70.29 57.10 M 69.43 62.59 C 61.04 65.79 59.97 78.07 66.17 83.82 C 72.31 87.89 82.91 85.78 84.88 78.05 C 86.67 73.29 85.35 67.70 82.11 63.88 C 78.47 61.29 73.59 62.50 69.43 62.59 Z" />
</g>
</svg>
